<svg width="38" height="38" viewBox="0 0 38 38" fill="none" xmlns="http://www.w3.org/2000/svg">
<path d="M34.834 19.166C34.834 22.2977 33.9054 25.359 32.1655 27.9629C30.4257 30.5668 27.9527 32.5963 25.0594 33.7947C22.1661 34.9932 18.9825 35.3067 15.911 34.6958C12.8395 34.0848 10.0181 32.5768 7.80369 30.3624C5.58927 28.1479 4.08123 25.3266 3.47027 22.2551C2.85931 19.1836 3.17288 15.9999 4.37131 13.1066C5.56975 10.2133 7.59924 7.7404 10.2031 6.00054C12.807 4.26068 15.8684 3.33203 19 3.33203C21.0794 3.33203 23.1384 3.74159 25.0594 4.53732C26.9805 5.33306 28.726 6.49938 30.1964 7.9697C31.6667 9.44003 32.833 11.1856 33.6287 13.1066C34.4245 15.0277 34.834 17.0867 34.834 19.166ZM29.07 13.916C29.07 13.706 28.9866 13.5045 28.8381 13.356C28.6895 13.2075 28.4881 13.124 28.278 13.124H26.568C26.3918 12.4472 25.9959 11.8479 25.4425 11.4202C24.8891 10.9925 24.2095 10.7604 23.51 10.7604C22.8106 10.7604 22.1309 10.9925 21.5775 11.4202C21.0241 11.8479 20.6283 12.4472 20.452 13.124H9.82402C9.61397 13.124 9.41252 13.2075 9.264 13.356C9.11547 13.5045 9.03202 13.706 9.03202 13.916C9.03202 14.1261 9.11547 14.3275 9.264 14.4761C9.41252 14.6246 9.61397 14.708 9.82402 14.708H20.452C20.6283 15.3849 21.0241 15.9841 21.5775 16.4119C22.1309 16.8396 22.8106 17.0716 23.51 17.0716C24.2095 17.0716 24.8891 16.8396 25.4425 16.4119C25.9959 15.9841 26.3918 15.3849 26.568 14.708H28.278C28.4881 14.708 28.6895 14.6246 28.8381 14.4761C28.9866 14.3275 29.07 14.1261 29.07 13.916ZM29.07 19.176C29.07 19.072 29.0495 18.969 29.0097 18.8729C28.9699 18.7769 28.9116 18.6895 28.8381 18.616C28.7645 18.5425 28.6772 18.4841 28.5811 18.4443C28.485 18.4045 28.382 18.384 28.278 18.384H17.65C17.4738 17.7072 17.0779 17.1079 16.5245 16.6802C15.9711 16.2525 15.2915 16.0204 14.592 16.0204C13.8926 16.0204 13.2129 16.2525 12.6595 16.6802C12.1061 17.1079 11.7103 17.7072 11.534 18.384H9.82402C9.61397 18.384 9.41252 18.4675 9.264 18.616C9.11547 18.7645 9.03202 18.966 9.03202 19.176C9.03202 19.3861 9.11547 19.5875 9.264 19.7361C9.41252 19.8846 9.61397 19.968 9.82402 19.968H11.534C11.7103 20.6449 12.1061 21.2441 12.6595 21.6719C13.2129 22.0996 13.8926 22.3316 14.592 22.3316C15.2915 22.3316 15.9711 22.0996 16.5245 21.6719C17.0779 21.2441 17.4738 20.6449 17.65 19.968H28.278C28.382 19.968 28.485 19.9475 28.5811 19.9077C28.6772 19.8679 28.7645 19.8096 28.8381 19.7361C28.9116 19.6625 28.9699 19.5752 29.0097 19.4791C29.0495 19.383 29.07 19.28 29.07 19.176ZM29.07 24.436C29.07 24.332 29.0495 24.229 29.0097 24.1329C28.9699 24.0369 28.9116 23.9495 28.8381 23.876C28.7645 23.8025 28.6772 23.7441 28.5811 23.7043C28.485 23.6645 28.382 23.644 28.278 23.644H26.568C26.3918 22.9672 25.9959 22.3679 25.4425 21.9402C24.8891 21.5125 24.2095 21.2804 23.51 21.2804C22.8106 21.2804 22.1309 21.5125 21.5775 21.9402C21.0241 22.3679 20.6283 22.9672 20.452 23.644H9.82402C9.7168 23.6386 9.6096 23.6551 9.50894 23.6924C9.40828 23.7297 9.31625 23.7871 9.23846 23.8611C9.16066 23.9351 9.09872 24.0241 9.05639 24.1228C9.01406 24.2214 8.99224 24.3277 8.99224 24.435C8.99224 24.5424 9.01406 24.6486 9.05639 24.7473C9.09872 24.8459 9.16066 24.935 9.23846 25.009C9.31625 25.0829 9.40828 25.1403 9.50894 25.1776C9.6096 25.215 9.7168 25.2314 9.82402 25.226H20.452C20.6283 25.9029 21.0241 26.5021 21.5775 26.9299C22.1309 27.3576 22.8106 27.5896 23.51 27.5896C24.2095 27.5896 24.8891 27.3576 25.4425 26.9299C25.9959 26.5021 26.3918 25.9029 26.568 25.226H28.278C28.4881 25.226 28.6895 25.1426 28.8381 24.9941C28.9866 24.8455 29.07 24.6441 29.07 24.434V24.436ZM16.166 19.176C16.166 19.4878 16.0735 19.7926 15.9003 20.0518C15.727 20.311 15.4808 20.513 15.1927 20.6323C14.9046 20.7515 14.5876 20.7826 14.2818 20.7216C13.9761 20.6606 13.6952 20.5103 13.4749 20.2897C13.2546 20.0691 13.1046 19.7881 13.0441 19.4823C12.9835 19.1764 13.015 18.8595 13.1346 18.5715C13.2542 18.2836 13.4565 18.0376 13.7159 17.8647C13.9753 17.6917 14.2802 17.5996 14.592 17.6C15.0097 17.6006 15.41 17.7668 15.7051 18.0623C16.0003 18.3578 16.166 18.7584 16.166 19.176ZM25.086 13.916C25.086 14.2273 24.9938 14.5315 24.8209 14.7903C24.648 15.0491 24.4023 15.2508 24.1148 15.37C23.8273 15.4892 23.511 15.5205 23.2057 15.4599C22.9004 15.3994 22.62 15.2497 22.3997 15.0297C22.1795 14.8098 22.0295 14.5295 21.9685 14.2243C21.9076 13.9191 21.9384 13.6027 22.0573 13.3151C22.1761 13.0274 22.3775 12.7815 22.6361 12.6083C22.8947 12.4351 23.1988 12.3424 23.51 12.342C23.9273 12.3426 24.3274 12.5086 24.6224 12.8036C24.9175 13.0987 25.0835 13.4987 25.084 13.916H25.086ZM25.086 24.436C25.0856 24.7472 24.993 25.0512 24.8199 25.3097C24.6468 25.5683 24.401 25.7697 24.1134 25.8886C23.8259 26.0075 23.5096 26.0385 23.2045 25.9777C22.8993 25.9169 22.619 25.767 22.399 25.547C22.179 25.327 22.0292 25.0467 21.9684 24.7416C21.9076 24.4365 21.9386 24.1201 22.0575 23.8326C22.1763 23.5451 22.3778 23.2992 22.6363 23.1261C22.8948 22.953 23.1989 22.8604 23.51 22.86C23.9273 22.8606 24.3274 23.0266 24.6224 23.3216C24.9175 23.6167 25.0835 24.0167 25.084 24.434L25.086 24.436Z" fill="#FFD831"/>
</svg>
