<svg width="98" height="92" viewBox="0 0 98 92" fill="none" xmlns="http://www.w3.org/2000/svg">
<path d="M95.9268 24.8793L82.733 41.011C81.7397 42.2254 79.7988 41.8756 79.292 40.3909L78.6264 38.4408C77.9713 36.5212 75.2044 36.6836 74.7783 38.6666L72.2439 50.4603C71.776 52.6377 68.6353 52.5355 68.31 50.3322L62.4628 10.7293C62.1386 8.53327 59.012 8.4214 58.5316 10.5887L50.9151 44.9512C50.4627 46.992 47.5775 47.0584 47.0318 45.0405L41.4916 24.5539C40.9488 22.5468 38.084 22.5977 37.6129 24.6228L33.1524 43.7968L26.4286 73.4463L23.1052 83.1706C22.4081 85.2104 19.4214 84.8558 19.2213 82.7094L15.0014 37.4518C14.8243 35.5517 12.3401 34.9555 11.3199 36.5683L7.42833 42.7201C6.50165 44.185 4.27729 43.8578 3.81164 42.1881L1.92676 35.4294" stroke="#6FCF97" stroke-width="4"/>
</svg>
