<svg width="20" height="20" viewBox="0 0 20 20" fill="none" xmlns="http://www.w3.org/2000/svg">
<g clip-path="url(#clip0_10_13628)">
<path d="M10 0.3125C4.65821 0.3125 0.3125 4.65821 0.3125 10C0.3125 15.3418 4.65821 19.6875 10 19.6875C15.3418 19.6875 19.6875 15.3418 19.6875 10C19.6875 4.6582 15.3418 0.3125 10 0.3125ZM14.158 11.9542C14.2116 11.3096 14.241 10.6548 14.241 10C14.241 9.34517 14.2116 8.69041 14.158 8.04581C16.544 8.56529 17.8125 9.45629 17.8125 10C17.8125 10.5437 16.544 11.4347 14.158 11.9542ZM10 17.8125C9.45629 17.8125 8.56529 16.544 8.04581 14.158C8.69041 14.2116 9.34517 14.241 10 14.241C10.6548 14.241 11.3096 14.2116 11.9542 14.158C11.4347 16.544 10.5437 17.8125 10 17.8125ZM10 12.366C9.18736 12.366 8.44093 12.3222 7.74895 12.2511C7.6778 11.5591 7.63398 10.8126 7.63398 10C7.63398 9.18736 7.67781 8.44093 7.74895 7.74895C8.44094 7.67781 9.18736 7.63398 10 7.63398C10.8126 7.63398 11.5591 7.67781 12.2511 7.74895C12.3222 8.44094 12.366 9.18736 12.366 10C12.366 10.8126 12.3222 11.5591 12.2511 12.2511C11.5591 12.3222 10.8126 12.366 10 12.366ZM2.1875 10C2.1875 9.45629 3.45596 8.56529 5.84198 8.04581C5.78838 8.69041 5.75898 9.34517 5.75898 10C5.75898 10.6548 5.78839 11.3096 5.84198 11.9542C3.45596 11.4347 2.1875 10.5437 2.1875 10ZM10 2.1875C10.5437 2.1875 11.4347 3.45596 11.9542 5.84198C11.3096 5.78838 10.6548 5.75898 10 5.75898C9.34517 5.75898 8.69041 5.78839 8.04581 5.84198C8.56529 3.45596 9.45629 2.1875 10 2.1875ZM17.2462 7.09454C16.3078 6.65093 15.1568 6.31878 13.9045 6.09547C13.6812 4.84322 13.3491 3.69221 12.9055 2.75376C14.8782 3.54771 16.4523 5.12176 17.2462 7.09454ZM7.09454 2.75379C6.65093 3.69225 6.31878 4.84326 6.09547 6.09547C4.84326 6.31878 3.69225 6.65085 2.75379 7.0945C3.54774 5.12173 5.12181 3.54774 7.09454 2.75379ZM2.75383 12.9055C3.69229 13.3491 4.84326 13.6812 6.09547 13.9045C6.31878 15.1567 6.65085 16.3077 7.0945 17.2462C5.12181 16.4522 3.54778 14.8782 2.75383 12.9055ZM12.9055 17.2462C13.3491 16.3077 13.6812 15.1567 13.9045 13.9045C15.1567 13.6812 16.3077 13.3491 17.2462 12.9055C16.4523 14.8782 14.8783 16.4523 12.9055 17.2462Z" fill="black"/>
</g>
<defs>
<clipPath id="clip0_10_13628">
<rect width="20" height="20" fill="white"/>
</clipPath>
</defs>
</svg>
