<svg width="20" height="20" viewBox="0 0 20 20" fill="none" xmlns="http://www.w3.org/2000/svg">
<g clip-path="url(#clip0_10_4327)">
<path d="M19.3669 3.55848H18.4786V3.09465C18.4786 2.74488 18.195 2.46137 17.8453 2.46137H17.4971V0.774766C17.4971 0.516758 17.288 0.307617 17.03 0.307617H16.0711C15.8131 0.307617 15.6039 0.516758 15.6039 0.774766V2.46137H15.2558C14.9061 2.46137 14.6225 2.74492 14.6225 3.09465V3.55848H14.5962C14.2464 3.55848 13.9629 3.84203 13.9629 4.19176C13.9629 4.54148 14.2464 4.82504 14.5962 4.82504H14.6225V16.2183C14.6225 16.3089 14.642 16.3985 14.6796 16.481L15.9743 19.3219C16.0772 19.5477 16.3025 19.6926 16.5506 19.6926C16.7987 19.6926 17.024 19.5477 17.1269 19.3219L18.4217 16.481C18.4592 16.3985 18.4787 16.309 18.4787 16.2183V4.82508H18.7338V9.39254C18.7338 9.7423 19.0173 10.0258 19.367 10.0258C19.7168 10.0258 20.0003 9.74226 20.0003 9.39254V4.1918C20.0002 3.84203 19.7166 3.55848 19.3669 3.55848ZM16.5505 17.5322L15.9804 16.2814H17.1205L16.5505 17.5322Z" fill="black"/>
<path d="M12.6141 0.184082H0.647188C0.289766 0.184082 0 0.473887 0 0.83127V19.1689C0 19.5264 0.289766 19.8161 0.647188 19.8161H12.614C12.9714 19.8161 13.2612 19.5263 13.2612 19.1689V0.83127C13.2612 0.473887 12.9714 0.184082 12.6141 0.184082ZM11.2474 7.04447C11.2474 7.40193 10.9576 7.69166 10.6002 7.69166H2.66109C2.30363 7.69166 2.01391 7.40189 2.01391 7.04447C2.01391 6.68701 2.30367 6.39728 2.66109 6.39728H10.6002C10.9576 6.39728 11.2474 6.68709 11.2474 7.04447ZM11.2474 10.1224C11.2474 10.4798 10.9576 10.7696 10.6002 10.7696H2.66109C2.30363 10.7696 2.01391 10.4798 2.01391 10.1224C2.01391 9.7649 2.30367 9.47517 2.66109 9.47517H10.6002C10.9576 9.47514 11.2474 9.7649 11.2474 10.1224ZM2.5602 2.60033H6.40031C6.75777 2.60033 7.0475 2.8901 7.0475 3.24752C7.0475 3.60494 6.75773 3.89471 6.40031 3.89471H2.5602C2.20273 3.89471 1.91301 3.60494 1.91301 3.24752C1.91301 2.8901 2.20277 2.60033 2.5602 2.60033ZM2.01383 13.2002C2.01383 12.8428 2.30359 12.553 2.66102 12.553H10.6002C10.9576 12.553 11.2473 12.8428 11.2473 13.2002C11.2473 13.5577 10.9576 13.8474 10.6002 13.8474H2.66109C2.30363 13.8474 2.01383 13.5576 2.01383 13.2002ZM12.5634 16.751L10.2543 19.0601C10.0689 19.2454 9.79039 19.3004 9.54895 19.2004C9.30711 19.1002 9.14941 18.8643 9.14941 18.6024V16.2933C9.14941 15.9358 9.43918 15.6461 9.7966 15.6461H12.1057C12.3675 15.6461 12.6035 15.8038 12.7037 16.0457C12.8038 16.2875 12.7485 16.5659 12.5634 16.751Z" fill="black"/>
</g>
<defs>
<clipPath id="clip0_10_4327">
<rect width="20" height="20" fill="white"/>
</clipPath>
</defs>
</svg>
