<svg width="16" height="16" viewBox="0 0 16 16" fill="none" xmlns="http://www.w3.org/2000/svg">
<g clip-path="url(#clip0_10_13784)">
<path d="M7.99994 4C7.82313 4 7.65356 4.07024 7.52853 4.19526C7.40351 4.32029 7.33327 4.48986 7.33327 4.66667V8C7.33331 8.1768 7.40357 8.34634 7.52861 8.47133L9.52861 10.4713C9.65434 10.5928 9.82274 10.66 9.99754 10.6584C10.1723 10.6569 10.3395 10.5868 10.4632 10.4632C10.5868 10.3396 10.6569 10.1724 10.6584 9.9976C10.6599 9.8228 10.5927 9.6544 10.4713 9.52867L8.66661 7.724V4.66667C8.66661 4.48986 8.59637 4.32029 8.47134 4.19526C8.34632 4.07024 8.17675 4 7.99994 4ZM15.8746 6.75467C15.6458 5.30522 15.0227 3.94665 14.0735 2.82758C13.1243 1.7085 11.8856 0.87205 10.493 0.409733C9.1003 -0.0525844 7.60731 -0.122955 6.17734 0.206321C4.74736 0.535597 3.4355 1.25183 2.38527 2.27667V0.666667C2.38527 0.489856 2.31504 0.320286 2.19001 0.195262C2.06499 0.0702379 1.89542 0 1.71861 0C1.5418 0 1.37223 0.0702379 1.2472 0.195262C1.12218 0.320286 1.05194 0.489856 1.05194 0.666667V3.33333C1.05194 3.68696 1.19242 4.02609 1.44246 4.27614C1.69251 4.52619 2.03165 4.66667 2.38527 4.66667H5.05194C5.22875 4.66667 5.39832 4.59643 5.52334 4.4714C5.64837 4.34638 5.71861 4.17681 5.71861 4C5.71861 3.82319 5.64837 3.65362 5.52334 3.5286C5.39832 3.40357 5.22875 3.33333 5.05194 3.33333H3.21794C4.28327 2.25175 5.68615 1.5666 7.19415 1.39139C8.70215 1.21619 10.2247 1.56144 11.5097 2.36996C12.7946 3.17847 13.7648 4.40172 14.2594 5.83702C14.754 7.27233 14.7434 8.83354 14.2294 10.262C13.7153 11.6905 12.7287 12.9004 11.4329 13.6914C10.1371 14.4824 8.60993 14.807 7.10445 14.6114C5.59897 14.4157 4.20552 13.7116 3.15496 12.6156C2.1044 11.5197 1.45979 10.0977 1.32794 8.58533C1.31065 8.42283 1.23321 8.27267 1.11084 8.16435C0.988465 8.05604 0.830007 7.99742 0.666606 8C0.57337 8.00025 0.481208 8.01992 0.395992 8.05775C0.310776 8.09558 0.234375 8.15075 0.171657 8.21974C0.108939 8.28873 0.0612797 8.37003 0.031715 8.45846C0.0021502 8.54688 -0.00867139 8.64049 -6.03122e-05 8.73333C0.105363 9.79562 0.422324 10.8261 0.932149 11.764C1.44197 12.7019 2.13435 13.5282 2.96849 14.1944C3.80263 14.8606 4.76165 15.3531 5.78907 15.6429C6.81649 15.9326 7.89151 16.0139 8.95081 15.8818C10.0101 15.7497 11.0323 15.4069 11.957 14.8737C12.8818 14.3404 13.6905 13.6275 14.3355 12.7769C14.9805 11.9262 15.4487 10.9551 15.7126 9.92075C15.9764 8.88637 16.0306 7.80964 15.8719 6.754L15.8746 6.75467Z" fill="black"/>
</g>
<defs>
<clipPath id="clip0_10_13784">
<rect width="16" height="16" fill="white"/>
</clipPath>
</defs>
</svg>
