<svg width="20" height="20" viewBox="0 0 20 20" fill="none" xmlns="http://www.w3.org/2000/svg">
<g clip-path="url(#clip0_10_13571)">
<path d="M19.0621 4.09082H13.4593V2.60448C13.4593 1.71973 12.7395 1 11.8548 1H8.1451C7.26035 1 6.54062 1.71973 6.54062 2.60448V4.09082H0.937776C0.419859 4.09082 0 4.51076 0 5.02868V17.1725C0 17.6904 0.419859 18.1103 0.937776 18.1103H1.43033V18.2223C1.43033 18.6517 1.77858 19 2.20834 19C2.63767 19 2.98601 18.6517 2.98601 18.2223V18.1103H17.0137V18.2223C17.0137 18.6517 17.3619 19 17.7917 19C18.221 19 18.5693 18.6517 18.5693 18.2223V18.1103H19.0621C19.5801 18.1103 20 17.6904 20 17.1725V5.02868C20 4.51076 19.5801 4.09082 19.0621 4.09082ZM7.87398 2.60448C7.87398 2.45506 7.99572 2.33336 8.1451 2.33336H11.8548C12.0042 2.33336 12.1259 2.45511 12.1259 2.60448V4.09082H7.87398V2.60448ZM14.9231 12.5029C14.7301 12.6966 14.4622 12.8079 14.1885 12.8079H14.166L14.1819 12.8238C14.3779 13.0198 14.486 13.2803 14.486 13.5572C14.486 13.8343 14.3779 14.0947 14.1819 14.2906L13.2333 15.2396C13.0374 15.4348 12.777 15.5426 12.5003 15.5426C12.2233 15.5426 11.9629 15.4348 11.7672 15.2392L11.7509 15.2226V15.2457C11.7509 15.8174 11.2858 16.2825 10.7139 16.2825H9.37235C8.80077 16.2825 8.33564 15.8174 8.33564 15.2457V15.2226L8.31962 15.2386C8.12401 15.4346 7.86329 15.5423 7.58622 15.5423C7.3125 15.5423 7.04487 15.4313 6.85315 15.2386L5.90364 14.2893C5.5003 13.8847 5.5003 13.2271 5.90431 12.8235L5.91991 12.8079H5.89811C5.32653 12.8079 4.86131 12.3427 4.86131 11.7707V10.429C4.86131 9.85699 5.32649 9.39185 5.89811 9.39185H5.91991L5.90498 9.37685C5.70899 9.1809 5.60091 8.92051 5.60091 8.64345C5.60091 8.37065 5.71159 8.1031 5.90498 7.91004L6.85382 6.96082C7.04981 6.7655 7.31024 6.65776 7.58689 6.65776C7.86396 6.65776 8.12468 6.76584 8.31996 6.96183L8.33564 6.97743V6.95529C8.33564 6.68317 8.44304 6.43737 8.61522 6.25216C8.80467 6.04841 9.07289 5.91849 9.37235 5.91849H10.7139C11.0137 5.91849 11.2819 6.04841 11.4714 6.25216C11.6436 6.43737 11.7509 6.68317 11.7509 6.95529V6.97675L11.7666 6.96116C11.9622 6.76517 12.2226 6.65743 12.5 6.65743C12.777 6.65743 13.0374 6.76517 13.2331 6.96116L14.1816 7.90971C14.3776 8.1057 14.4857 8.36612 14.4857 8.64311C14.4857 8.91691 14.3743 9.1845 14.1819 9.37617L14.166 9.39185H14.1885C14.76 9.39185 15.2252 9.85699 15.2252 10.429L15.2255 11.7707C15.2255 12.0436 15.1148 12.3109 14.9231 12.5029Z" fill="#CDCDCD"/>
<path d="M14.1889 10.0586H13.4281C13.362 9.84409 13.2754 9.63866 13.1719 9.44402L13.7106 8.90497C13.7803 8.83563 13.8194 8.74122 13.8194 8.64324C13.8194 8.54498 13.7803 8.4509 13.7106 8.38127L12.7621 7.43268C12.6898 7.3604 12.5951 7.32426 12.5004 7.32426C12.4053 7.32426 12.3106 7.3604 12.2383 7.43268L11.6992 7.97172C11.5042 7.86817 11.2991 7.78194 11.0846 7.7162V6.95547C11.0846 6.75105 10.9186 6.58533 10.7142 6.58533H9.3727C9.16829 6.58533 9.00265 6.75105 9.00265 6.95547V7.7162C8.78813 7.78194 8.58271 7.86821 8.38739 7.97172L7.84897 7.4333C7.77669 7.36069 7.68195 7.32456 7.58691 7.32456C7.49216 7.32456 7.3975 7.36069 7.32522 7.43297L6.37663 8.38156C6.30696 8.45124 6.26788 8.54565 6.26788 8.64358C6.26788 8.74193 6.30696 8.83596 6.37663 8.90564L6.91505 9.44406C6.8115 9.63904 6.72531 9.84413 6.65919 10.0586H5.89846C5.69404 10.0586 5.52832 10.2247 5.52832 10.4291V11.7709C5.52832 11.9753 5.69404 12.1413 5.89846 12.1413H6.65886C6.72497 12.3559 6.81125 12.5613 6.91471 12.7563L6.376 13.295C6.23179 13.4392 6.23179 13.6738 6.376 13.8184L7.32493 14.7673C7.39427 14.837 7.48868 14.8757 7.58661 14.8757C7.68497 14.8757 7.779 14.837 7.84868 14.7673L8.38705 14.2289C8.58237 14.3324 8.78779 14.419 9.00265 14.4847V15.2458C9.00265 15.4502 9.16833 15.6159 9.3727 15.6159H10.7142C10.9187 15.6159 11.0846 15.4502 11.0846 15.2458V14.4847C11.2991 14.419 11.5049 14.3324 11.6999 14.2289L12.239 14.7677C12.3113 14.8399 12.406 14.8761 12.5007 14.8761C12.5954 14.8761 12.6904 14.8399 12.7627 14.7677L13.711 13.8194C13.7807 13.7497 13.8197 13.6556 13.8197 13.5573C13.8197 13.4591 13.7807 13.365 13.711 13.2953L13.1722 12.7566C13.2757 12.5616 13.3623 12.3558 13.4281 12.1413H14.1888C14.2867 12.1413 14.3815 12.1022 14.4508 12.0326C14.5202 11.9632 14.5592 11.8688 14.5592 11.7708L14.5589 10.4291C14.5589 10.2246 14.3932 10.0586 14.1889 10.0586ZM10.0433 13.4824C8.72985 13.4824 7.66115 12.4138 7.66115 11.1003C7.66115 9.78678 8.72981 8.71808 10.0433 8.71808C11.3571 8.71808 12.4257 9.78682 12.4257 11.1003C12.4257 12.4137 11.3571 13.4824 10.0433 13.4824Z" fill="#CDCDCD"/>
<path d="M10.0426 9.38477C9.09665 9.38477 8.32715 10.1543 8.32715 11.1003C8.32715 12.0462 9.09669 12.8157 10.0426 12.8157C10.9886 12.8157 11.7584 12.0462 11.7584 11.1003C11.7584 10.1543 10.9886 9.38477 10.0426 9.38477Z" fill="#CDCDCD"/>
</g>
<defs>
<clipPath id="clip0_10_13571">
<rect width="20" height="20" fill="white"/>
</clipPath>
</defs>
</svg>
