<svg width="20" height="20" viewBox="0 0 20 20" fill="none" xmlns="http://www.w3.org/2000/svg">
<path d="M7.27805 8.42027C7.27805 7.47363 6.72273 6.69371 5.66121 6.51953C5.51512 6.56816 5.35938 6.59543 5.19711 6.59543C5.03492 6.59543 4.87891 6.56816 4.73281 6.51953C3.6718 6.69375 3.11621 7.47367 3.11621 8.42027H5.19715H7.27805Z" fill="black"/>
<path d="M5.19633 6.25796C5.82551 6.25796 6.33535 5.74812 6.33535 5.11925V4.79609C6.33535 4.16691 5.82551 3.6571 5.19633 3.6571C4.56719 3.6571 4.05762 4.16695 4.05762 4.79609V5.11925C4.05762 5.74816 4.56719 6.25796 5.19633 6.25796Z" fill="black"/>
<path d="M12.0808 8.42027C12.0808 7.47363 11.5252 6.69371 10.4637 6.51953C10.3176 6.56816 10.1621 6.59543 9.99988 6.59543C9.83766 6.59543 9.68168 6.56816 9.53555 6.51953C8.47426 6.69375 7.91895 7.47367 7.91895 8.42027H9.99988H12.0808Z" fill="black"/>
<path d="M10.0003 6.25796C10.6292 6.25796 11.1391 5.74812 11.1391 5.11925V4.79609C11.1391 4.16691 10.6292 3.6571 10.0003 3.6571C9.37113 3.6571 8.86133 4.16695 8.86133 4.79609V5.11925C8.86133 5.74816 9.37113 6.25796 10.0003 6.25796Z" fill="black"/>
<path d="M16.8842 8.42027C16.8842 7.47363 16.3286 6.69371 15.2674 6.51953C15.1212 6.56816 14.9655 6.59543 14.8036 6.59543C14.6411 6.59543 14.4854 6.56816 14.3392 6.51953C13.278 6.69375 12.7227 7.47367 12.7227 8.42027H14.8036H16.8842Z" fill="black"/>
<path d="M14.8033 6.25796C15.432 6.25796 15.9421 5.74812 15.9421 5.11925V4.79609C15.9421 4.16691 15.432 3.6571 14.8033 3.6571C14.1741 3.6571 13.6641 4.16695 13.6641 4.79609V5.11925C13.6641 5.74816 14.1741 6.25796 14.8033 6.25796Z" fill="black"/>
<path d="M19.9691 15.8164L17.1789 9.33412C17.1191 9.19556 16.9829 9.10583 16.8321 9.10583H3.16804C3.01726 9.10583 2.88101 9.19552 2.82148 9.33388L0.0307723 15.8164C-0.019384 15.9329 -0.00770429 16.067 0.0619832 16.1731C0.131905 16.2789 0.250225 16.3428 0.377374 16.3428H6.89651C7.3455 15.5839 8.11952 15.0333 9.20573 14.8552C9.45585 14.9381 9.72257 14.9849 10.0003 14.9849C10.278 14.9849 10.5447 14.9381 10.7948 14.8552C11.8808 15.0333 12.6547 15.5839 13.1035 16.3428H19.6228C19.7497 16.3428 19.8683 16.2789 19.9379 16.1731C20.0076 16.067 20.0195 15.9329 19.9691 15.8164ZM11.9496 12.4581C11.9496 13.5347 11.0768 14.4075 10.0002 14.4075C8.92331 14.4075 8.05081 13.5347 8.05081 12.4581V11.9049C8.05081 10.8283 8.92335 9.95552 10.0002 9.95552C11.0768 9.95552 11.9496 10.8283 11.9496 11.9049V12.4581Z" fill="black"/>
</svg>
