<svg width="27" height="27" viewBox="0 0 27 27" fill="none" xmlns="http://www.w3.org/2000/svg">
<path fill-rule="evenodd" clip-rule="evenodd" d="M13.5 24.75C8.19669 24.75 5.54505 24.75 3.89753 23.1024C2.25 21.455 2.25 18.8032 2.25 13.5C2.25 8.19669 2.25 5.54505 3.89753 3.89753C5.54505 2.25 8.19669 2.25 13.5 2.25C18.8032 2.25 21.455 2.25 23.1024 3.89753C24.75 5.54505 24.75 8.19669 24.75 13.5C24.75 18.8032 24.75 21.455 23.1024 23.1024C21.455 24.75 18.8032 24.75 13.5 24.75ZM10.3477 8.15625H10.4648C11.4756 8.15622 12.3184 8.15619 12.9876 8.24615C13.6938 8.34111 14.3315 8.54999 14.8438 9.06239C15.3562 9.5748 15.5652 10.2124 15.6601 10.9187C15.7501 11.5878 15.75 12.4307 15.75 13.4415V13.5C15.75 13.966 15.3722 14.3438 14.9062 14.3438C14.4403 14.3438 14.0625 13.966 14.0625 13.5C14.0625 12.4155 14.0607 11.687 13.9877 11.1436C13.9178 10.6244 13.7972 10.4022 13.6506 10.2556C13.504 10.109 13.2819 9.9884 12.7627 9.91861C12.2193 9.84555 11.4908 9.84375 10.4062 9.84375C9.32174 9.84375 8.59323 9.84555 8.04981 9.91861C7.53067 9.9884 7.3085 10.109 7.16188 10.2556C7.01528 10.4022 6.89465 10.6244 6.82486 11.1436C6.7518 11.687 6.75 12.4155 6.75 13.5C6.75 14.5845 6.7518 15.313 6.82486 15.8564C6.89465 16.3756 7.01528 16.5978 7.16188 16.7444C7.3085 16.891 7.53067 17.0116 8.04981 17.0814C8.59323 17.1545 9.32174 17.1562 10.4062 17.1562C10.8722 17.1562 11.25 17.534 11.25 18C11.25 18.466 10.8722 18.8438 10.4062 18.8438H10.3477C9.33695 18.8438 8.49409 18.8439 7.82496 18.7539C7.1187 18.6589 6.48105 18.45 5.96864 17.9376C5.45624 17.4252 5.24736 16.7876 5.1524 16.0813C5.06244 15.4122 5.06247 14.5693 5.0625 13.5585V13.4415C5.06247 12.4307 5.06244 11.5878 5.1524 10.9187C5.24736 10.2124 5.45624 9.5748 5.96864 9.06239C6.48105 8.54999 7.1187 8.34111 7.82496 8.24615C8.49408 8.15619 9.33698 8.15622 10.3477 8.15625ZM18.9502 9.91861C18.4068 9.84555 17.6783 9.84375 16.5938 9.84375C16.1278 9.84375 15.75 9.466 15.75 9C15.75 8.53401 16.1278 8.15625 16.5938 8.15625H16.6523C17.6631 8.15622 18.5059 8.15619 19.1751 8.24615C19.8813 8.34111 20.519 8.54999 21.0313 9.06239C21.5438 9.5748 21.7527 10.2124 21.8476 10.9187C21.9376 11.5878 21.9375 12.4307 21.9375 13.4414V13.5585C21.9375 14.5693 21.9376 15.4122 21.8476 16.0813C21.7527 16.7876 21.5438 17.4252 21.0313 17.9376C20.519 18.45 19.8813 18.6589 19.1751 18.7539C18.5059 18.8439 17.6631 18.8438 16.6523 18.8438H16.5352C15.5244 18.8438 14.6816 18.8439 14.0124 18.7539C13.3062 18.6589 12.6685 18.45 12.1562 17.9376C11.6438 17.4252 11.4348 16.7876 11.3399 16.0813C11.2499 15.4122 11.25 14.5693 11.25 13.5585V13.5C11.25 13.034 11.6278 12.6562 12.0938 12.6562C12.5597 12.6562 12.9375 13.034 12.9375 13.5C12.9375 14.5845 12.9393 15.313 13.0123 15.8564C13.0822 16.3756 13.2028 16.5978 13.3494 16.7444C13.496 16.891 13.7181 17.0116 14.2373 17.0814C14.7807 17.1545 15.5092 17.1562 16.5938 17.1562C17.6783 17.1562 18.4068 17.1545 18.9502 17.0814C19.4694 17.0116 19.6915 16.891 19.8381 16.7444C19.9847 16.5978 20.1053 16.3756 20.1752 15.8564C20.2482 15.313 20.25 14.5845 20.25 13.5C20.25 12.4155 20.2482 11.687 20.1752 11.1436C20.1053 10.6244 19.9847 10.4022 19.8381 10.2556C19.6915 10.109 19.4694 9.9884 18.9502 9.91861Z" fill="#1C274C"/>
</svg>
