<svg width="18" height="18" viewBox="0 0 18 18" fill="none" xmlns="http://www.w3.org/2000/svg">
<g clip-path="url(#clip0_10_1129)">
<path fill-rule="evenodd" clip-rule="evenodd" d="M9 5.0625C8.06794 5.0625 7.3125 5.81794 7.3125 6.75C7.3125 7.68206 8.06794 8.4375 9 8.4375C9.93206 8.4375 10.6875 7.68206 10.6875 6.75C10.6875 5.81794 9.93206 5.0625 9 5.0625ZM9 9.5625C7.44694 9.5625 6.1875 8.30363 6.1875 6.75C6.1875 5.19637 7.44694 3.9375 9 3.9375C10.5531 3.9375 11.8125 5.19637 11.8125 6.75C11.8125 8.30363 10.5531 9.5625 9 9.5625ZM9 0C5.27231 0 2.25 3.02231 2.25 6.75C2.25 9.57263 7.87781 18.0062 9 18C10.1048 18.0062 15.75 9.53438 15.75 6.75C15.75 3.02231 12.7277 0 9 0Z" fill="#1C212D"/>
</g>
<defs>
<clipPath id="clip0_10_1129">
<rect width="18" height="18" fill="white"/>
</clipPath>
</defs>
</svg>
