<svg width="20" height="20" viewBox="0 0 20 20" fill="none" xmlns="http://www.w3.org/2000/svg">
<path d="M6.24405 10H4.15516C3.84834 10 3.59961 10.2487 3.59961 10.5556V15.8444C3.59961 16.1513 3.84834 16.4 4.15516 16.4H6.24405C6.55088 16.4 6.79961 16.1513 6.79961 15.8444V10.5556C6.79961 10.2487 6.55088 10 6.24405 10Z" fill="#CDCDCD"/>
<path d="M11.0448 3.6001H8.95595C8.64912 3.6001 8.40039 3.84883 8.40039 4.15565V15.8445C8.40039 16.1514 8.64912 16.4001 8.95595 16.4001H11.0448C11.3517 16.4001 11.6004 16.1514 11.6004 15.8445V4.15565C11.6004 3.84883 11.3517 3.6001 11.0448 3.6001Z" fill="#CDCDCD"/>
<path d="M15.8446 7.8667H13.7558C13.4489 7.8667 13.2002 8.11543 13.2002 8.42225V15.8445C13.2002 16.1513 13.4489 16.4 13.7558 16.4H15.8446C16.1515 16.4 16.4002 16.1513 16.4002 15.8445V8.42225C16.4002 8.11543 16.1515 7.8667 15.8446 7.8667Z" fill="#CDCDCD"/>
</svg>
