<svg width="20" height="20" viewBox="0 0 20 20" fill="none" xmlns="http://www.w3.org/2000/svg">
<path d="M5 18.3334H15C15.663 18.3334 16.2989 18.07 16.7678 17.6012C17.2366 17.1323 17.5 16.4965 17.5 15.8334V5.83341C17.5 5.39139 17.3244 4.96746 17.0118 4.6549C16.6993 4.34234 16.2754 4.16675 15.8333 4.16675H14.1667V2.50008C14.1667 2.27907 14.0789 2.06711 13.9226 1.91083C13.7663 1.75455 13.5543 1.66675 13.3333 1.66675C13.1123 1.66675 12.9004 1.75455 12.7441 1.91083C12.5878 2.06711 12.5 2.27907 12.5 2.50008V4.16675H7.5V2.50008C7.5 2.27907 7.4122 2.06711 7.25592 1.91083C7.09964 1.75455 6.88768 1.66675 6.66667 1.66675C6.44565 1.66675 6.23369 1.75455 6.07741 1.91083C5.92113 2.06711 5.83333 2.27907 5.83333 2.50008V4.16675H4.16667C3.72464 4.16675 3.30072 4.34234 2.98816 4.6549C2.67559 4.96746 2.5 5.39139 2.5 5.83341V15.8334C2.5 16.4965 2.76339 17.1323 3.23223 17.6012C3.70107 18.07 4.33696 18.3334 5 18.3334ZM4.16667 10.4167C4.16667 10.3062 4.21057 10.2003 4.28871 10.1221C4.36685 10.044 4.47283 10.0001 4.58333 10.0001H15.4167C15.5272 10.0001 15.6332 10.044 15.7113 10.1221C15.7894 10.2003 15.8333 10.3062 15.8333 10.4167V15.8334C15.8333 16.0544 15.7455 16.2664 15.5893 16.4227C15.433 16.579 15.221 16.6667 15 16.6667H5C4.77899 16.6667 4.56702 16.579 4.41074 16.4227C4.25446 16.2664 4.16667 16.0544 4.16667 15.8334V10.4167Z" fill="black"/>
</svg>
