<svg width="45" height="9" viewBox="0 0 45 9" fill="none" xmlns="http://www.w3.org/2000/svg">
<path fill-rule="evenodd" clip-rule="evenodd" d="M5.52536 3.37629L4.5 0L3.47464 3.37629H0L2.81121 5.562L1.76786 9L4.5 6.87536L7.23214 9L6.18879 5.562L9 3.37629H5.52536Z" fill="#FCA120"/>
<path fill-rule="evenodd" clip-rule="evenodd" d="M14.5254 3.37629L13.5 0L12.4746 3.37629H9L11.8112 5.562L10.7679 9L13.5 6.87536L16.2321 9L15.1888 5.562L18 3.37629H14.5254Z" fill="#FCA120"/>
<path fill-rule="evenodd" clip-rule="evenodd" d="M23.5254 3.37629L22.5 0L21.4746 3.37629H18L20.8112 5.562L19.7679 9L22.5 6.87536L25.2321 9L24.1888 5.562L27 3.37629H23.5254Z" fill="#FCA120"/>
<path fill-rule="evenodd" clip-rule="evenodd" d="M32.5254 3.37629L31.5 0L30.4746 3.37629H27L29.8112 5.562L28.7679 9L31.5 6.87536L34.2321 9L33.1888 5.562L36 3.37629H32.5254Z" fill="#FCA120"/>
<path fill-rule="evenodd" clip-rule="evenodd" d="M41.5254 3.37629L40.5 0L39.4746 3.37629H36L38.8112 5.562L37.7679 9L40.5 6.87536L43.2321 9L42.1888 5.562L45 3.37629H41.5254Z" fill="#FCA120"/>
</svg>
