<svg width="20" height="20" viewBox="0 0 20 20" fill="none" xmlns="http://www.w3.org/2000/svg">
<path fill-rule="evenodd" clip-rule="evenodd" d="M9.99953 13.3333C8.17353 13.3333 6.6942 11.8413 6.6942 10C6.6942 8.15867 8.17353 6.66667 9.99953 6.66667C11.8255 6.66667 13.3055 8.15867 13.3055 10C13.3055 11.8413 11.8255 13.3333 9.99953 13.3333ZM19.3382 12.3573L17.7895 11.456C17.8762 10.9827 17.9335 10.4993 17.9335 10C17.9335 9.50133 17.8762 9.01734 17.7895 8.54401L19.3382 7.64266C19.9709 7.27466 20.1869 6.45866 19.8215 5.82133L18.4995 3.512C18.1349 2.87467 17.3255 2.65534 16.6935 3.02401L15.1289 3.934C14.3982 3.30733 13.5675 2.79466 12.6442 2.46466V1.33333C12.6442 0.597333 12.0522 0 11.3215 0H8.67753C7.94686 0 7.35486 0.597333 7.35486 1.33333V2.46466C6.43153 2.79466 5.60087 3.30733 4.8702 3.934L3.30553 3.02401C2.67353 2.65534 1.8642 2.87467 1.49953 3.512L0.177531 5.82133C-0.187802 6.45866 0.0288632 7.27466 0.660863 7.64266L2.20953 8.54401C2.12287 9.01734 2.06553 9.50133 2.06553 10C2.06553 10.4993 2.12287 10.9827 2.20953 11.456L0.660863 12.3573C0.0288632 12.7253 -0.187802 13.5413 0.177531 14.1787L1.49953 16.488C1.8642 17.1253 2.67353 17.3447 3.30553 16.976L4.8702 16.066C5.60087 16.6927 6.43153 17.206 7.35486 17.5353V18.6667C7.35486 19.4027 7.94686 20 8.67753 20H11.3215C12.0522 20 12.6442 19.4027 12.6442 18.6667V17.5353C13.5675 17.206 14.3982 16.6927 15.1289 16.066L16.6935 16.976C17.3255 17.3447 18.1349 17.1253 18.4995 16.488L19.8215 14.1787C20.1869 13.5413 19.9709 12.7253 19.3382 12.3573ZM9.99953 8C8.9042 8 8.0162 8.896 8.0162 10C8.0162 11.1047 8.9042 12 9.99953 12C11.0949 12 11.9829 11.1047 11.9829 10C11.9829 8.896 11.0949 8 9.99953 8Z" fill="#CDCDCD"/>
</svg>
