<svg width="26" height="26" viewBox="0 0 26 26" fill="none" xmlns="http://www.w3.org/2000/svg">
<g clip-path="url(#clip0_10_14667)">
<path d="M6.17508 4.95614H26.0001V7.00364H6.17508V4.95614ZM6.17508 11.9274H26.0001V13.9749H6.17508V11.9274ZM6.17508 19.0124H26.0001V21.0599H6.17508V19.0124ZM2.03133 4.06239C2.55443 4.04925 3.06152 4.24345 3.44202 4.60265C3.82253 4.96184 4.04559 5.4569 4.06258 5.97989C4.04142 6.50002 3.81653 6.99095 3.43648 7.34667C3.05643 7.7024 2.55172 7.89437 2.03133 7.88114C1.51095 7.89437 1.00623 7.7024 0.626186 7.34667C0.246138 6.99095 0.0212491 6.50002 8.30963e-05 5.97989C0.0170742 5.4569 0.24014 4.96184 0.620645 4.60265C1.00115 4.24345 1.50823 4.04925 2.03133 4.06239ZM2.03133 11.0499C2.29688 11.0254 2.56462 11.0565 2.81745 11.1413C3.07029 11.2261 3.30265 11.3627 3.4997 11.5424C3.69675 11.7221 3.85415 11.9409 3.96184 12.1849C4.06954 12.4288 4.12517 12.6926 4.12517 12.9593C4.12517 13.2259 4.06954 13.4897 3.96184 13.7337C3.85415 13.9776 3.69675 14.1964 3.4997 14.3761C3.30265 14.5558 3.07029 14.6924 2.81745 14.7772C2.56462 14.862 2.29688 14.8932 2.03133 14.8686C1.76579 14.8932 1.49804 14.862 1.24521 14.7772C0.99238 14.6924 0.760017 14.5558 0.562969 14.3761C0.365921 14.1964 0.20852 13.9776 0.100823 13.7337C-0.00687446 13.4897 -0.0625 13.2259 -0.0625 12.9593C-0.0625 12.6926 -0.00687446 12.4288 0.100823 12.1849C0.20852 11.9409 0.365921 11.7221 0.562969 11.5424C0.760017 11.3627 0.99238 11.2261 1.24521 11.1413C1.49804 11.0565 1.76579 11.0254 2.03133 11.0499ZM2.03133 18.1186C2.29688 18.0941 2.56462 18.1253 2.81745 18.2101C3.07029 18.2949 3.30265 18.4315 3.4997 18.6112C3.69675 18.7909 3.85415 19.0097 3.96184 19.2536C4.06954 19.4976 4.12517 19.7613 4.12517 20.028C4.12517 20.2947 4.06954 20.5584 3.96184 20.8024C3.85415 21.0464 3.69675 21.2652 3.4997 21.4449C3.30265 21.6246 3.07029 21.7612 2.81745 21.846C2.56462 21.9308 2.29688 21.9619 2.03133 21.9374C1.76579 21.9619 1.49804 21.9308 1.24521 21.846C0.99238 21.7612 0.760017 21.6246 0.562969 21.4449C0.365921 21.2652 0.20852 21.0464 0.100823 20.8024C-0.00687446 20.5584 -0.0625 20.2947 -0.0625 20.028C-0.0625 19.7613 -0.00687446 19.4976 0.100823 19.2536C0.20852 19.0097 0.365921 18.7909 0.562969 18.6112C0.760017 18.4315 0.99238 18.2949 1.24521 18.2101C1.49804 18.1253 1.76579 18.0941 2.03133 18.1186Z" fill="white"/>
</g>
<defs>
<clipPath id="clip0_10_14667">
<rect width="26" height="26" fill="white"/>
</clipPath>
</defs>
</svg>
