<svg width="37" height="37" viewBox="0 0 37 37" fill="none" xmlns="http://www.w3.org/2000/svg">
<path d="M18.5007 34.8876C17.4678 34.8876 16.4195 34.6564 15.6024 34.1784L7.12327 29.2914C3.66994 26.9634 3.4541 26.6089 3.4541 22.9551V14.0443C3.4541 10.3905 3.65452 10.0359 7.04618 7.73887L15.587 2.80553C17.2057 1.86512 19.7495 1.86512 21.3682 2.80553L29.8782 7.70803C33.3316 10.0359 33.5474 10.3905 33.5474 14.0443V22.9397C33.5474 26.5934 33.347 26.948 29.9553 29.2451L21.4145 34.1784C20.582 34.6564 19.5336 34.8876 18.5007 34.8876ZM18.5007 4.42428C17.8532 4.42428 17.2211 4.54762 16.7741 4.8097L8.29493 9.7122C5.78202 11.408 5.78202 11.408 5.78202 14.0443V22.9397C5.78202 25.5759 5.78202 25.5759 8.3566 27.318L16.7741 32.1743C17.6836 32.6984 19.3332 32.6984 20.2428 32.1743L28.722 27.2718C31.2195 25.5759 31.2195 25.5759 31.2195 22.9397V14.0443C31.2195 11.408 31.2195 11.408 28.6449 9.66595L20.2274 4.8097C19.7803 4.54762 19.1482 4.42428 18.5007 4.42428Z" fill="white"/>
<path d="M18.5 24.2812C15.3088 24.2812 12.7188 21.6912 12.7188 18.5C12.7188 15.3088 15.3088 12.7188 18.5 12.7188C21.6912 12.7188 24.2812 15.3088 24.2812 18.5C24.2812 21.6912 21.6912 24.2812 18.5 24.2812ZM18.5 15.0312C16.5883 15.0312 15.0312 16.5883 15.0312 18.5C15.0312 20.4117 16.5883 21.9688 18.5 21.9688C20.4117 21.9688 21.9688 20.4117 21.9688 18.5C21.9688 16.5883 20.4117 15.0312 18.5 15.0312Z" fill="white"/>
</svg>
