<svg width="20" height="20" viewBox="0 0 20 20" fill="none" xmlns="http://www.w3.org/2000/svg">
<path d="M10.1484 4.24219V3.22656H11.7969V1.72656H10.1484V1.42969H9.85156V1.72656V3.22656V4.24219L6.32812 7.11719H13.6719L10.1484 4.24219ZM10 6.65625C9.57812 6.65625 9.23438 6.3125 9.23438 5.89062C9.23438 5.46875 9.57812 5.125 10 5.125C10.4219 5.125 10.7656 5.46875 10.7656 5.89062C10.7656 6.3125 10.4219 6.65625 10 6.65625ZM19.0234 18.125L19.0391 12.1875H13.6719V7.42188H10H6.32812V12.1875H0.953125L0.96875 18.125H0.414062V19.7812H10H19.5859V18.125H19.0234ZM2.69531 17.5234H1.94531V13.4531H2.69531V17.5234ZM4.04688 17.5234H3.29688V13.4531H4.04688V17.5234ZM5.39062 17.5234H4.64062V13.4531H5.39062V17.5234ZM8.42969 18.4219H7.375V9.6875H8.42188L8.42969 18.4219ZM10.5234 18.4219H10H9.47656V9.6875H10H10.5234V18.4219ZM12.625 18.4219H11.5781V9.6875H12.625V18.4219ZM15.3594 17.5234H14.6094V13.4531H15.3594V17.5234ZM16.7031 17.5234H15.9531V13.4531H16.7031V17.5234ZM18.0547 17.5234H17.3047V13.4531H18.0547V17.5234Z" fill="black"/>
</svg>
