<svg width="16" height="16" viewBox="0 0 16 16" fill="none" xmlns="http://www.w3.org/2000/svg">
<path d="M14.9278 3.99997L13.0714 2.92808L11.9998 1.07188H9.85631L7.99984 0L6.14336 1.07188H3.99992L2.92804 2.92836L1.07188 3.99997V6.14341L0 7.99988L1.07188 9.85636V11.9998L2.92836 13.0717L4.00024 14.9282H6.14368L7.99988 15.9998L9.85636 14.9279H11.9998L13.0717 13.0714L14.9282 11.9995V9.85608L16 7.99961L14.9282 6.14313V3.99997H14.9278ZM7.27781 11.2742C7.12865 11.4233 6.93213 11.4958 6.73649 11.4931C6.54081 11.4959 6.34433 11.4233 6.19517 11.2742L3.85549 8.93448C3.5624 8.64139 3.5624 8.16593 3.85549 7.87284L4.47487 7.25346C4.76795 6.96038 5.24341 6.96038 5.5365 7.25346L6.73649 8.45345L10.463 4.72668C10.7561 4.43359 11.2315 4.43359 11.5246 4.72668L12.144 5.34606C12.4371 5.63914 12.4371 6.1146 12.144 6.40769L7.27781 11.2742Z" fill="#00C500"/>
</svg>
