<svg width="46" height="46" viewBox="0 0 46 46" fill="none" xmlns="http://www.w3.org/2000/svg">
<path d="M43.125 23C43.125 11.8853 34.1147 2.875 23 2.875C11.8853 2.875 2.875 11.8853 2.875 23C2.875 34.1147 11.8853 43.125 23 43.125C34.1147 43.125 43.125 34.1147 43.125 23Z" fill="#1275B1"/>
<path d="M18.1392 13.9325C18.1392 15.2759 16.9747 16.3649 15.5384 16.3649C14.1019 16.3649 12.9375 15.2759 12.9375 13.9325C12.9375 12.5891 14.1019 11.5 15.5384 11.5C16.9747 11.5 18.1392 12.5891 18.1392 13.9325Z" fill="white"/>
<path d="M13.293 18.153H17.7388V31.6251H13.293V18.153Z" fill="white"/>
<path d="M24.8971 18.1529H20.4512V31.625H24.8971C24.8971 31.625 24.8971 27.3838 24.8971 24.7321C24.8971 23.1403 25.4406 21.5417 27.6091 21.5417C30.0597 21.5417 30.045 23.6246 30.0335 25.2384C30.0186 27.3476 30.0542 29.5003 30.0542 31.625H34.5001V24.5147C34.4625 19.9747 33.2794 17.8827 29.3874 17.8827C27.076 17.8827 25.6433 18.9321 24.8971 19.8814V18.1529Z" fill="white"/>
</svg>
