<svg width="20" height="20" viewBox="0 0 20 20" fill="none" xmlns="http://www.w3.org/2000/svg">
<g clip-path="url(#clip0_10_8459)">
<path d="M9.96332 5.97803C11.2531 5.97803 12.2987 4.93244 12.2987 3.64264C12.2987 2.35284 11.2531 1.30725 9.96332 1.30725C8.67352 1.30725 7.62793 2.35284 7.62793 3.64264C7.62793 4.93244 8.67352 5.97803 9.96332 5.97803Z" fill="#CDCDCD"/>
<path d="M18.1383 10.0678L15.9617 9.61374C15.2202 9.4584 14.4881 9.79828 14.101 10.4025C13.7251 10.2094 13.3208 10.0429 12.8908 9.90472V8.61042C12.8917 7.63112 12.09 6.83032 11.1142 6.83032H8.88863C7.90762 6.83032 7.10941 7.63112 7.10941 8.61042V9.91156C6.6837 10.0472 6.28374 10.2137 5.90523 10.4077C5.51816 9.80083 4.78516 9.4584 4.04273 9.61374L1.86439 10.0678C0.908251 10.2678 0.287698 11.2162 0.487679 12.1757L1.03442 14.7875C1.23269 15.7445 2.18195 16.365 3.13896 16.165L3.82815 16.0209C4.17316 16.5307 4.65039 16.9984 5.26148 17.3984C6.5343 18.2327 8.21571 18.6927 10.0001 18.6927C12.7303 18.6927 15.082 17.595 16.1651 16.0183L16.8655 16.165C17.8216 16.3642 18.7709 15.7445 18.9692 14.7875L19.5167 12.1757C19.7158 11.2162 19.0953 10.2678 18.1383 10.0678ZM9.99919 17.8009C8.38732 17.8009 6.87672 17.395 5.74981 16.6525C5.36358 16.4002 5.04343 16.1196 4.78683 15.8192L5.31467 15.7084C6.27252 15.5093 6.89308 14.5609 6.69309 13.6031L6.20301 11.2548C6.48882 11.1011 6.78923 10.9664 7.10849 10.8514V11.2797C7.10849 12.2573 7.90842 13.0581 8.88771 13.0581H11.1132C12.09 13.0581 12.8899 12.2564 12.8899 11.2797V10.8291C13.2152 10.9449 13.5207 11.078 13.804 11.229L13.307 13.6039C13.1088 14.5618 13.7284 15.5102 14.6863 15.7093L15.2193 15.8209C14.2254 16.9976 12.2591 17.8009 9.99919 17.8009Z" fill="#CDCDCD"/>
<path d="M17.6645 9.0481C18.9543 9.0481 19.9999 8.00251 19.9999 6.71271C19.9999 5.42291 18.9543 4.37732 17.6645 4.37732C16.3747 4.37732 15.3291 5.42291 15.3291 6.71271C15.3291 8.00251 16.3747 9.0481 17.6645 9.0481Z" fill="#CDCDCD"/>
<path d="M2.81456 8.99917C4.07795 8.73481 4.88476 7.49632 4.62382 6.23377C4.35775 4.97209 3.12181 4.16186 1.85755 4.42622C0.595872 4.68971 -0.214357 5.92735 0.050003 7.18991C0.313527 8.4533 1.55117 9.26269 2.81456 8.99917Z" fill="#CDCDCD"/>
</g>
<defs>
<clipPath id="clip0_10_8459">
<rect width="20" height="20" fill="white"/>
</clipPath>
</defs>
</svg>
