<svg width="24" height="24" viewBox="0 0 24 24" fill="none" xmlns="http://www.w3.org/2000/svg">
<g clip-path="url(#clip0_10_971)">
<path d="M22 2H2V22H22V2Z" fill="#1C212D"/>
<path d="M14.5197 20.3333C15.5639 20.3333 16.46 20.2784 17.2087 20.112C17.9669 19.9435 18.6242 19.6498 19.1368 19.1371C19.6495 18.6244 19.9433 17.9672 20.1118 17.2089C20.2782 16.4603 20.333 15.5642 20.333 14.5199V11.9999C20.333 11.0794 19.5868 10.3333 18.6663 10.3333H11.9997C11.0792 10.3333 10.333 11.0794 10.333 11.9999V18.6666C10.333 19.5871 11.0792 20.3333 11.9997 20.3333H14.5197Z" fill="#CDCDCD"/>
<path d="M3.66699 14.5199C3.66699 15.5642 3.72186 16.4603 3.88826 17.2089C4.05676 17.9672 4.3505 18.6244 4.86318 19.1371C5.37587 19.6498 6.0331 19.9435 6.79128 20.112C6.86389 20.1281 6.93687 20.1433 7.01014 20.1574C7.9139 20.332 8.66699 19.5671 8.66699 18.6466V11.9999C8.66699 11.0794 7.9208 10.3333 7.00033 10.3333H5.33366C4.41318 10.3333 3.66699 11.0794 3.66699 11.9999V14.5199Z" fill="#CDCDCD"/>
<path d="M9.48008 3.66675C8.4358 3.66675 7.53976 3.72161 6.79103 3.88801C6.03285 4.05651 5.37562 4.35026 4.86293 4.86294C4.35025 5.37562 4.05651 6.03286 3.88801 6.79104C3.87418 6.8533 3.86116 6.91576 3.84893 6.9784C3.67028 7.89397 4.44918 8.66675 5.38202 8.66675H18.6468C19.5673 8.66675 20.3322 7.91366 20.1576 7.0099C20.1434 6.93662 20.1283 6.86365 20.1122 6.79104C19.9436 6.03286 19.6499 5.37562 19.1372 4.86294C18.6245 4.35026 17.9673 4.05651 17.2091 3.88801C16.4603 3.72161 15.5644 3.66675 14.5201 3.66675H9.48008Z" fill="#CDCDCD"/>
</g>
<defs>
<clipPath id="clip0_10_971">
<rect width="20" height="20" fill="white" transform="translate(2 2)"/>
</clipPath>
</defs>
</svg>
