<svg width="45" height="45" viewBox="0 0 45 45" fill="none" xmlns="http://www.w3.org/2000/svg">
<path fill-rule="evenodd" clip-rule="evenodd" d="M9.21762 22.5001C9.21762 21.0386 9.46035 19.6374 9.89358 18.3232L2.31055 12.5326C0.832658 15.5332 0 18.9144 0 22.5001C0 26.0827 0.831634 29.4618 2.30748 32.4604L9.88641 26.6585C9.45728 25.3504 9.21762 23.9544 9.21762 22.5001Z" fill="#FBBC05"/>
<path fill-rule="evenodd" clip-rule="evenodd" d="M22.5321 9.20454C25.7071 9.20454 28.5748 10.3295 30.828 12.1705L37.3827 5.625C33.3884 2.14773 28.2675 0 22.5321 0C13.6279 0 5.97523 5.09216 2.31071 12.5325L9.89374 18.3232C11.641 13.0193 16.6216 9.20454 22.5321 9.20454Z" fill="#EB4335"/>
<path fill-rule="evenodd" clip-rule="evenodd" d="M22.5321 35.7955C16.6216 35.7955 11.641 31.9807 9.89374 26.6769L2.31071 32.4665C5.97523 39.9079 13.6279 45 22.5321 45C28.0279 45 33.2747 43.0487 37.2127 39.3924L30.0148 33.8278C27.9838 35.1072 25.4264 35.7955 22.5321 35.7955Z" fill="#34A853"/>
<path fill-rule="evenodd" clip-rule="evenodd" d="M44.0394 22.5C44.0394 21.1705 43.8346 19.7387 43.5273 18.4091H22.5316V27.1023H34.617C34.0127 30.0662 32.3679 32.3448 30.0143 33.8277L37.2122 39.3924C41.3489 35.5531 44.0394 29.834 44.0394 22.5Z" fill="#4285F4"/>
</svg>
