<svg width="20" height="20" viewBox="0 0 20 20" fill="none" xmlns="http://www.w3.org/2000/svg">
<path d="M16.676 12.1264L12.056 16.7454C11.8367 16.9631 11.5402 17.0853 11.2312 17.0853C10.9222 17.0853 10.6258 16.9631 10.4065 16.7454L3.79595 10.1348C3.3028 9.5851 3.01592 8.88111 2.98438 8.14326L3.02964 4.26852C3.03533 3.95726 3.16165 3.66037 3.38198 3.44044C3.6023 3.2205 3.89942 3.09471 4.21069 3.08958L8.07385 3.05273C8.81172 3.08599 9.51537 3.37347 10.0654 3.86642L16.676 10.4769C16.8937 10.6962 17.0159 10.9927 17.0159 11.3017C17.0159 11.6107 16.8937 11.9071 16.676 12.1264ZM6.1328 5.40326C6.1328 5.23837 6.0839 5.07719 5.9923 4.94009C5.90069 4.80299 5.77049 4.69614 5.61815 4.63304C5.46581 4.56994 5.29819 4.55343 5.13647 4.5856C4.97475 4.61776 4.8262 4.69716 4.70961 4.81376C4.59302 4.93035 4.51361 5.0789 4.48145 5.24062C4.44928 5.40234 4.46579 5.56996 4.52889 5.7223C4.59199 5.87463 4.69884 6.00484 4.83594 6.09644C4.97304 6.18805 5.13422 6.23695 5.29911 6.23695C5.52022 6.23695 5.73227 6.14911 5.88862 5.99276C6.04496 5.83642 6.1328 5.62437 6.1328 5.40326ZM13.0739 13.138C13.1281 13.0838 13.1711 13.0195 13.2005 12.9487C13.2298 12.8779 13.2449 12.802 13.2449 12.7254C13.2449 12.6487 13.2298 12.5728 13.2005 12.502C13.1711 12.4312 13.1281 12.3669 13.0739 12.3127L12.6517 11.8906C12.8258 11.6238 12.9506 11.3279 13.0202 11.0169C13.0944 10.7397 13.0948 10.4478 13.0215 10.1703C12.9482 9.89283 12.8037 9.63929 12.6023 9.43484C12.3157 9.14937 11.9354 8.97736 11.5317 8.95063C11.2654 8.93344 10.998 8.96374 10.7423 9.0401H10.7402C10.5211 9.10913 10.3122 9.2072 10.1191 9.33168H10.116C9.94944 9.44033 9.7949 9.56629 9.6549 9.70747C9.57061 9.7921 9.47942 9.86956 9.38227 9.93905C9.27604 10.015 9.1594 10.0753 9.03595 10.118H9.03385C8.91925 10.1556 8.79814 10.1692 8.67806 10.158H8.67595C8.55298 10.1481 8.43675 10.0978 8.34543 10.0148C8.27861 9.93948 8.23306 9.8477 8.21345 9.74891C8.19385 9.65012 8.20088 9.5479 8.23385 9.45273C8.30753 9.16919 8.45668 8.91091 8.66543 8.70537C8.74095 8.64057 8.82195 8.58246 8.90753 8.53168L8.93911 8.51168C9.04635 8.44608 9.1599 8.39142 9.27806 8.34852C9.38748 8.30748 9.5033 8.28609 9.62017 8.28537C9.77483 8.28537 9.92316 8.22393 10.0325 8.11456C10.1419 8.0052 10.2033 7.85687 10.2033 7.70221C10.2033 7.54754 10.1419 7.39922 10.0325 7.28985C9.92316 7.18049 9.77483 7.11905 9.62017 7.11905C9.36232 7.12008 9.10568 7.16713 8.86438 7.258C8.66979 7.32971 8.48317 7.42143 8.30753 7.53168L8.29701 7.538L7.87806 7.11695C7.8238 7.06276 7.7594 7.01979 7.68854 6.99049C7.61768 6.96119 7.54174 6.94613 7.46506 6.94618C7.38837 6.94623 7.31245 6.96138 7.24163 6.99077C7.1708 7.02016 7.10646 7.06321 7.05227 7.11747C6.99808 7.17173 6.95511 7.23613 6.92581 7.30699C6.89651 7.37785 6.88146 7.45379 6.88151 7.53047C6.88156 7.60716 6.89671 7.68308 6.9261 7.7539C6.95549 7.82473 6.99854 7.88907 7.0528 7.94326L7.46122 8.35063C7.29098 8.60886 7.16736 8.89495 7.09595 9.19589C7.01973 9.48324 7.01882 9.78538 7.0933 10.0732C7.16779 10.361 7.31516 10.6248 7.52122 10.8391C7.8009 11.1129 8.16621 11.2824 8.55595 11.3191C8.84186 11.3484 9.13073 11.3164 9.40332 11.2254C9.63769 11.1466 9.85905 11.0334 10.0602 10.8896C10.2095 10.7825 10.3496 10.6631 10.4791 10.5327C10.561 10.4505 10.6513 10.3771 10.7486 10.3138C10.8536 10.2466 10.9668 10.1932 11.0854 10.1548C11.2043 10.1206 11.3282 10.107 11.4517 10.1148C11.5739 10.1232 11.6889 10.1751 11.776 10.2612C11.8286 10.3127 11.9496 10.4348 11.8781 10.7748C11.8059 11.0655 11.6556 11.3309 11.4433 11.5422C11.3507 11.626 11.2522 11.7031 11.1486 11.7727C11.047 11.8384 10.9391 11.8938 10.8265 11.938C10.7193 11.9793 10.6038 11.9944 10.4896 11.9822C10.4132 11.9767 10.3364 11.9863 10.2637 12.0104C10.1909 12.0345 10.1237 12.0728 10.0657 12.1229C10.0077 12.1731 9.96021 12.2341 9.92585 12.3027C9.89149 12.3712 9.87096 12.4458 9.86543 12.5222C9.8599 12.5987 9.86948 12.6754 9.89363 12.7482C9.91777 12.8209 9.95601 12.8882 10.0062 12.9462C10.0563 13.0041 10.1174 13.0516 10.1859 13.086C10.2544 13.1204 10.329 13.1409 10.4054 13.1464C10.4602 13.1506 10.5138 13.1517 10.5654 13.1517C10.8129 13.1543 11.0583 13.1063 11.2865 13.0106C11.4741 12.9353 11.653 12.84 11.8202 12.7264L11.8307 12.7191L12.2486 13.138C12.3581 13.247 12.5062 13.3081 12.6607 13.3081C12.8151 13.3081 12.9633 13.247 13.0728 13.138H13.0739Z" fill="black"/>
</svg>
