<svg width="20" height="20" viewBox="0 0 20 20" fill="none" xmlns="http://www.w3.org/2000/svg">
<g clip-path="url(#clip0_10_755)">
<path d="M9.96332 5.97791C11.2531 5.97791 12.2987 4.93232 12.2987 3.64252C12.2987 2.35272 11.2531 1.30713 9.96332 1.30713C8.67352 1.30713 7.62793 2.35272 7.62793 3.64252C7.62793 4.93232 8.67352 5.97791 9.96332 5.97791Z" fill="#CDCDCD"/>
<path d="M18.1383 10.0675L15.9617 9.6135C15.2202 9.45816 14.4881 9.79804 14.101 10.4023C13.7251 10.2092 13.3208 10.0427 12.8908 9.90448V8.61017C12.8917 7.63088 12.09 6.83008 11.1142 6.83008H8.88863C7.90762 6.83008 7.10941 7.63088 7.10941 8.61017V9.91132C6.6837 10.0469 6.28374 10.2134 5.90523 10.4074C5.51816 9.80059 4.78516 9.45816 4.04273 9.6135L1.86439 10.0675C0.908251 10.2675 0.287698 11.2159 0.487679 12.1755L1.03442 14.7873C1.23269 15.7442 2.18195 16.3648 3.13896 16.1648L3.82815 16.0206C4.17316 16.5304 4.65039 16.9982 5.26148 17.3982C6.5343 18.2324 8.21571 18.6925 10.0001 18.6925C12.7303 18.6925 15.082 17.5947 16.1651 16.018L16.8655 16.1648C17.8216 16.3639 18.7709 15.7442 18.9692 14.7873L19.5167 12.1755C19.7158 11.2159 19.0953 10.2675 18.1383 10.0675ZM9.99919 17.8007C8.38732 17.8007 6.87672 17.3947 5.74981 16.6523C5.36358 16.4 5.04343 16.1193 4.78683 15.8189L5.31467 15.7082C6.27252 15.5091 6.89308 14.5607 6.69309 13.6028L6.20301 11.2545C6.48882 11.1009 6.78923 10.9661 7.10849 10.8511V11.2794C7.10849 12.257 7.90842 13.0578 8.88771 13.0578H11.1132C12.09 13.0578 12.8899 12.2562 12.8899 11.2794V10.8288C13.2152 10.9447 13.5207 11.0777 13.804 11.2288L13.307 13.6037C13.1088 14.5615 13.7284 15.5099 14.6863 15.7091L15.2193 15.8206C14.2254 16.9974 12.2591 17.8007 9.99919 17.8007Z" fill="#CDCDCD"/>
<path d="M17.6645 9.04822C18.9543 9.04822 19.9999 8.00263 19.9999 6.71283C19.9999 5.42303 18.9543 4.37744 17.6645 4.37744C16.3747 4.37744 15.3291 5.42303 15.3291 6.71283C15.3291 8.00263 16.3747 9.04822 17.6645 9.04822Z" fill="#CDCDCD"/>
<path d="M2.81456 8.99892C4.07795 8.73456 4.88476 7.49608 4.62382 6.23353C4.35775 4.97185 3.12181 4.16162 1.85755 4.42598C0.595872 4.68946 -0.214357 5.92711 0.050003 7.18966C0.313527 8.45305 1.55117 9.26245 2.81456 8.99892Z" fill="#CDCDCD"/>
</g>
<defs>
<clipPath id="clip0_10_755">
<rect width="20" height="20" fill="white"/>
</clipPath>
</defs>
</svg>
