<svg width="14" height="14" viewBox="0 0 14 14" fill="none" xmlns="http://www.w3.org/2000/svg">
<path d="M6.52968 0.313741C6.70368 -0.104609 7.29632 -0.104611 7.47032 0.31374L9.03624 4.07867C9.1096 4.25503 9.27546 4.37553 9.46586 4.3908L13.5304 4.71665C13.9821 4.75286 14.1652 5.31649 13.8211 5.61126L10.7243 8.26396C10.5793 8.38823 10.5159 8.58321 10.5602 8.76901L11.5063 12.7353C11.6115 13.176 11.132 13.5244 10.7453 13.2882L7.26552 11.1628C7.10251 11.0632 6.89749 11.0632 6.73448 11.1628L3.25466 13.2882C2.86799 13.5244 2.38853 13.176 2.49366 12.7353L3.43977 8.76901C3.48409 8.58321 3.42074 8.38823 3.27568 8.26396L0.178915 5.61126C-0.16519 5.3165 0.0179445 4.75286 0.469589 4.71665L4.53414 4.3908C4.72454 4.37553 4.8904 4.25503 4.96376 4.07867L6.52968 0.313741Z" fill="#FBBC05"/>
</svg>
