<svg width="20" height="20" viewBox="0 0 20 20" fill="none" xmlns="http://www.w3.org/2000/svg">
<path d="M13.492 1.66669H6.50866C3.47533 1.66669 1.66699 3.47502 1.66699 6.50835V13.4834C1.66699 16.525 3.47533 18.3334 6.50866 18.3334H13.4837C16.517 18.3334 18.3253 16.525 18.3253 13.4917V6.50835C18.3337 3.47502 16.5253 1.66669 13.492 1.66669ZM14.3837 8.30002L12.4587 10.7834C12.217 11.0917 11.8753 11.2917 11.4837 11.3334C11.092 11.3834 10.7087 11.275 10.4003 11.0334L8.87533 9.83335C8.81699 9.78335 8.75033 9.78335 8.71699 9.79169C8.68366 9.79169 8.62533 9.80835 8.57533 9.87502L6.59199 12.45C6.46699 12.6084 6.28366 12.6917 6.10033 12.6917C5.96699 12.6917 5.83366 12.65 5.71699 12.5584C5.44199 12.35 5.39199 11.9584 5.60033 11.6834L7.58366 9.10835C7.82533 8.80002 8.16699 8.60002 8.55866 8.55002C8.94199 8.50002 9.33366 8.60835 9.64199 8.85002L11.167 10.05C11.2253 10.1 11.2837 10.1 11.3253 10.0917C11.3587 10.0917 11.417 10.075 11.467 10.0084L13.392 7.52502C13.6003 7.25002 14.0003 7.20002 14.267 7.41669C14.542 7.64169 14.592 8.03335 14.3837 8.30002Z" fill="#CDCDCD"/>
</svg>
