<svg width="20" height="20" viewBox="0 0 20 20" fill="none" xmlns="http://www.w3.org/2000/svg">
<path d="M13.333 6.66669H6.66634C6.44533 6.66669 6.23337 6.57889 6.07709 6.42261C5.92081 6.26633 5.83301 6.05437 5.83301 5.83335V3.33335C5.83301 2.89133 6.0086 2.4674 6.32116 2.15484C6.63372 1.84228 7.05765 1.66669 7.49967 1.66669H12.4997C12.9417 1.66669 13.3656 1.84228 13.6782 2.15484C13.9907 2.4674 14.1663 2.89133 14.1663 3.33335V5.83335C14.1663 6.05437 14.0785 6.26633 13.9223 6.42261C13.766 6.57889 13.554 6.66669 13.333 6.66669ZM7.49967 5.00002H12.4997V3.33335H7.49967V5.00002Z" fill="white"/>
<path d="M16.667 5H3.33366C2.41318 5 1.66699 5.74619 1.66699 6.66667V16.6667C1.66699 17.5871 2.41318 18.3333 3.33366 18.3333H16.667C17.5875 18.3333 18.3337 17.5871 18.3337 16.6667V6.66667C18.3337 5.74619 17.5875 5 16.667 5Z" fill="#CDCDCD"/>
<path d="M12.5 11.6666C12.279 11.6666 12.067 11.5788 11.9107 11.4226C11.7545 11.2663 11.6667 11.0543 11.6667 10.8333V9.99998H5.83333C5.61232 9.99998 5.40036 9.91218 5.24408 9.7559C5.0878 9.59962 5 9.38766 5 9.16665C5 8.94563 5.0878 8.73367 5.24408 8.57739C5.40036 8.42111 5.61232 8.33331 5.83333 8.33331H14.1667C14.3877 8.33331 14.5996 8.42111 14.7559 8.57739C14.9122 8.73367 15 8.94563 15 9.16665C15 9.38766 14.9122 9.59962 14.7559 9.7559C14.5996 9.91218 14.3877 9.99998 14.1667 9.99998H13.3333V10.8333C13.3333 11.0543 13.2455 11.2663 13.0893 11.4226C12.933 11.5788 12.721 11.6666 12.5 11.6666Z" fill="white"/>
</svg>
