<svg width="16" height="16" viewBox="0 0 16 16" fill="none" xmlns="http://www.w3.org/2000/svg">
<g clip-path="url(#clip0_10_13634)">
<path d="M9.33301 3.99998V2.66665H6.66634V3.99998H9.33301ZM2.66634 5.99998V12C2.66634 12.3666 2.96634 12.6666 3.33301 12.6666H12.6663C13.033 12.6666 13.333 12.3666 13.333 12V5.99998C13.333 5.63331 13.033 5.33331 12.6663 5.33331H3.33301C2.96634 5.33331 2.66634 5.63331 2.66634 5.99998ZM13.333 3.99998C14.073 3.99998 14.6663 4.59331 14.6663 5.33331V12.6666C14.6663 13.4066 14.073 14 13.333 14H2.66634C1.92634 14 1.33301 13.4066 1.33301 12.6666L1.33967 5.33331C1.33967 4.59331 1.92634 3.99998 2.66634 3.99998H5.33301V2.66665C5.33301 1.92665 5.92634 1.33331 6.66634 1.33331H9.33301C10.073 1.33331 10.6663 1.92665 10.6663 2.66665V3.99998H13.333Z" fill="black"/>
</g>
<defs>
<clipPath id="clip0_10_13634">
<rect width="16" height="16" fill="white"/>
</clipPath>
</defs>
</svg>
