<svg width="20" height="20" viewBox="0 0 20 20" fill="none" xmlns="http://www.w3.org/2000/svg">
<path d="M13.333 6.66675H6.66634C6.44533 6.66675 6.23337 6.57895 6.07709 6.42267C5.92081 6.26639 5.83301 6.05443 5.83301 5.83341V3.33341C5.83301 2.89139 6.0086 2.46746 6.32116 2.1549C6.63372 1.84234 7.05765 1.66675 7.49967 1.66675H12.4997C12.9417 1.66675 13.3656 1.84234 13.6782 2.1549C13.9907 2.46746 14.1663 2.89139 14.1663 3.33341V5.83341C14.1663 6.05443 14.0785 6.26639 13.9223 6.42267C13.766 6.57895 13.554 6.66675 13.333 6.66675ZM7.49967 5.00008H12.4997V3.33341H7.49967V5.00008Z" fill="white"/>
<path d="M16.667 5H3.33366C2.41318 5 1.66699 5.74619 1.66699 6.66667V16.6667C1.66699 17.5871 2.41318 18.3333 3.33366 18.3333H16.667C17.5875 18.3333 18.3337 17.5871 18.3337 16.6667V6.66667C18.3337 5.74619 17.5875 5 16.667 5Z" fill="black"/>
<path d="M12.5 11.6666C12.279 11.6666 12.067 11.5788 11.9107 11.4225C11.7545 11.2662 11.6667 11.0543 11.6667 10.8333V9.99992H5.83333C5.61232 9.99992 5.40036 9.91212 5.24408 9.75584C5.0878 9.59956 5 9.3876 5 9.16659C5 8.94557 5.0878 8.73361 5.24408 8.57733C5.40036 8.42105 5.61232 8.33325 5.83333 8.33325H14.1667C14.3877 8.33325 14.5996 8.42105 14.7559 8.57733C14.9122 8.73361 15 8.94557 15 9.16659C15 9.3876 14.9122 9.59956 14.7559 9.75584C14.5996 9.91212 14.3877 9.99992 14.1667 9.99992H13.3333V10.8333C13.3333 11.0543 13.2455 11.2662 13.0893 11.4225C12.933 11.5788 12.721 11.6666 12.5 11.6666Z" fill="white"/>
</svg>
