<svg width="20" height="20" viewBox="0 0 20 20" fill="none" xmlns="http://www.w3.org/2000/svg">
<g clip-path="url(#clip0_10_14559)">
<path d="M19.0621 4.09082H13.4593V2.60448C13.4593 1.71973 12.7395 1 11.8548 1H8.1451C7.26035 1 6.54062 1.71973 6.54062 2.60448V4.09082H0.937776C0.419859 4.09082 0 4.51076 0 5.02868V17.1725C0 17.6904 0.419859 18.1103 0.937776 18.1103H1.43033V18.2223C1.43033 18.6517 1.77858 19 2.20834 19C2.63767 19 2.98601 18.6517 2.98601 18.2223V18.1103H17.0137V18.2223C17.0137 18.6517 17.3619 19 17.7917 19C18.221 19 18.5693 18.6517 18.5693 18.2223V18.1103H19.0621C19.5801 18.1103 20 17.6904 20 17.1725V5.02868C20 4.51076 19.5801 4.09082 19.0621 4.09082ZM7.87398 2.60448C7.87398 2.45506 7.99572 2.33336 8.1451 2.33336H11.8548C12.0042 2.33336 12.1259 2.45511 12.1259 2.60448V4.09082H7.87398V2.60448ZM14.9231 12.5029C14.7301 12.6966 14.4622 12.8079 14.1885 12.8079H14.166L14.1819 12.8238C14.3779 13.0198 14.486 13.2803 14.486 13.5572C14.486 13.8343 14.3779 14.0947 14.1819 14.2906L13.2333 15.2396C13.0374 15.4348 12.777 15.5426 12.5003 15.5426C12.2233 15.5426 11.9629 15.4348 11.7672 15.2392L11.7509 15.2226V15.2457C11.7509 15.8174 11.2858 16.2825 10.7139 16.2825H9.37235C8.80077 16.2825 8.33564 15.8174 8.33564 15.2457V15.2226L8.31962 15.2386C8.12401 15.4346 7.86329 15.5423 7.58622 15.5423C7.3125 15.5423 7.04487 15.4313 6.85315 15.2386L5.90364 14.2893C5.5003 13.8847 5.5003 13.2271 5.90431 12.8235L5.91991 12.8079H5.89811C5.32653 12.8079 4.86131 12.3427 4.86131 11.7707V10.429C4.86131 9.85699 5.32649 9.39185 5.89811 9.39185H5.91991L5.90498 9.37685C5.70899 9.1809 5.60091 8.92051 5.60091 8.64345C5.60091 8.37065 5.71159 8.1031 5.90498 7.91004L6.85382 6.96082C7.04981 6.7655 7.31024 6.65776 7.58689 6.65776C7.86396 6.65776 8.12468 6.76584 8.31996 6.96183L8.33564 6.97743V6.95529C8.33564 6.68317 8.44304 6.43737 8.61522 6.25216C8.80467 6.04841 9.07289 5.91849 9.37235 5.91849H10.7139C11.0137 5.91849 11.2819 6.04841 11.4714 6.25216C11.6436 6.43737 11.7509 6.68317 11.7509 6.95529V6.97675L11.7666 6.96116C11.9622 6.76517 12.2226 6.65743 12.5 6.65743C12.777 6.65743 13.0374 6.76517 13.2331 6.96116L14.1816 7.90971C14.3776 8.1057 14.4857 8.36612 14.4857 8.64311C14.4857 8.91691 14.3743 9.1845 14.1819 9.37617L14.166 9.39185H14.1885C14.76 9.39185 15.2252 9.85699 15.2252 10.429L15.2255 11.7707C15.2255 12.0436 15.1148 12.3109 14.9231 12.5029Z" fill="#CDCDCD"/>
<path d="M14.1884 10.0585H13.4276C13.3615 9.84396 13.2749 9.63854 13.1714 9.44389L13.7102 8.90485C13.7798 8.83551 13.8189 8.7411 13.8189 8.64312C13.8189 8.54485 13.7798 8.45078 13.7102 8.38115L12.7616 7.43255C12.6893 7.36028 12.5946 7.32414 12.4999 7.32414C12.4048 7.32414 12.3101 7.36028 12.2378 7.43255L11.6987 7.9716C11.5037 7.86805 11.2987 7.78181 11.0841 7.71608V6.95534C11.0841 6.75093 10.9181 6.58521 10.7137 6.58521H9.37221C9.1678 6.58521 9.00216 6.75093 9.00216 6.95534V7.71608C8.78764 7.78181 8.58222 7.86809 8.3869 7.9716L7.84848 7.43318C7.77621 7.36057 7.68146 7.32443 7.58642 7.32443C7.49167 7.32443 7.39701 7.36057 7.32474 7.43285L6.37614 8.38144C6.30647 8.45111 6.2674 8.54553 6.2674 8.64346C6.2674 8.74181 6.30647 8.83584 6.37614 8.90552L6.91456 9.44394C6.81101 9.63892 6.72482 9.84401 6.65871 10.0585H5.89797C5.69355 10.0585 5.52783 10.2245 5.52783 10.429V11.7707C5.52783 11.9752 5.69355 12.1412 5.89797 12.1412H6.65837C6.72448 12.3557 6.81076 12.5612 6.91423 12.7561L6.37552 13.2949C6.2313 13.4391 6.2313 13.6737 6.37552 13.8183L7.32444 14.7672C7.39378 14.8369 7.48819 14.8756 7.58613 14.8756C7.68448 14.8756 7.77851 14.8369 7.84819 14.7672L8.38656 14.2288C8.58188 14.3322 8.7873 14.4189 9.00216 14.4846V15.2457C9.00216 15.4501 9.16784 15.6158 9.37221 15.6158H10.7137C10.9182 15.6158 11.0841 15.4501 11.0841 15.2457V14.4846C11.2987 14.4189 11.5044 14.3322 11.6994 14.2288L12.2385 14.7675C12.3108 14.8398 12.4055 14.8759 12.5002 14.8759C12.5949 14.8759 12.69 14.8398 12.7622 14.7675L13.7105 13.8193C13.7802 13.7496 13.8192 13.6555 13.8192 13.5572C13.8192 13.4589 13.7802 13.3649 13.7105 13.2952L13.1717 12.7564C13.2752 12.5615 13.3618 12.3557 13.4276 12.1412H14.1883C14.2863 12.1412 14.381 12.1021 14.4503 12.0324C14.5197 11.9631 14.5588 11.8687 14.5588 11.7707L14.5584 10.429C14.5584 10.2245 14.3927 10.0585 14.1884 10.0585ZM10.0428 13.4823C8.72937 13.4823 7.66067 12.4136 7.66067 11.1001C7.66067 9.78666 8.72932 8.71795 10.0428 8.71795C11.3566 8.71795 12.4253 9.7867 12.4253 11.1001C12.4253 12.4136 11.3566 13.4823 10.0428 13.4823Z" fill="#CDCDCD"/>
<path d="M10.0431 9.38477C9.09713 9.38477 8.32764 10.1543 8.32764 11.1003C8.32764 12.0462 9.09718 12.8157 10.0431 12.8157C10.9891 12.8157 11.7589 12.0462 11.7589 11.1003C11.7589 10.1543 10.9891 9.38477 10.0431 9.38477Z" fill="#CDCDCD"/>
</g>
<defs>
<clipPath id="clip0_10_14559">
<rect width="20" height="20" fill="white"/>
</clipPath>
</defs>
</svg>
