<svg width="16" height="16" viewBox="0 0 16 16" fill="none" xmlns="http://www.w3.org/2000/svg">
<g clip-path="url(#clip0_10_13635)">
<path d="M5.99967 7.99998C7.28634 7.99998 8.33301 6.95331 8.33301 5.66665C8.33301 4.37998 7.28634 3.33331 5.99967 3.33331C4.71301 3.33331 3.66634 4.37998 3.66634 5.66665C3.66634 6.95331 4.71301 7.99998 5.99967 7.99998ZM5.99967 4.66665C6.55301 4.66665 6.99967 5.11331 6.99967 5.66665C6.99967 6.21998 6.55301 6.66665 5.99967 6.66665C5.44634 6.66665 4.99967 6.21998 4.99967 5.66665C4.99967 5.11331 5.44634 4.66665 5.99967 4.66665ZM5.99967 9.16665C4.43967 9.16665 1.33301 9.94665 1.33301 11.5V12C1.33301 12.3666 1.63301 12.6666 1.99967 12.6666H9.99967C10.3663 12.6666 10.6663 12.3666 10.6663 12V11.5C10.6663 9.94665 7.55967 9.16665 5.99967 9.16665ZM2.89301 11.3333C3.45301 10.9466 4.80634 10.5 5.99967 10.5C7.19301 10.5 8.54634 10.9466 9.10634 11.3333H2.89301ZM10.693 9.20665C11.4663 9.76665 11.9997 10.5133 11.9997 11.5V12.6666H13.9997C14.3663 12.6666 14.6663 12.3666 14.6663 12V11.5C14.6663 10.1533 12.333 9.38665 10.693 9.20665ZM9.99967 7.99998C11.2863 7.99998 12.333 6.95331 12.333 5.66665C12.333 4.37998 11.2863 3.33331 9.99967 3.33331C9.63968 3.33331 9.30634 3.41998 8.99967 3.56665C9.41967 4.15998 9.66634 4.88665 9.66634 5.66665C9.66634 6.44665 9.41967 7.17331 8.99967 7.76665C9.30634 7.91331 9.63968 7.99998 9.99967 7.99998Z" fill="black"/>
</g>
<defs>
<clipPath id="clip0_10_13635">
<rect width="16" height="16" fill="white"/>
</clipPath>
</defs>
</svg>
