<svg width="20" height="20" viewBox="0 0 20 20" fill="none" xmlns="http://www.w3.org/2000/svg">
<path d="M7.27805 8.42033C7.27805 7.47369 6.72273 6.69377 5.66121 6.51959C5.51512 6.56823 5.35938 6.59549 5.19711 6.59549C5.03492 6.59549 4.87891 6.56823 4.73281 6.51959C3.6718 6.69381 3.11621 7.47373 3.11621 8.42033H5.19715H7.27805Z" fill="#CDCDCD"/>
<path d="M5.19633 6.25802C5.82551 6.25802 6.33535 5.74818 6.33535 5.11931V4.79615C6.33535 4.16697 5.82551 3.65717 5.19633 3.65717C4.56719 3.65717 4.05762 4.16701 4.05762 4.79615V5.11931C4.05762 5.74822 4.56719 6.25802 5.19633 6.25802Z" fill="#CDCDCD"/>
<path d="M12.0808 8.42033C12.0808 7.47369 11.5252 6.69377 10.4637 6.51959C10.3176 6.56823 10.1621 6.59549 9.99988 6.59549C9.83766 6.59549 9.68168 6.56823 9.53555 6.51959C8.47426 6.69381 7.91895 7.47373 7.91895 8.42033H9.99988H12.0808Z" fill="#CDCDCD"/>
<path d="M10.0003 6.25802C10.6292 6.25802 11.1391 5.74818 11.1391 5.11931V4.79615C11.1391 4.16697 10.6292 3.65717 10.0003 3.65717C9.37113 3.65717 8.86133 4.16701 8.86133 4.79615V5.11931C8.86133 5.74822 9.37113 6.25802 10.0003 6.25802Z" fill="#CDCDCD"/>
<path d="M16.8842 8.42033C16.8842 7.47369 16.3286 6.69377 15.2674 6.51959C15.1212 6.56823 14.9655 6.59549 14.8036 6.59549C14.6411 6.59549 14.4854 6.56823 14.3392 6.51959C13.278 6.69381 12.7227 7.47373 12.7227 8.42033H14.8036H16.8842Z" fill="#CDCDCD"/>
<path d="M14.8033 6.25802C15.432 6.25802 15.9421 5.74818 15.9421 5.11931V4.79615C15.9421 4.16697 15.432 3.65717 14.8033 3.65717C14.1741 3.65717 13.6641 4.16701 13.6641 4.79615V5.11931C13.6641 5.74822 14.1741 6.25802 14.8033 6.25802Z" fill="#CDCDCD"/>
<path d="M19.9691 15.8164L17.1789 9.33418C17.1191 9.19562 16.9829 9.1059 16.8321 9.1059H3.16804C3.01726 9.1059 2.88101 9.19558 2.82148 9.33394L0.0307723 15.8164C-0.019384 15.9329 -0.00770429 16.0671 0.0619832 16.1731C0.131905 16.2789 0.250225 16.3429 0.377374 16.3429H6.89651C7.3455 15.584 8.11952 15.0334 9.20573 14.8552C9.45585 14.9382 9.72257 14.985 10.0003 14.985C10.278 14.985 10.5447 14.9382 10.7948 14.8552C11.8808 15.0334 12.6547 15.584 13.1035 16.3429H19.6228C19.7497 16.3429 19.8683 16.2789 19.9379 16.1731C20.0076 16.0671 20.0195 15.9329 19.9691 15.8164ZM11.9496 12.4582C11.9496 13.5348 11.0768 14.4076 10.0002 14.4076C8.92331 14.4076 8.05081 13.5348 8.05081 12.4582V11.905C8.05081 10.8284 8.92335 9.95558 10.0002 9.95558C11.0768 9.95558 11.9496 10.8284 11.9496 11.905V12.4582Z" fill="#CDCDCD"/>
</svg>
