<svg width="14" height="14" viewBox="0 0 14 14" fill="none" xmlns="http://www.w3.org/2000/svg">
<path d="M3.5 12.8332H10.5C10.9641 12.8332 11.4092 12.6488 11.7374 12.3206C12.0656 11.9924 12.25 11.5473 12.25 11.0832V4.08317C12.25 3.77375 12.1271 3.47701 11.9083 3.25821C11.6895 3.03942 11.3928 2.9165 11.0833 2.9165H9.91667V1.74984C9.91667 1.59513 9.85521 1.44675 9.74581 1.33736C9.63642 1.22796 9.48804 1.1665 9.33333 1.1665C9.17862 1.1665 9.03025 1.22796 8.92085 1.33736C8.81146 1.44675 8.75 1.59513 8.75 1.74984V2.9165H5.25V1.74984C5.25 1.59513 5.18854 1.44675 5.07915 1.33736C4.96975 1.22796 4.82138 1.1665 4.66667 1.1665C4.51196 1.1665 4.36358 1.22796 4.25419 1.33736C4.14479 1.44675 4.08333 1.59513 4.08333 1.74984V2.9165H2.91667C2.60725 2.9165 2.3105 3.03942 2.09171 3.25821C1.87292 3.47701 1.75 3.77375 1.75 4.08317V11.0832C1.75 11.5473 1.93437 11.9924 2.26256 12.3206C2.59075 12.6488 3.03587 12.8332 3.5 12.8332ZM2.91667 7.2915C2.91667 7.21415 2.9474 7.13996 3.00209 7.08526C3.05679 7.03057 3.13098 6.99984 3.20833 6.99984H10.7917C10.869 6.99984 10.9432 7.03057 10.9979 7.08526C11.0526 7.13996 11.0833 7.21415 11.0833 7.2915V11.0832C11.0833 11.2379 11.0219 11.3863 10.9125 11.4956C10.8031 11.605 10.6547 11.6665 10.5 11.6665H3.5C3.34529 11.6665 3.19692 11.605 3.08752 11.4956C2.97812 11.3863 2.91667 11.2379 2.91667 11.0832V7.2915Z" fill="black"/>
</svg>
