<svg width="469" height="127" viewBox="0 0 469 127" fill="none" xmlns="http://www.w3.org/2000/svg">
<path d="M0 0.50052H144.15C150.784 0.50052 156.162 5.87869 156.162 12.513V126.632H11.0114C4.92999 126.632 0 121.702 0 115.62V0.50052Z" fill="#9BB0F6"/>
<path d="M156.162 42.5442H300.312C306.946 42.5442 312.325 47.9224 312.325 54.5567V126.632H156.162V42.5442Z" fill="#C4CEFB"/>
<path d="M312.325 73.5764H456.474C463.109 73.5764 468.487 78.9546 468.487 85.5889V126.632H312.325V73.5764Z" fill="#DEE3FC"/>
<path d="M0 0.50052H146.152C149.489 1.16788 156.162 4.40458 156.162 12.0125V42.5442H300.813C304.65 42.711 312.325 45.247 312.325 54.0562V73.5764H454.973C459.644 73.4096 468.887 75.7787 468.487 86.59V126.632" stroke="#636AE6"/>
</svg>
