<svg width="88" height="88" viewBox="0 0 88 88" fill="none" xmlns="http://www.w3.org/2000/svg">
<g clip-path="url(#clip0_10_1892)">
<path d="M31.1129 17.434V13.6531C31.1129 12.9699 31.6689 12.4144 32.3517 12.4144H55.6491C56.3323 12.4144 56.8879 12.9703 56.8879 13.6531V17.434C56.8879 18.1172 56.3319 18.6728 55.6491 18.6728H32.352C31.6689 18.6731 31.1129 18.1172 31.1129 17.434ZM51.1482 6.59513C50.8502 2.90962 47.7618 0 44.0006 0C40.2394 0 37.151 2.90962 36.853 6.59513H51.1482ZM74.6067 21.4668V80.1762C74.6067 84.4902 71.0969 88 66.7829 88H21.2183C16.9043 88 13.3945 84.4902 13.3945 80.1762V21.4668C13.3945 17.1528 16.9043 13.643 21.2183 13.643H25.2941C25.2941 13.6465 25.2937 13.65 25.2937 13.6531V17.434C25.2937 21.3259 28.4601 24.492 32.3517 24.492H55.6491C59.541 24.492 62.7071 21.3259 62.7071 17.434V13.6531C62.7071 13.6496 62.7067 13.6461 62.7067 13.643H66.7825C71.0969 13.643 74.6067 17.1528 74.6067 21.4668ZM34.2111 55.6509C32.8432 54.8079 31.0505 55.2331 30.2075 56.601L27.4561 61.0639L26.0358 59.9451C24.7742 58.9508 22.9439 59.1684 21.95 60.4308C20.9557 61.6936 21.1733 63.5228 22.4357 64.5171L26.4203 67.6552C26.937 68.0621 27.5721 68.2786 28.2204 68.2786C28.3895 68.2786 28.5598 68.2639 28.729 68.234C29.5456 68.0889 30.2622 67.602 30.6974 66.896L35.1612 59.6545C36.0046 58.2866 35.579 56.4943 34.2111 55.6509ZM34.2111 34.7016C32.8432 33.8582 31.0505 34.2842 30.2075 35.6517L27.4561 40.1147L26.0358 38.9958C24.7742 38.0019 22.9439 38.2192 21.95 39.4816C20.9557 40.7443 21.1733 42.5735 22.4357 43.5678L26.4203 46.7059C26.937 47.1129 27.5721 47.3294 28.2204 47.3294C28.3895 47.3294 28.5598 47.3146 28.729 47.2848C29.5456 47.1397 30.2622 46.6528 30.6974 45.9467L35.1612 38.7057C36.0046 37.3374 35.579 35.545 34.2111 34.7016ZM64.345 65.3694C64.345 63.7621 63.0427 62.4598 61.4354 62.4598H42.4259C40.819 62.4598 39.5163 63.7621 39.5163 65.3694C39.5163 66.9767 40.819 68.279 42.4259 68.279H61.4354C63.0427 68.279 64.345 66.9767 64.345 65.3694ZM64.345 44.4202C64.345 42.8129 63.0427 41.5105 61.4354 41.5105H42.4259C40.819 41.5105 39.5163 42.8129 39.5163 44.4202C39.5163 46.0274 40.819 47.3298 42.4259 47.3298H61.4354C63.0427 47.3298 64.345 46.0274 64.345 44.4202Z" fill="#5956E9"/>
</g>
<defs>
<clipPath id="clip0_10_1892">
<rect width="88" height="88" fill="white"/>
</clipPath>
</defs>
</svg>
