<svg width="17" height="17" viewBox="0 0 17 17" fill="none" xmlns="http://www.w3.org/2000/svg">
<path fill-rule="evenodd" clip-rule="evenodd" d="M15.5837 8.50002C15.5837 12.412 12.4123 15.5834 8.50033 15.5834C4.58831 15.5834 1.41699 12.412 1.41699 8.50002C1.41699 4.588 4.58831 1.41669 8.50033 1.41669C12.4123 1.41669 15.5837 4.588 15.5837 8.50002ZM10.6253 6.37502C10.6253 7.54866 9.67396 8.50002 8.50033 8.50002C7.32669 8.50002 6.37533 7.54866 6.37533 6.37502C6.37533 5.20142 7.32669 4.25002 8.50033 4.25002C9.67396 4.25002 10.6253 5.20142 10.6253 6.37502ZM8.50033 14.5209C9.76399 14.5209 10.9368 14.1316 11.9052 13.4663C12.333 13.1725 12.5157 12.6127 12.2671 12.1573C11.7516 11.2131 10.6892 10.625 8.50025 10.625C6.31136 10.625 5.24905 11.2131 4.73351 12.1573C4.48482 12.6127 4.6676 13.1724 5.09534 13.4662C6.06379 14.1315 7.23659 14.5209 8.50033 14.5209Z" fill="#FF947A"/>
</svg>
