<svg width="11" height="11" viewBox="0 0 11 11" fill="none" xmlns="http://www.w3.org/2000/svg">
<path d="M7.80839 0H3.19709C1.19409 0 0 1.1935 0 3.1955V7.799C0 9.8065 1.19409 11 3.19709 11H7.80289C9.80589 11 11 9.8065 11 7.8045V3.1955C11.0055 1.1935 9.81139 0 7.80839 0ZM4.92495 8.5305C4.76537 8.69 4.46272 8.844 4.24261 8.877L2.88894 9.0695C2.83941 9.075 2.78989 9.0805 2.74037 9.0805C2.51475 9.0805 2.30565 9.0035 2.15707 8.855C1.97548 8.6735 1.89845 8.4095 1.94247 8.118L2.13506 6.765C2.16808 6.5395 2.31665 6.2425 2.48174 6.083L4.93596 3.63C4.97998 3.7455 5.024 3.861 5.08453 3.993C5.13956 4.1085 5.20009 4.2295 5.26612 4.3395C5.32115 4.433 5.38168 4.521 5.43121 4.587C5.49174 4.6805 5.56327 4.7685 5.60729 4.818C5.63481 4.8565 5.65682 4.884 5.66782 4.895C5.80539 5.06 5.96497 5.214 6.10254 5.3295C6.14106 5.368 6.16307 5.39 6.17408 5.3955C6.25662 5.4615 6.33916 5.5275 6.41069 5.577C6.49874 5.643 6.58678 5.7035 6.68033 5.753C6.79038 5.819 6.91144 5.8795 7.0325 5.94C7.15907 5.995 7.27462 6.0445 7.39018 6.083L4.92495 8.5305ZM8.45772 4.9995L7.95146 5.511C7.91845 5.544 7.87442 5.5605 7.8304 5.5605C7.81389 5.5605 7.79188 5.5605 7.78088 5.555C6.66382 5.236 5.77238 4.345 5.45322 3.2285C5.43671 3.168 5.45322 3.102 5.49724 3.0635L6.00899 2.552C6.84541 1.716 7.64331 1.7325 8.46322 2.552C8.88142 2.97 9.08503 3.3715 9.08503 3.7895C9.07952 4.1855 8.87592 4.5815 8.45772 4.9995Z" fill="#0053BF"/>
</svg>
