<svg width="11" height="11" viewBox="0 0 11 11" fill="none" xmlns="http://www.w3.org/2000/svg">
<g clip-path="url(#clip0_10_5787)">
<path d="M10.5417 5.49992C10.5417 8.28434 8.28443 10.5416 5.50001 10.5416C2.71558 10.5416 0.458344 8.28434 0.458344 5.49992C0.458344 2.71548 2.71558 0.458252 5.50001 0.458252C8.28443 0.458252 10.5417 2.71548 10.5417 5.49992ZM1.37814 5.49992C1.37814 7.77637 3.22356 9.6218 5.50001 9.6218C7.77646 9.6218 9.62189 7.77637 9.62189 5.49992C9.62189 3.22347 7.77646 1.37805 5.50001 1.37805C3.22356 1.37805 1.37814 3.22347 1.37814 5.49992Z" fill="#5956E9"/>
<path d="M5.49999 2.29175C5.24685 2.29175 5.04166 2.49695 5.04166 2.75008V5.71399C5.04166 5.71399 5.04166 5.83347 5.09973 5.92335C5.13859 5.99957 5.19919 6.0658 5.2788 6.11177L7.39621 7.33429C7.61543 7.46083 7.89574 7.38571 8.02229 7.16649C8.14884 6.94727 8.07376 6.66695 7.85454 6.54041L5.95832 5.44563V2.75008C5.95832 2.49695 5.75313 2.29175 5.49999 2.29175Z" fill="#5956E9"/>
</g>
<defs>
<clipPath id="clip0_10_5787">
<rect width="11" height="11" fill="white"/>
</clipPath>
</defs>
</svg>
