<svg width="20" height="20" viewBox="0 0 20 20" fill="none" xmlns="http://www.w3.org/2000/svg">
<path d="M14.4503 4.55002C14.2525 4.55002 14.0592 4.60867 13.8948 4.71855C13.7303 4.82843 13.6021 4.98461 13.5264 5.16734C13.4508 5.35006 13.431 5.55113 13.4695 5.74511C13.5081 5.93909 13.6034 6.11727 13.7432 6.25713C13.8831 6.39698 14.0613 6.49222 14.2552 6.53081C14.4492 6.56939 14.6503 6.54959 14.833 6.4739C15.0157 6.39821 15.1719 6.27004 15.2818 6.10559C15.3917 5.94114 15.4503 5.7478 15.4503 5.55002C15.4503 5.2848 15.345 5.03045 15.1574 4.84291C14.9699 4.65538 14.7155 4.55002 14.4503 4.55002ZM18.2837 6.56669C18.2675 5.87527 18.138 5.19119 17.9003 4.54169C17.6884 3.98596 17.3586 3.48275 16.9337 3.06669C16.521 2.63954 16.0166 2.31183 15.4587 2.10835C14.8109 1.86349 14.126 1.73103 13.4337 1.71669C12.5503 1.66669 12.267 1.66669 10.0003 1.66669C7.73366 1.66669 7.45033 1.66669 6.56699 1.71669C5.87462 1.73103 5.18978 1.86349 4.54199 2.10835C3.98506 2.31389 3.4811 2.64132 3.06699 3.06669C2.63985 3.47934 2.31214 3.98372 2.10866 4.54169C1.86379 5.18947 1.73133 5.87431 1.71699 6.56669C1.66699 7.45002 1.66699 7.73335 1.66699 10C1.66699 12.2667 1.66699 12.55 1.71699 13.4334C1.73133 14.1257 1.86379 14.8106 2.10866 15.4584C2.31214 16.0163 2.63985 16.5207 3.06699 16.9334C3.4811 17.3587 3.98506 17.6861 4.54199 17.8917C5.18978 18.1366 5.87462 18.269 6.56699 18.2834C7.45033 18.3334 7.73366 18.3334 10.0003 18.3334C12.267 18.3334 12.5503 18.3334 13.4337 18.2834C14.126 18.269 14.8109 18.1366 15.4587 17.8917C16.0166 17.6882 16.521 17.3605 16.9337 16.9334C17.3605 16.5188 17.6906 16.0152 17.9003 15.4584C18.138 14.8089 18.2675 14.1248 18.2837 13.4334C18.2837 12.55 18.3337 12.2667 18.3337 10C18.3337 7.73335 18.3337 7.45002 18.2837 6.56669ZM16.7837 13.3334C16.7776 13.8623 16.6818 14.3864 16.5003 14.8834C16.3673 15.246 16.1536 15.5737 15.8753 15.8417C15.605 16.1171 15.278 16.3304 14.917 16.4667C14.4201 16.6481 13.896 16.744 13.367 16.75C12.5337 16.7917 12.2253 16.8 10.0337 16.8C7.84199 16.8 7.53366 16.8 6.70033 16.75C6.15107 16.7603 5.60415 16.6757 5.08366 16.5C4.73848 16.3568 4.42646 16.144 4.16699 15.875C3.8904 15.6073 3.67936 15.2793 3.55033 14.9167C3.34687 14.4126 3.23403 13.8766 3.21699 13.3334C3.21699 12.5 3.16699 12.1917 3.16699 10C3.16699 7.80835 3.16699 7.50002 3.21699 6.66669C3.22073 6.1259 3.31945 5.58997 3.50866 5.08335C3.65536 4.73161 3.88055 4.41807 4.16699 4.16669C4.42017 3.88016 4.73307 3.6526 5.08366 3.50002C5.59162 3.31672 6.12699 3.22092 6.66699 3.21669C7.50033 3.21669 7.80866 3.16669 10.0003 3.16669C12.192 3.16669 12.5003 3.16669 13.3337 3.21669C13.8626 3.22275 14.3867 3.31856 14.8837 3.50002C15.2624 3.64056 15.6022 3.86906 15.8753 4.16669C16.1484 4.42267 16.3618 4.73563 16.5003 5.08335C16.6855 5.5908 16.7814 6.1265 16.7837 6.66669C16.8253 7.50002 16.8337 7.80835 16.8337 10C16.8337 12.1917 16.8253 12.5 16.7837 13.3334ZM10.0003 5.72502C9.15517 5.72667 8.32946 5.97879 7.62754 6.44954C6.92561 6.92028 6.37897 7.58852 6.05669 8.36982C5.7344 9.15111 5.65093 10.0104 5.81682 10.8391C5.98271 11.6678 6.39052 12.4288 6.98872 13.0258C7.58692 13.6229 8.34867 14.0292 9.17771 14.1935C10.0067 14.3578 10.8659 14.2726 11.6466 13.9488C12.4272 13.625 13.0944 13.0771 13.5638 12.3742C14.0331 11.6714 14.2837 10.8452 14.2837 10C14.2848 9.43761 14.1747 8.88053 13.9597 8.36082C13.7447 7.84111 13.4291 7.36903 13.0311 6.97173C12.633 6.57443 12.1603 6.25975 11.6402 6.04579C11.12 5.83184 10.5627 5.72282 10.0003 5.72502ZM10.0003 12.775C9.45148 12.775 8.91496 12.6123 8.45862 12.3073C8.00227 12.0024 7.64659 11.569 7.43656 11.062C7.22653 10.5549 7.17157 9.99694 7.27865 9.45865C7.38572 8.92035 7.65001 8.42589 8.0381 8.0378C8.4262 7.64971 8.92065 7.38542 9.45895 7.27834C9.99725 7.17127 10.5552 7.22622 11.0623 7.43625C11.5693 7.64629 12.0027 8.00197 12.3077 8.45831C12.6126 8.91466 12.7753 9.45118 12.7753 10C12.7753 10.3644 12.7035 10.7253 12.5641 11.062C12.4246 11.3986 12.2202 11.7046 11.9625 11.9622C11.7049 12.2199 11.399 12.4243 11.0623 12.5638C10.7256 12.7032 10.3647 12.775 10.0003 12.775Z" fill="black"/>
</svg>
