<svg width="24" height="24" viewBox="0 0 24 24" fill="none" xmlns="http://www.w3.org/2000/svg">
<g clip-path="url(#clip0_10_456)">
<path d="M22 2H2V22H22V2Z" fill="#FFD831"/>
<path d="M14.5197 20.3335C15.5639 20.3335 16.46 20.2787 17.2087 20.1122C17.9669 19.9437 18.6242 19.65 19.1368 19.1373C19.6495 18.6247 19.9433 17.9674 20.1118 17.2092C20.2782 16.4605 20.333 15.5644 20.333 14.5202V12.0002C20.333 11.0797 19.5868 10.3335 18.6663 10.3335H11.9997C11.0792 10.3335 10.333 11.0797 10.333 12.0002V18.6668C10.333 19.5873 11.0792 20.3335 11.9997 20.3335H14.5197Z" fill="#323232"/>
<path d="M3.66699 14.5202C3.66699 15.5644 3.72186 16.4605 3.88826 17.2092C4.05676 17.9674 4.3505 18.6247 4.86318 19.1373C5.37587 19.65 6.0331 19.9437 6.79128 20.1122C6.86389 20.1283 6.93687 20.1435 7.01014 20.1577C7.9139 20.3322 8.66699 19.5673 8.66699 18.6468V12.0002C8.66699 11.0797 7.9208 10.3335 7.00033 10.3335H5.33366C4.41318 10.3335 3.66699 11.0797 3.66699 12.0002V14.5202Z" fill="#323232"/>
<path d="M9.48008 3.6665C8.4358 3.6665 7.53976 3.72137 6.79103 3.88777C6.03285 4.05627 5.37562 4.35001 4.86293 4.8627C4.35025 5.37538 4.05651 6.03261 3.88801 6.7908C3.87418 6.85305 3.86116 6.91551 3.84893 6.97815C3.67028 7.89373 4.44918 8.6665 5.38202 8.6665H18.6468C19.5673 8.6665 20.3322 7.91341 20.1576 7.00965C20.1434 6.93638 20.1283 6.8634 20.1122 6.7908C19.9436 6.03261 19.6499 5.37538 19.1372 4.8627C18.6245 4.35001 17.9673 4.05627 17.2091 3.88777C16.4603 3.72137 15.5644 3.6665 14.5201 3.6665H9.48008Z" fill="#323232"/>
</g>
<defs>
<clipPath id="clip0_10_456">
<rect width="20" height="20" fill="white" transform="translate(2 2)"/>
</clipPath>
</defs>
</svg>
