<svg width="20" height="20" viewBox="0 0 20 20" fill="none" xmlns="http://www.w3.org/2000/svg">
<path d="M16.7694 2.61544H15.2309V2.00006C15.2309 1.30775 14.6925 0.769287 14.0002 0.769287C13.3078 0.769287 12.7694 1.30775 12.7694 2.00006V2.61544H7.23092V2.00006C7.23092 1.30775 6.69246 0.769287 6.00015 0.769287C5.30784 0.769287 4.76938 1.30775 4.76938 2.00006V2.61544H3.23092C2.23092 2.61544 1.38477 3.4616 1.38477 4.4616V5.07698C1.38477 5.42313 1.654 5.69236 2.00015 5.69236H18.0002C18.3463 5.69236 18.6155 5.42313 18.6155 5.07698V4.4616C18.6155 3.4616 17.7694 2.61544 16.7694 2.61544Z" fill="black"/>
<path d="M18.0002 7.53857H2.00015C1.654 7.53857 1.38477 7.80781 1.38477 8.15396V17.3847C1.38477 18.3847 2.23092 19.2309 3.23092 19.2309H16.7694C17.7694 19.2309 18.6155 18.3847 18.6155 17.3847V8.15396C18.6155 7.80781 18.3463 7.53857 18.0002 7.53857ZM10.0002 17.9617C7.46169 17.9617 5.42323 15.8847 5.42323 13.3847C5.42323 10.8463 7.50015 8.8078 10.0002 8.8078C12.5002 8.8078 14.5771 10.8847 14.5771 13.3847C14.5771 15.9232 12.5386 17.9617 10.0002 17.9617Z" fill="black"/>
<path d="M10.4612 13.1923V11.2308C10.4612 11.0769 10.3073 10.9231 10.1535 10.9231H9.84578C9.69193 10.9231 9.53809 11.0769 9.53809 11.2308V13.3846C9.53809 13.5 9.57655 13.6154 9.69193 13.6923L11.1535 15.1539C11.2689 15.2692 11.4612 15.2692 11.5765 15.1539L11.8073 14.9231C11.9227 14.8077 11.9227 14.6154 11.8073 14.5L10.4612 13.1923Z" fill="black"/>
</svg>
