<svg width="16" height="16" viewBox="0 0 16 16" fill="none" xmlns="http://www.w3.org/2000/svg">
<path fill-rule="evenodd" clip-rule="evenodd" d="M12 6C11.448 6 11 6.448 11 7C11 7.552 11.448 8 12 8C12.552 8 13 7.552 13 7C13 6.448 12.552 6 12 6ZM8 13C7.416 13 6.852 12.932 6.31 12.8165L3.956 14.2315L3.9875 11.912C2.183 10.827 1 9.033 1 7C1 3.6865 4.134 1 8 1C11.866 1 15 3.6865 15 7C15 10.314 11.866 13 8 13ZM8 0C3.582 0 0 3.1345 0 7C0 9.2095 1.1725 11.177 3 12.4595V16L6.5045 13.8735C6.9895 13.9535 7.4885 14 8 14C12.418 14 16 10.866 16 7C16 3.1345 12.418 0 8 0ZM4 6C3.448 6 3 6.448 3 7C3 7.552 3.448 8 4 8C4.552 8 5 7.552 5 7C5 6.448 4.552 6 4 6ZM8 6C7.448 6 7 6.448 7 7C7 7.552 7.448 8 8 8C8.552 8 9 7.552 9 7C9 6.448 8.552 6 8 6Z" fill="black"/>
</svg>
