<svg width="18" height="18" viewBox="0 0 18 18" fill="none" xmlns="http://www.w3.org/2000/svg">
<g clip-path="url(#clip0_10_8615)">
<path d="M11.0689 12.7623L10.7601 13.0712L10.3232 13.0749L9.36823 13.0831L8.79247 13.088V13.0924H2.16049V12.0248H8.29136L8.2915 12.0064L8.29969 11.0514L8.30341 10.6145L8.61233 10.3057L9.38419 9.5338H2.16049V8.46621H10.4518L11.1636 7.75447H2.16049V6.68688H11.4834V7.43459L13.6439 5.27409V0.0148926H0V17.9851H13.6439V10.1872L11.0689 12.7623ZM11.4834 5.97518H5.31974V4.90759H11.4834V5.97518ZM2.16049 3.1283H11.4834V4.19589H2.16049V3.1283ZM2.16049 4.90759H4.25211V5.97518H2.16049V4.90759ZM2.16049 10.2455H7.49046V11.3131H2.16049V10.2455Z" fill="black"/>
<path d="M17.8043 3.57074C17.6778 3.44428 17.5097 3.37463 17.3309 3.37463C17.1521 3.37463 16.984 3.44428 16.8575 3.5707L16.2266 4.20165L17.1733 5.14841L17.8043 4.51746C17.9307 4.39104 18.0003 4.22292 18.0003 4.04408C18.0003 3.86524 17.9307 3.69716 17.8043 3.57074Z" fill="black"/>
<path d="M15.4716 4.95654L9.36757 11.0606L9.35938 12.0155L10.3144 12.0073L16.4184 5.90334L15.4716 4.95654Z" fill="black"/>
</g>
<defs>
<clipPath id="clip0_10_8615">
<rect width="18" height="18" fill="white"/>
</clipPath>
</defs>
</svg>
