<svg width="46" height="46" viewBox="0 0 46 46" fill="none" xmlns="http://www.w3.org/2000/svg">
<path d="M23 0C10.2961 0 0 10.2961 0 23C0 35.7039 10.2961 46 23 46C35.7039 46 46 35.7039 46 23C46 10.2961 35.7039 0 23 0ZM28.0762 19.1008L27.8156 22.5418H24.2848V34.491H19.8285V22.5418H17.4477V19.1008H19.8285V16.7918C19.8285 15.7766 19.8555 14.2043 20.5922 13.225C21.3738 12.1918 22.443 11.491 24.2848 11.491C27.2855 11.491 28.5434 11.9223 28.5434 11.9223L27.9504 15.4441C27.9504 15.4441 26.9621 15.1566 26.0367 15.1566C25.1113 15.1566 24.2848 15.4891 24.2848 16.4145V19.1008H28.0762Z" fill="#5956E9"/>
</svg>
