<svg width="16" height="16" viewBox="0 0 16 16" fill="none" xmlns="http://www.w3.org/2000/svg">
<path d="M8.22656 1.35938C4.55906 1.35938 1.58594 4.3325 1.58594 8C1.58594 11.6675 4.55906 14.6406 8.22656 14.6406C11.8941 14.6406 14.8672 11.6675 14.8672 8C14.8672 4.3325 11.8941 1.35938 8.22656 1.35938ZM11.495 9.32375C12.0319 9.86062 12.0319 10.7312 11.495 11.2684C10.9581 11.8053 10.0875 11.8053 9.55031 11.2684L8.22656 9.94469L6.90281 11.2684C6.36594 11.8053 5.49531 11.8053 4.95812 11.2684C4.42125 10.7316 4.42125 9.86094 4.95812 9.32375L6.28187 8L4.95812 6.67625C4.42125 6.13937 4.42125 5.26875 4.95812 4.73156C5.495 4.19469 6.36562 4.19469 6.90281 4.73156L8.22656 6.05531L9.55031 4.73156C10.0872 4.19469 10.9578 4.19469 11.495 4.73156C12.0319 5.26844 12.0319 6.13906 11.495 6.67625L10.1709 8L11.495 9.32375Z" fill="#F93535"/>
</svg>
