<svg width="20" height="20" viewBox="0 0 20 20" fill="none" xmlns="http://www.w3.org/2000/svg">
<path d="M14.5837 10C17.115 10 19.167 12.052 19.167 14.5833C19.167 17.1146 17.115 19.1667 14.5837 19.1667C12.0524 19.1667 10.0003 17.1146 10.0003 14.5833C10.0003 12.052 12.0524 10 14.5837 10ZM14.5837 11.666L14.5088 11.6727C14.3387 11.7036 14.2046 11.8377 14.1737 12.0078L14.167 12.0827L14.1667 14.166L12.0817 14.1667L12.0068 14.1734C11.8367 14.2043 11.7026 14.3384 11.6717 14.5084L11.665 14.5833L11.6717 14.6582C11.7026 14.8283 11.8367 14.9624 12.0068 14.9933L12.0817 15L14.1675 14.9994L14.1679 17.0862L14.1746 17.1611C14.2055 17.3312 14.3396 17.4653 14.5097 17.4962L14.5846 17.5029L14.6595 17.4962C14.8296 17.4653 14.9637 17.3312 14.9945 17.1611L15.0012 17.0862L15.0009 14.9994L17.0875 15L17.1624 14.9933C17.3324 14.9624 17.4665 14.8283 17.4974 14.6582L17.5041 14.5833L17.4974 14.5084C17.4665 14.3384 17.3324 14.2043 17.1624 14.1734L17.0875 14.1667L15 14.166L15.0003 12.0827L14.9936 12.0078C14.9627 11.8377 14.8286 11.7036 14.6586 11.6727L14.5837 11.666ZM11.8787 8.33333C12.5741 8.33333 13.1812 8.71196 13.5048 9.27432C11.0298 9.77471 9.16699 11.9615 9.16699 14.5833C9.16699 15.6576 9.47974 16.6589 10.0192 17.501L10.0028 17.5C7.93126 17.5 6.25193 15.8207 6.25193 13.7491V10.2083C6.25193 9.1728 7.0914 8.33333 8.12693 8.33333H11.8787ZM6.17237 8.33356C5.74442 8.77961 5.46767 9.37185 5.42451 10.0279L5.4186 10.2083V13.7491C5.4186 14.4547 5.57798 15.123 5.86271 15.72C5.58847 15.7942 5.29948 15.8333 5.00136 15.8333C3.15984 15.8333 1.66699 14.3405 1.66699 12.499V10.2083C1.66699 9.21595 2.43796 8.40363 3.41362 8.33766L3.54199 8.33333L6.17237 8.33356ZM16.4587 8.33333C17.4942 8.33333 18.3337 9.1728 18.3337 10.2083L18.3343 10.6753C17.361 9.74094 16.0394 9.16667 14.5837 9.16667L14.381 9.17039C14.2514 8.85804 14.0644 8.57447 13.8332 8.33356L16.4587 8.33333ZM15.417 3.33333C16.5676 3.33333 17.5003 4.26607 17.5003 5.41667C17.5003 6.56726 16.5676 7.5 15.417 7.5C14.2664 7.5 13.3337 6.56726 13.3337 5.41667C13.3337 4.26607 14.2664 3.33333 15.417 3.33333ZM10.0003 2.5C11.381 2.5 12.5003 3.61929 12.5003 5C12.5003 6.38071 11.381 7.5 10.0003 7.5C8.61961 7.5 7.50033 6.38071 7.50033 5C7.50033 3.61929 8.61961 2.5 10.0003 2.5ZM4.58366 3.33333C5.73425 3.33333 6.66699 4.26607 6.66699 5.41667C6.66699 6.56726 5.73425 7.5 4.58366 7.5C3.43307 7.5 2.50033 6.56726 2.50033 5.41667C2.50033 4.26607 3.43307 3.33333 4.58366 3.33333Z" fill="black"/>
</svg>
