<svg width="16" height="16" viewBox="0 0 16 16" fill="none" xmlns="http://www.w3.org/2000/svg">
<g clip-path="url(#clip0_10_13618)">
<path d="M7.99967 1.33331C5.41967 1.33331 3.33301 3.41998 3.33301 5.99998C3.33301 9.49998 7.99967 14.6666 7.99967 14.6666C7.99967 14.6666 12.6663 9.49998 12.6663 5.99998C12.6663 3.41998 10.5797 1.33331 7.99967 1.33331ZM4.66634 5.99998C4.66634 4.15998 6.15967 2.66665 7.99967 2.66665C9.83967 2.66665 11.333 4.15998 11.333 5.99998C11.333 7.91998 9.41301 10.7933 7.99967 12.5866C6.61301 10.8066 4.66634 7.89998 4.66634 5.99998Z" fill="black"/>
<path d="M7.99967 7.66665C8.92015 7.66665 9.66634 6.92045 9.66634 5.99998C9.66634 5.07951 8.92015 4.33331 7.99967 4.33331C7.0792 4.33331 6.33301 5.07951 6.33301 5.99998C6.33301 6.92045 7.0792 7.66665 7.99967 7.66665Z" fill="black"/>
</g>
<defs>
<clipPath id="clip0_10_13618">
<rect width="16" height="16" fill="white"/>
</clipPath>
</defs>
</svg>
