<svg width="18" height="18" viewBox="0 0 18 18" fill="none" xmlns="http://www.w3.org/2000/svg">
<path d="M15.008 10.9136L10.85 15.0707C10.6526 15.2666 10.3858 15.3766 10.1077 15.3766C9.82961 15.3766 9.56279 15.2666 9.36544 15.0707L3.41597 9.12121C2.97213 8.62644 2.71394 7.99286 2.68555 7.32879L2.72628 3.84152C2.7314 3.56139 2.84509 3.29419 3.04339 3.09625C3.24168 2.8983 3.50909 2.78509 3.78923 2.78047L7.26607 2.74731C7.93016 2.77724 8.56344 3.03598 9.05849 3.47963L15.008 9.4291C15.2039 9.62645 15.3139 9.89327 15.3139 10.1714C15.3139 10.4495 15.2039 10.7163 15.008 10.9136ZM5.51913 4.86279C5.51913 4.71439 5.47512 4.56932 5.39267 4.44593C5.31023 4.32255 5.19305 4.22638 5.05594 4.16959C4.91884 4.1128 4.76798 4.09794 4.62243 4.12689C4.47688 4.15584 4.34319 4.2273 4.23826 4.33223C4.13332 4.43717 4.06186 4.57086 4.03291 4.71641C4.00396 4.86196 4.01882 5.01282 4.07561 5.14992C4.1324 5.28702 4.22857 5.40421 4.35196 5.48665C4.47535 5.5691 4.62041 5.6131 4.76881 5.6131C4.96781 5.6131 5.15865 5.53405 5.29936 5.39334C5.44007 5.25263 5.51913 5.06178 5.51913 4.86279ZM11.7661 11.824C11.8149 11.7753 11.8536 11.7174 11.88 11.6537C11.9064 11.59 11.92 11.5217 11.92 11.4527C11.92 11.3837 11.9064 11.3154 11.88 11.2517C11.8536 11.1879 11.8149 11.1301 11.7661 11.0813L11.3862 10.7014C11.5429 10.4613 11.6552 10.1949 11.7178 9.9151C11.7845 9.66557 11.785 9.40291 11.719 9.15316C11.653 8.9034 11.523 8.67522 11.3417 8.49121C11.0837 8.23429 10.7414 8.07948 10.3782 8.05542C10.1384 8.03995 9.89785 8.06722 9.66765 8.13595H9.66576C9.46856 8.19807 9.28057 8.28633 9.10681 8.39837H9.10397C8.95411 8.49615 8.81502 8.60952 8.68902 8.73658C8.61316 8.81274 8.53109 8.88246 8.44365 8.945C8.34804 9.01339 8.24307 9.06764 8.13197 9.10605H8.13007C8.02694 9.13989 7.91794 9.15215 7.80986 9.14205H7.80797C7.69729 9.13317 7.59268 9.08787 7.51049 9.01321C7.45036 8.94539 7.40937 8.86278 7.39172 8.77387C7.37407 8.68497 7.3804 8.59296 7.41007 8.50731C7.47639 8.25212 7.61062 8.01968 7.79849 7.83468C7.86646 7.77637 7.93937 7.72406 8.01639 7.67837L8.04481 7.66037C8.14132 7.60133 8.24352 7.55213 8.34986 7.51353C8.44834 7.47658 8.55258 7.45734 8.65776 7.45668C8.79695 7.45668 8.93045 7.40139 9.02888 7.30296C9.1273 7.20453 9.1826 7.07104 9.1826 6.93184C9.1826 6.79264 9.1273 6.65915 9.02888 6.56072C8.93045 6.46229 8.79695 6.407 8.65776 6.407C8.4257 6.40793 8.19472 6.45027 7.97755 6.53205C7.80242 6.59659 7.63447 6.67914 7.47639 6.77837L7.46692 6.78405L7.08986 6.4051C7.04103 6.35634 6.98307 6.31766 6.9193 6.29129C6.85552 6.26492 6.78717 6.25137 6.71816 6.25142C6.64915 6.25146 6.58082 6.2651 6.51707 6.29155C6.45333 6.318 6.39542 6.35675 6.34665 6.40558C6.29788 6.45441 6.25921 6.51237 6.23284 6.57614C6.20647 6.63992 6.19292 6.70827 6.19297 6.77728C6.19301 6.84629 6.20665 6.91462 6.2331 6.97837C6.25955 7.04211 6.29829 7.10002 6.34713 7.14879L6.7147 7.51542C6.56149 7.74783 6.45023 8.00531 6.38597 8.27616C6.31737 8.53477 6.31654 8.8067 6.38358 9.06572C6.45062 9.32475 6.58326 9.56213 6.7687 9.755C7.02042 10.0015 7.3492 10.154 7.69997 10.187C7.95728 10.2134 8.21726 10.1846 8.4626 10.1027C8.67353 10.0318 8.87276 9.92992 9.05376 9.80047C9.18815 9.70408 9.31427 9.59665 9.43081 9.47931C9.5045 9.40529 9.5858 9.33924 9.67334 9.28226C9.76784 9.22178 9.86973 9.1737 9.97649 9.13921C10.0835 9.10836 10.195 9.09618 10.3062 9.10321C10.4161 9.11071 10.5196 9.15744 10.598 9.23489C10.6453 9.28131 10.7543 9.39121 10.6899 9.69721C10.625 9.95883 10.4896 10.1977 10.2986 10.3878C10.2153 10.4633 10.1266 10.5326 10.0333 10.5953C9.94189 10.6544 9.84478 10.7042 9.74344 10.7441C9.64698 10.7812 9.54306 10.7948 9.44028 10.7838C9.37149 10.7789 9.30238 10.7875 9.23691 10.8092C9.17145 10.8309 9.1109 10.8654 9.05874 10.9105C9.00657 10.9556 8.9638 11.0106 8.93288 11.0722C8.90195 11.1339 8.88347 11.201 8.87849 11.2698C8.87352 11.3386 8.88214 11.4077 8.90387 11.4732C8.9256 11.5387 8.96001 11.5992 9.00514 11.6514C9.05027 11.7036 9.10524 11.7463 9.16689 11.7772C9.22855 11.8082 9.2957 11.8267 9.36449 11.8316C9.41376 11.8354 9.46207 11.8364 9.50849 11.8364C9.73121 11.8388 9.95205 11.7956 10.1574 11.7094C10.3263 11.6416 10.4873 11.5559 10.6378 11.4536L10.6472 11.447L11.0233 11.824C11.1219 11.9221 11.2552 11.9772 11.3942 11.9772C11.5332 11.9772 11.6666 11.9221 11.7651 11.824H11.7661Z" fill="#1C212D"/>
</svg>
