<svg width="20" height="20" viewBox="0 0 20 20" fill="none" xmlns="http://www.w3.org/2000/svg">
<path d="M13.333 6.6665H6.66634C6.44533 6.6665 6.23337 6.57871 6.07709 6.42243C5.92081 6.26615 5.83301 6.05418 5.83301 5.83317V3.33317C5.83301 2.89114 6.0086 2.46722 6.32116 2.15466C6.63372 1.8421 7.05765 1.6665 7.49967 1.6665H12.4997C12.9417 1.6665 13.3656 1.8421 13.6782 2.15466C13.9907 2.46722 14.1663 2.89114 14.1663 3.33317V5.83317C14.1663 6.05418 14.0785 6.26615 13.9223 6.42243C13.766 6.57871 13.554 6.6665 13.333 6.6665ZM7.49967 4.99984H12.4997V3.33317H7.49967V4.99984Z" fill="white"/>
<path d="M16.667 5H3.33366C2.41318 5 1.66699 5.74619 1.66699 6.66667V16.6667C1.66699 17.5871 2.41318 18.3333 3.33366 18.3333H16.667C17.5875 18.3333 18.3337 17.5871 18.3337 16.6667V6.66667C18.3337 5.74619 17.5875 5 16.667 5Z" fill="#CDCDCD"/>
<path d="M12.5 11.6668C12.279 11.6668 12.067 11.579 11.9107 11.4228C11.7545 11.2665 11.6667 11.0545 11.6667 10.8335V10.0002H5.83333C5.61232 10.0002 5.40036 9.91237 5.24408 9.75608C5.0878 9.5998 5 9.38784 5 9.16683C5 8.94582 5.0878 8.73385 5.24408 8.57757C5.40036 8.42129 5.61232 8.3335 5.83333 8.3335H14.1667C14.3877 8.3335 14.5996 8.42129 14.7559 8.57757C14.9122 8.73385 15 8.94582 15 9.16683C15 9.38784 14.9122 9.5998 14.7559 9.75608C14.5996 9.91237 14.3877 10.0002 14.1667 10.0002H13.3333V10.8335C13.3333 11.0545 13.2455 11.2665 13.0893 11.4228C12.933 11.579 12.721 11.6668 12.5 11.6668Z" fill="white"/>
</svg>
