<svg width="20" height="20" viewBox="0 0 20 20" fill="none" xmlns="http://www.w3.org/2000/svg">
<path d="M10.9059 17.8229L11.3577 17.0597C11.708 16.4677 11.8832 16.1717 12.1647 16.008C12.4461 15.8443 12.8003 15.8383 13.509 15.8261C14.5552 15.808 15.2112 15.7439 15.7615 15.516C16.7825 15.0931 17.5936 14.282 18.0165 13.261C18.3337 12.4953 18.3337 11.5246 18.3337 9.58317V8.74984C18.3337 8.44175 18.3337 8.15111 18.3327 7.8764C18.3317 7.52029 17.8962 7.31906 17.5812 7.48525C17.0594 7.76062 16.4647 7.9165 15.8337 7.9165C13.7626 7.9165 12.0837 6.23757 12.0837 4.1665C12.0837 3.53543 12.2396 2.94076 12.5149 2.4189C12.6811 2.10395 12.4799 1.66854 12.1237 1.66739C11.8491 1.6665 11.5584 1.6665 11.2503 1.6665H8.75033C6.02247 1.6665 4.65853 1.6665 3.65658 2.2805C3.09593 2.62407 2.62456 3.09545 2.28099 3.6561C1.66699 4.65805 1.66699 6.02198 1.66699 8.74984V9.58317C1.66699 11.5246 1.66699 12.4953 1.98416 13.261C2.40705 14.282 3.21819 15.0931 4.23914 15.516C4.7894 15.7439 5.44551 15.808 6.49164 15.8261C7.20026 15.8383 7.55457 15.8443 7.83598 16.008C8.1174 16.1718 8.2926 16.4677 8.64299 17.0597L9.09474 17.8229C9.49741 18.5032 10.5032 18.5032 10.9059 17.8229Z" fill="black"/>
<path d="M15.833 6.6665C17.2137 6.6665 18.333 5.54722 18.333 4.1665C18.333 2.78579 17.2137 1.6665 15.833 1.6665C14.4523 1.6665 13.333 2.78579 13.333 4.1665C13.333 5.54722 14.4523 6.6665 15.833 6.6665Z" fill="black"/>
</svg>
