<svg width="20" height="20" viewBox="0 0 20 20" fill="none" xmlns="http://www.w3.org/2000/svg">
<path d="M10.9054 17.8232L11.3572 17.0599C11.7075 16.4679 11.8828 16.1719 12.1642 16.0082C12.4456 15.8446 12.7998 15.8385 13.5085 15.8263C14.5547 15.8082 15.2108 15.7442 15.761 15.5162C16.782 15.0933 17.5931 14.2822 18.016 13.2612C18.3332 12.4956 18.3332 11.5248 18.3332 9.58341V8.75008C18.3332 8.442 18.3332 8.15136 18.3323 7.87664C18.3312 7.52053 17.8958 7.31931 17.5808 7.4855C17.0589 7.76086 16.4643 7.91675 15.8332 7.91675C13.7621 7.91675 12.0832 6.23781 12.0832 4.16675C12.0832 3.53567 12.2391 2.94101 12.5144 2.41915C12.6806 2.1042 12.4794 1.66878 12.1233 1.66763C11.8486 1.66675 11.5579 1.66675 11.2498 1.66675H8.74984C6.02198 1.66675 4.65805 1.66675 3.6561 2.28075C3.09545 2.62431 2.62407 3.09569 2.2805 3.65634C1.6665 4.65829 1.6665 6.02222 1.6665 8.75008V9.58341C1.6665 11.5248 1.6665 12.4956 1.98367 13.2612C2.40656 14.2822 3.2177 15.0933 4.23865 15.5162C4.78891 15.7442 5.44502 15.8082 6.49115 15.8263C7.19977 15.8385 7.55408 15.8446 7.8355 16.0082C8.11691 16.172 8.29211 16.4679 8.6425 17.0599L9.09425 17.8232C9.49692 18.5034 10.5028 18.5034 10.9054 17.8232Z" fill="#CDCDCD"/>
<path d="M15.8335 6.66675C17.2142 6.66675 18.3335 5.54746 18.3335 4.16675C18.3335 2.78604 17.2142 1.66675 15.8335 1.66675C14.4528 1.66675 13.3335 2.78604 13.3335 4.16675C13.3335 5.54746 14.4528 6.66675 15.8335 6.66675Z" fill="#CDCDCD"/>
</svg>
