<svg width="20" height="20" viewBox="0 0 20 20" fill="none" xmlns="http://www.w3.org/2000/svg">
<path d="M13.4915 1.66675H6.50817C3.47484 1.66675 1.6665 3.47508 1.6665 6.50841V13.4834C1.6665 16.5251 3.47484 18.3334 6.50817 18.3334H13.4832C16.5165 18.3334 18.3248 16.5251 18.3248 13.4917V6.50841C18.3332 3.47508 16.5248 1.66675 13.4915 1.66675ZM14.3832 8.30008L12.4582 10.7834C12.2165 11.0917 11.8748 11.2917 11.4832 11.3334C11.0915 11.3834 10.7082 11.2751 10.3998 11.0334L8.87484 9.83342C8.8165 9.78341 8.74984 9.78341 8.7165 9.79175C8.68317 9.79175 8.62484 9.80841 8.57484 9.87508L6.5915 12.4501C6.4665 12.6084 6.28317 12.6917 6.09984 12.6917C5.9665 12.6917 5.83317 12.6501 5.7165 12.5584C5.4415 12.3501 5.3915 11.9584 5.59984 11.6834L7.58317 9.10841C7.82484 8.80008 8.1665 8.60008 8.55817 8.55008C8.9415 8.50008 9.33317 8.60841 9.6415 8.85008L11.1665 10.0501C11.2248 10.1001 11.2832 10.1001 11.3248 10.0917C11.3582 10.0917 11.4165 10.0751 11.4665 10.0084L13.3915 7.52508C13.5998 7.25008 13.9998 7.20008 14.2665 7.41675C14.5415 7.64175 14.5915 8.03341 14.3832 8.30008Z" fill="#CDCDCD"/>
</svg>
