<svg width="50" height="50" viewBox="0 0 50 50" fill="none" xmlns="http://www.w3.org/2000/svg">
<g clip-path="url(#clip0_10_14354)">
<path d="M26.0656 23.1637C32.4644 23.1637 37.6442 17.9759 37.6442 11.5811C37.6442 5.18425 32.4644 0 26.0656 0C19.6695 0 14.4845 5.18465 14.4845 11.5811C14.4845 17.9763 19.6695 23.1637 26.0656 23.1637Z" fill="black"/>
<path d="M29.0475 23.6305L26.1636 26.5356L23.3669 23.6001C23.3573 23.6025 23.3469 23.6025 23.3405 23.6049C22.8738 23.7169 20.893 24.3472 18.323 26.1905C18.3002 26.2064 17.7783 26.5684 17.534 26.7216C17.0489 27.0279 16.3246 27.4714 15.4484 27.8901C14.5773 28.3157 13.5455 28.7008 12.6065 28.9024C12.143 28.9943 11.7242 29.0195 11.3879 29.0087C11.0404 29.0023 10.8404 28.9271 10.6284 28.8344C10.5145 28.808 10.4301 28.7008 10.3053 28.6416C10.2077 28.512 10.0665 28.45 9.96056 28.2661C9.90377 28.1849 9.83858 28.1169 9.7778 28.0289L9.61343 27.7246C9.48625 27.5438 9.40586 27.2743 9.30308 27.0423C9.1907 26.8191 9.13271 26.5256 9.04913 26.2684C8.96195 26.0137 8.90356 25.7341 8.85277 25.4538C8.72399 24.9147 8.6636 24.352 8.60081 23.8353C8.52363 23.3258 8.52843 22.8143 8.49043 22.3828C8.48923 22.3704 8.49003 22.3596 8.48923 22.3472C8.73439 21.996 9.06753 21.6793 9.47265 21.3853C9.87738 21.0946 10.1957 20.6107 10.4069 20.148C11.2283 18.3231 11.5855 17.2781 12.175 15.364C12.4237 14.5578 10.9368 13.6656 9.96656 15.9475C9.55624 16.7742 9.7354 16.859 9.31828 17.6824L9.16911 17.9628C9.16911 17.9628 9.08312 17.1677 9.07193 16.9274C8.94275 14.1719 8.82477 12.6937 8.6924 9.93824C8.6564 9.17398 8.33806 8.83364 7.74817 8.87444C7.18667 8.91483 6.93992 9.26077 6.96991 10.0034C7.0303 11.5076 7.10229 11.7323 7.16308 13.2352C7.19147 13.8019 6.82274 13.6944 6.82514 13.2328C6.72756 11.1828 6.63437 10.7301 6.55199 8.67967C6.52879 8.12298 6.29724 7.75784 5.72654 7.69665C5.17504 7.63826 4.79831 8.09618 4.82631 8.79325C4.90829 10.7749 5.00627 11.1588 5.08786 13.1409C5.11665 13.7271 4.75592 13.6348 4.75472 13.194C4.68153 11.6231 4.63514 11.3276 4.52156 9.75947C4.49957 9.44353 4.3076 9.02841 4.05925 8.86284C3.45336 8.45931 2.79108 8.97362 2.81908 9.81027C2.87747 11.5647 2.97225 12.0407 3.04463 13.7935C3.08823 14.2434 2.73589 14.3642 2.7167 13.8403C2.66231 12.7241 2.62031 12.8849 2.55912 11.7699C2.53113 11.2616 2.24158 10.9713 1.73048 10.9517C1.21417 10.9329 0.929824 11.2332 0.845839 11.7187C0.809846 11.9175 0.829042 12.1274 0.838241 12.331C0.955819 14.9737 1.02661 16.3419 1.22177 18.9786C1.29136 19.902 1.40214 20.5467 1.55331 21.2922C1.70448 22.0376 2.1204 22.3891 2.21999 22.7583C2.19679 23.1854 2.1688 23.6341 2.18559 24.1488C2.19479 24.8327 2.19879 25.5718 2.29357 26.3944C2.32637 26.7991 2.36956 27.2191 2.45994 27.667C2.54593 28.1125 2.59792 28.5544 2.74789 29.0379C2.88706 29.5166 2.99424 29.993 3.2198 30.5041C3.32338 30.756 3.42776 31.0096 3.53294 31.2639C3.65772 31.5211 3.80889 31.781 3.95327 32.0394C4.21682 32.5577 4.63914 33.0696 5.02987 33.5703C5.49458 34.0474 5.9625 34.5317 6.54319 34.9144C7.65819 35.7111 8.98874 36.2454 10.2077 36.4478C11.4327 36.6673 12.5801 36.6689 13.6063 36.5709C13.8818 36.5401 14.219 36.5038 14.4829 36.4634L14.4905 50.0001H38.4389V44.8166C38.9672 46.3115 39.4651 48.0372 39.9366 50.0001H49.1757C46.4439 37.3276 39.294 27.0087 29.0475 23.6305ZM26.19 49.4558H26.1388L23.3445 45.6337L26.1388 26.9659H26.19L28.9863 45.6337L26.19 49.4558Z" fill="black"/>
</g>
<defs>
<clipPath id="clip0_10_14354">
<rect width="50" height="50" fill="white"/>
</clipPath>
</defs>
</svg>
