<svg width="15" height="15" viewBox="0 0 15 15" fill="none" xmlns="http://www.w3.org/2000/svg">
<path d="M10.6425 0H4.3575C1.6275 0 0 1.6275 0 4.3575V10.635C0 13.3725 1.6275 15 4.3575 15H10.635C13.365 15 14.9925 13.3725 14.9925 10.6425V4.3575C15 1.6275 13.3725 0 10.6425 0ZM6.7125 11.6325C6.495 11.85 6.0825 12.06 5.7825 12.105L3.9375 12.3675C3.87 12.375 3.8025 12.3825 3.735 12.3825C3.4275 12.3825 3.1425 12.2775 2.94 12.075C2.6925 11.8275 2.5875 11.4675 2.6475 11.07L2.91 9.225C2.955 8.9175 3.1575 8.5125 3.3825 8.295L6.7275 4.95C6.7875 5.1075 6.8475 5.265 6.93 5.445C7.005 5.6025 7.0875 5.7675 7.1775 5.9175C7.2525 6.045 7.335 6.165 7.4025 6.255C7.485 6.3825 7.5825 6.5025 7.6425 6.57C7.68 6.6225 7.71 6.66 7.725 6.675C7.9125 6.9 8.13 7.11 8.3175 7.2675C8.37 7.32 8.4 7.35 8.415 7.3575C8.5275 7.4475 8.64 7.5375 8.7375 7.605C8.8575 7.695 8.9775 7.7775 9.105 7.845C9.255 7.935 9.42 8.0175 9.585 8.1C9.7575 8.175 9.915 8.2425 10.0725 8.295L6.7125 11.6325ZM11.5275 6.8175L10.8375 7.515C10.7925 7.56 10.7325 7.5825 10.6725 7.5825C10.65 7.5825 10.62 7.5825 10.605 7.575C9.0825 7.14 7.8675 5.925 7.4325 4.4025C7.41 4.32 7.4325 4.23 7.4925 4.1775L8.19 3.48C9.33 2.34 10.4175 2.3625 11.535 3.48C12.105 4.05 12.3825 4.5975 12.3825 5.1675C12.375 5.7075 12.0975 6.2475 11.5275 6.8175Z" fill="#0053BF"/>
</svg>
