<svg width="16" height="16" viewBox="0 0 16 16" fill="none" xmlns="http://www.w3.org/2000/svg">
<path d="M7.95309 6.92188C8.54709 6.92188 9.03109 7.40638 9.03109 7.99988C9.03109 8.59338 8.54659 9.06238 7.95309 9.06238C7.35959 9.06238 6.89059 8.59338 6.89059 7.99988C6.89059 7.40638 7.35959 6.92188 7.95309 6.92188ZM7.95309 4.26538C11.4846 4.26538 14.0311 7.57788 14.0311 7.57788C14.2031 7.79688 14.2031 8.18738 14.0311 8.40588C14.0311 8.40588 11.4841 11.7184 7.95309 11.7184C4.42209 11.7184 1.87509 8.40588 1.87509 8.40588C1.70309 8.18688 1.70309 7.79638 1.87509 7.57788C1.87509 7.57788 4.42209 4.26538 7.95309 4.26538ZM7.95309 10.6719C9.42209 10.6719 10.6251 9.46888 10.6251 7.99988C10.6251 6.53088 9.42209 5.32788 7.95309 5.32788C6.48409 5.32788 5.28109 6.53088 5.28109 7.99988C5.28109 9.46888 6.48409 10.6719 7.95309 10.6719Z" fill="black"/>
</svg>
