<svg width="20" height="20" viewBox="0 0 20 20" fill="none" xmlns="http://www.w3.org/2000/svg">
<path d="M13.333 6.66663H6.66634C6.44533 6.66663 6.23337 6.57883 6.07709 6.42255C5.92081 6.26627 5.83301 6.05431 5.83301 5.83329V3.33329C5.83301 2.89127 6.0086 2.46734 6.32116 2.15478C6.63372 1.84222 7.05765 1.66663 7.49967 1.66663H12.4997C12.9417 1.66663 13.3656 1.84222 13.6782 2.15478C13.9907 2.46734 14.1663 2.89127 14.1663 3.33329V5.83329C14.1663 6.05431 14.0785 6.26627 13.9223 6.42255C13.766 6.57883 13.554 6.66663 13.333 6.66663ZM7.49967 4.99996H12.4997V3.33329H7.49967V4.99996Z" fill="white"/>
<path d="M16.667 5H3.33366C2.41318 5 1.66699 5.74619 1.66699 6.66667V16.6667C1.66699 17.5871 2.41318 18.3333 3.33366 18.3333H16.667C17.5875 18.3333 18.3337 17.5871 18.3337 16.6667V6.66667C18.3337 5.74619 17.5875 5 16.667 5Z" fill="black"/>
<path d="M12.5 11.6667C12.279 11.6667 12.067 11.5789 11.9107 11.4226C11.7545 11.2663 11.6667 11.0544 11.6667 10.8334V10H5.83333C5.61232 10 5.40036 9.91224 5.24408 9.75596C5.0878 9.59968 5 9.38772 5 9.16671C5 8.94569 5.0878 8.73373 5.24408 8.57745C5.40036 8.42117 5.61232 8.33337 5.83333 8.33337H14.1667C14.3877 8.33337 14.5996 8.42117 14.7559 8.57745C14.9122 8.73373 15 8.94569 15 9.16671C15 9.38772 14.9122 9.59968 14.7559 9.75596C14.5996 9.91224 14.3877 10 14.1667 10H13.3333V10.8334C13.3333 11.0544 13.2455 11.2663 13.0893 11.4226C12.933 11.5789 12.721 11.6667 12.5 11.6667Z" fill="white"/>
</svg>
