<svg width="20" height="20" viewBox="0 0 20 20" fill="none" xmlns="http://www.w3.org/2000/svg">
<path d="M9.94137 8.65266C10.6839 8.65266 11.2889 9.25828 11.2889 10.0002C11.2889 10.742 10.6832 11.3283 9.94137 11.3283C9.19949 11.3283 8.61324 10.742 8.61324 10.0002C8.61324 9.25828 9.19949 8.65266 9.94137 8.65266ZM9.94137 5.33203C14.3557 5.33203 17.5389 9.47266 17.5389 9.47266C17.7539 9.74641 17.7539 10.2345 17.5389 10.5077C17.5389 10.5077 14.3551 14.6483 9.94137 14.6483C5.52762 14.6483 2.34387 10.5077 2.34387 10.5077C2.12887 10.2339 2.12887 9.74578 2.34387 9.47266C2.34387 9.47266 5.52762 5.33203 9.94137 5.33203ZM9.94137 13.3402C11.7776 13.3402 13.2814 11.8364 13.2814 10.0002C13.2814 8.16391 11.7776 6.66016 9.94137 6.66016C8.10512 6.66016 6.60137 8.16391 6.60137 10.0002C6.60137 11.8364 8.10512 13.3402 9.94137 13.3402Z" fill="black"/>
</svg>
