<svg width="20" height="20" viewBox="0 0 20 20" fill="none" xmlns="http://www.w3.org/2000/svg">
<path d="M10.9059 17.8231L11.3577 17.0599C11.708 16.4679 11.8832 16.1719 12.1647 16.0082C12.4461 15.8445 12.8003 15.8384 13.509 15.8263C14.5552 15.8082 15.2112 15.7441 15.7615 15.5162C16.7825 15.0933 17.5936 14.2822 18.0165 13.2612C18.3337 12.4955 18.3337 11.5248 18.3337 9.58335V8.75002C18.3337 8.44194 18.3337 8.1513 18.3327 7.87658C18.3317 7.52047 17.8962 7.31925 17.5812 7.48544C17.0594 7.7608 16.4647 7.91669 15.8337 7.91669C13.7626 7.91669 12.0837 6.23775 12.0837 4.16669C12.0837 3.53561 12.2396 2.94095 12.5149 2.41909C12.6811 2.10414 12.4799 1.66872 12.1237 1.66757C11.8491 1.66669 11.5584 1.66669 11.2503 1.66669H8.75033C6.02247 1.66669 4.65853 1.66669 3.65658 2.28069C3.09593 2.62425 2.62456 3.09563 2.28099 3.65628C1.66699 4.65823 1.66699 6.02216 1.66699 8.75002V9.58335C1.66699 11.5248 1.66699 12.4955 1.98416 13.2612C2.40705 14.2822 3.21819 15.0933 4.23914 15.5162C4.7894 15.7441 5.44551 15.8082 6.49164 15.8263C7.20026 15.8384 7.55457 15.8445 7.83598 16.0082C8.1174 16.1719 8.2926 16.4679 8.64299 17.0599L9.09474 17.8231C9.49741 18.5034 10.5032 18.5034 10.9059 17.8231Z" fill="#CDCDCD"/>
<path d="M15.833 6.66669C17.2137 6.66669 18.333 5.5474 18.333 4.16669C18.333 2.78598 17.2137 1.66669 15.833 1.66669C14.4523 1.66669 13.333 2.78598 13.333 4.16669C13.333 5.5474 14.4523 6.66669 15.833 6.66669Z" fill="#CDCDCD"/>
</svg>
