<svg width="24" height="24" viewBox="0 0 24 24" fill="none" xmlns="http://www.w3.org/2000/svg">
<g clip-path="url(#clip0_10_14715)">
<path d="M22 2H2V22H22V2Z" fill="#1C212D"/>
<path d="M14.5202 20.3333C15.5644 20.3333 16.4605 20.2784 17.2092 20.112C17.9674 19.9435 18.6247 19.6498 19.1373 19.1371C19.65 18.6244 19.9437 17.9672 20.1122 17.2089C20.2787 16.4603 20.3335 15.5642 20.3335 14.5199V11.9999C20.3335 11.0794 19.5873 10.3333 18.6668 10.3333H12.0002C11.0797 10.3333 10.3335 11.0794 10.3335 11.9999V18.6666C10.3335 19.5871 11.0797 20.3333 12.0002 20.3333H14.5202Z" fill="#CDCDCD"/>
<path d="M3.6665 14.5199C3.6665 15.5642 3.72137 16.4603 3.88777 17.2089C4.05627 17.9672 4.35001 18.6244 4.8627 19.1371C5.37538 19.6498 6.03261 19.9435 6.7908 20.112C6.8634 20.1281 6.93638 20.1433 7.00965 20.1574C7.91341 20.332 8.6665 19.5671 8.6665 18.6466V11.9999C8.6665 11.0794 7.92031 10.3333 6.99984 10.3333H5.33317C4.4127 10.3333 3.6665 11.0794 3.6665 11.9999V14.5199Z" fill="#CDCDCD"/>
<path d="M9.48008 3.66675C8.4358 3.66675 7.53976 3.72161 6.79103 3.88801C6.03285 4.05651 5.37562 4.35026 4.86293 4.86294C4.35025 5.37562 4.05651 6.03286 3.88801 6.79104C3.87418 6.8533 3.86116 6.91576 3.84893 6.9784C3.67028 7.89397 4.44918 8.66675 5.38202 8.66675H18.6468C19.5673 8.66675 20.3322 7.91366 20.1576 7.0099C20.1434 6.93662 20.1283 6.86365 20.1122 6.79104C19.9436 6.03286 19.6499 5.37562 19.1372 4.86294C18.6245 4.35026 17.9673 4.05651 17.2091 3.88801C16.4603 3.72161 15.5644 3.66675 14.5201 3.66675H9.48008Z" fill="#CDCDCD"/>
</g>
<defs>
<clipPath id="clip0_10_14715">
<rect width="20" height="20" fill="white" transform="translate(2 2)"/>
</clipPath>
</defs>
</svg>
