<svg width="37" height="37" viewBox="0 0 37 37" fill="none" xmlns="http://www.w3.org/2000/svg">
<path d="M18.5007 34.8875C17.4678 34.8875 16.4195 34.6562 15.6024 34.1783L7.12327 29.2912C3.66994 26.9633 3.4541 26.6087 3.4541 22.955V14.0442C3.4541 10.3904 3.65452 10.0358 7.04618 7.73874L15.587 2.80541C17.2057 1.86499 19.7495 1.86499 21.3682 2.80541L29.8782 7.70791C33.3316 10.0358 33.5474 10.3904 33.5474 14.0442V22.9396C33.5474 26.5933 33.347 26.9479 29.9553 29.245L21.4145 34.1783C20.582 34.6562 19.5336 34.8875 18.5007 34.8875ZM18.5007 4.42416C17.8532 4.42416 17.2211 4.54749 16.7741 4.80958L8.29493 9.71208C5.78202 11.4079 5.78202 11.4079 5.78202 14.0442V22.9396C5.78202 25.5758 5.78202 25.5758 8.3566 27.3179L16.7741 32.1742C17.6836 32.6983 19.3332 32.6983 20.2428 32.1742L28.722 27.2717C31.2195 25.5758 31.2195 25.5758 31.2195 22.9396V14.0442C31.2195 11.4079 31.2195 11.4079 28.6449 9.66583L20.2274 4.80958C19.7803 4.54749 19.1482 4.42416 18.5007 4.42416Z" fill="white"/>
<path d="M18.5 24.2812C15.3088 24.2812 12.7188 21.6912 12.7188 18.5C12.7188 15.3088 15.3088 12.7188 18.5 12.7188C21.6912 12.7188 24.2812 15.3088 24.2812 18.5C24.2812 21.6912 21.6912 24.2812 18.5 24.2812ZM18.5 15.0312C16.5883 15.0312 15.0312 16.5883 15.0312 18.5C15.0312 20.4117 16.5883 21.9688 18.5 21.9688C20.4117 21.9688 21.9688 20.4117 21.9688 18.5C21.9688 16.5883 20.4117 15.0312 18.5 15.0312Z" fill="white"/>
</svg>
