<svg width="20" height="20" viewBox="0 0 20 20" fill="none" xmlns="http://www.w3.org/2000/svg">
<path d="M14.5832 10C17.1145 10 19.1665 12.052 19.1665 14.5833C19.1665 17.1146 17.1145 19.1667 14.5832 19.1667C12.0519 19.1667 9.99984 17.1146 9.99984 14.5833C9.99984 12.052 12.0519 10 14.5832 10ZM14.5832 11.666L14.5083 11.6727C14.3382 11.7036 14.2041 11.8377 14.1732 12.0078L14.1665 12.0827L14.1662 14.166L12.0812 14.1667L12.0063 14.1734C11.8362 14.2043 11.7021 14.3384 11.6713 14.5084L11.6645 14.5833L11.6713 14.6582C11.7021 14.8283 11.8362 14.9624 12.0063 14.9933L12.0812 15L14.167 14.9994L14.1674 17.0862L14.1741 17.1611C14.205 17.3312 14.3391 17.4653 14.5092 17.4962L14.5841 17.5029L14.659 17.4962C14.8291 17.4653 14.9632 17.3312 14.994 17.1611L15.0008 17.0862L15.0004 14.9994L17.087 15L17.1619 14.9933C17.3319 14.9624 17.4661 14.8283 17.4969 14.6582L17.5036 14.5833L17.4969 14.5084C17.4661 14.3384 17.3319 14.2043 17.1619 14.1734L17.087 14.1667L14.9995 14.166L14.9998 12.0827L14.9931 12.0078C14.9623 11.8377 14.8281 11.7036 14.6581 11.6727L14.5832 11.666ZM11.8782 8.33333C12.5736 8.33333 13.1807 8.71196 13.5044 9.27432C11.0293 9.77471 9.1665 11.9615 9.1665 14.5833C9.1665 15.6576 9.47925 16.6589 10.0187 17.501L10.0023 17.5C7.93077 17.5 6.25144 15.8207 6.25144 13.7491V10.2083C6.25144 9.1728 7.09091 8.33333 8.12644 8.33333H11.8782ZM6.17188 8.33356C5.74393 8.77961 5.46718 9.37185 5.42403 10.0279L5.41811 10.2083V13.7491C5.41811 14.4547 5.5775 15.123 5.86223 15.72C5.58798 15.7942 5.299 15.8333 5.00087 15.8333C3.15935 15.8333 1.6665 14.3405 1.6665 12.499V10.2083C1.6665 9.21595 2.43747 8.40363 3.41313 8.33766L3.5415 8.33333L6.17188 8.33356ZM16.4582 8.33333C17.4937 8.33333 18.3332 9.1728 18.3332 10.2083L18.3339 10.6753C17.3605 9.74094 16.0389 9.16667 14.5832 9.16667L14.3805 9.17039C14.2509 8.85804 14.0639 8.57447 13.8328 8.33356L16.4582 8.33333ZM15.4165 3.33333C16.5671 3.33333 17.4998 4.26607 17.4998 5.41667C17.4998 6.56726 16.5671 7.5 15.4165 7.5C14.2659 7.5 13.3332 6.56726 13.3332 5.41667C13.3332 4.26607 14.2659 3.33333 15.4165 3.33333ZM9.99984 2.5C11.3805 2.5 12.4998 3.61929 12.4998 5C12.4998 6.38071 11.3805 7.5 9.99984 7.5C8.61913 7.5 7.49984 6.38071 7.49984 5C7.49984 3.61929 8.61913 2.5 9.99984 2.5ZM4.58317 3.33333C5.73376 3.33333 6.6665 4.26607 6.6665 5.41667C6.6665 6.56726 5.73376 7.5 4.58317 7.5C3.43258 7.5 2.49984 6.56726 2.49984 5.41667C2.49984 4.26607 3.43258 3.33333 4.58317 3.33333Z" fill="#CDCDCD"/>
</svg>
