<svg width="20" height="20" viewBox="0 0 20 20" fill="none" xmlns="http://www.w3.org/2000/svg">
<g clip-path="url(#clip0_10_631)">
<path d="M19.0621 4.09082H13.4593V2.60448C13.4593 1.71973 12.7395 1 11.8548 1H8.1451C7.26035 1 6.54062 1.71973 6.54062 2.60448V4.09082H0.937776C0.419859 4.09082 0 4.51076 0 5.02868V17.1725C0 17.6904 0.419859 18.1103 0.937776 18.1103H1.43033V18.2223C1.43033 18.6517 1.77858 19 2.20834 19C2.63767 19 2.98601 18.6517 2.98601 18.2223V18.1103H17.0137V18.2223C17.0137 18.6517 17.3619 19 17.7917 19C18.221 19 18.5693 18.6517 18.5693 18.2223V18.1103H19.0621C19.5801 18.1103 20 17.6904 20 17.1725V5.02868C20 4.51076 19.5801 4.09082 19.0621 4.09082ZM7.87398 2.60448C7.87398 2.45506 7.99572 2.33336 8.1451 2.33336H11.8548C12.0042 2.33336 12.1259 2.45511 12.1259 2.60448V4.09082H7.87398V2.60448ZM14.9231 12.5029C14.7301 12.6966 14.4622 12.8079 14.1885 12.8079H14.166L14.1819 12.8238C14.3779 13.0198 14.486 13.2803 14.486 13.5572C14.486 13.8343 14.3779 14.0947 14.1819 14.2906L13.2333 15.2396C13.0374 15.4348 12.777 15.5426 12.5003 15.5426C12.2233 15.5426 11.9629 15.4348 11.7672 15.2392L11.7509 15.2226V15.2457C11.7509 15.8174 11.2858 16.2825 10.7139 16.2825H9.37235C8.80077 16.2825 8.33564 15.8174 8.33564 15.2457V15.2226L8.31962 15.2386C8.12401 15.4346 7.86329 15.5423 7.58622 15.5423C7.3125 15.5423 7.04487 15.4313 6.85315 15.2386L5.90364 14.2893C5.5003 13.8847 5.5003 13.2271 5.90431 12.8235L5.91991 12.8079H5.89811C5.32653 12.8079 4.86131 12.3427 4.86131 11.7707V10.429C4.86131 9.85699 5.32649 9.39185 5.89811 9.39185H5.91991L5.90498 9.37685C5.70899 9.1809 5.60091 8.92051 5.60091 8.64345C5.60091 8.37065 5.71159 8.1031 5.90498 7.91004L6.85382 6.96082C7.04981 6.7655 7.31024 6.65776 7.58689 6.65776C7.86396 6.65776 8.12468 6.76584 8.31996 6.96183L8.33564 6.97743V6.95529C8.33564 6.68317 8.44304 6.43737 8.61522 6.25216C8.80467 6.04841 9.07289 5.91849 9.37235 5.91849H10.7139C11.0137 5.91849 11.2819 6.04841 11.4714 6.25216C11.6436 6.43737 11.7509 6.68317 11.7509 6.95529V6.97675L11.7666 6.96116C11.9622 6.76517 12.2226 6.65743 12.5 6.65743C12.777 6.65743 13.0374 6.76517 13.2331 6.96116L14.1816 7.90971C14.3776 8.1057 14.4857 8.36612 14.4857 8.64311C14.4857 8.91691 14.3743 9.1845 14.1819 9.37617L14.166 9.39185H14.1885C14.76 9.39185 15.2252 9.85699 15.2252 10.429L15.2255 11.7707C15.2255 12.0436 15.1148 12.3109 14.9231 12.5029Z" fill="#CDCDCD"/>
<path d="M14.1889 10.0587H13.4281C13.362 9.84421 13.2754 9.63879 13.1719 9.44414L13.7106 8.90509C13.7803 8.83575 13.8194 8.74134 13.8194 8.64337C13.8194 8.5451 13.7803 8.45102 13.7106 8.38139L12.7621 7.4328C12.6898 7.36052 12.5951 7.32438 12.5004 7.32438C12.4053 7.32438 12.3106 7.36052 12.2383 7.4328L11.6992 7.97184C11.5042 7.86829 11.2991 7.78206 11.0846 7.71632V6.95559C11.0846 6.75117 10.9186 6.58545 10.7142 6.58545H9.3727C9.16829 6.58545 9.00265 6.75117 9.00265 6.95559V7.71632C8.78813 7.78206 8.58271 7.86834 8.38739 7.97184L7.84897 7.43343C7.77669 7.36082 7.68195 7.32468 7.58691 7.32468C7.49216 7.32468 7.3975 7.36082 7.32522 7.43309L6.37663 8.38168C6.30696 8.45136 6.26788 8.54577 6.26788 8.6437C6.26788 8.74205 6.30696 8.83609 6.37663 8.90576L6.91505 9.44418C6.8115 9.63916 6.72531 9.84425 6.65919 10.0588H5.89846C5.69404 10.0588 5.52832 10.2248 5.52832 10.4292V11.771C5.52832 11.9754 5.69404 12.1415 5.89846 12.1415H6.65886C6.72497 12.356 6.81125 12.5614 6.91471 12.7564L6.376 13.2951C6.23179 13.4393 6.23179 13.674 6.376 13.8185L7.32493 14.7674C7.39427 14.8371 7.48868 14.8759 7.58661 14.8759C7.68497 14.8759 7.779 14.8371 7.84868 14.7674L8.38705 14.229C8.58237 14.3325 8.78779 14.4191 9.00265 14.4848V15.2459C9.00265 15.4504 9.16833 15.616 9.3727 15.616H10.7142C10.9187 15.616 11.0846 15.4504 11.0846 15.2459V14.4848C11.2991 14.4191 11.5049 14.3325 11.6999 14.229L12.239 14.7678C12.3113 14.84 12.406 14.8762 12.5007 14.8762C12.5954 14.8762 12.6904 14.84 12.7627 14.7678L13.711 13.8195C13.7807 13.7498 13.8197 13.6558 13.8197 13.5575C13.8197 13.4592 13.7807 13.3651 13.711 13.2954L13.1722 12.7567C13.2757 12.5617 13.3623 12.3559 13.4281 12.1414H14.1888C14.2867 12.1414 14.3815 12.1024 14.4508 12.0327C14.5202 11.9633 14.5592 11.8689 14.5592 11.7709L14.5589 10.4292C14.5589 10.2247 14.3932 10.0587 14.1889 10.0587ZM10.0433 13.4825C8.72985 13.4825 7.66115 12.4139 7.66115 11.1004C7.66115 9.7869 8.72981 8.7182 10.0433 8.7182C11.3571 8.7182 12.4257 9.78694 12.4257 11.1004C12.4257 12.4138 11.3571 13.4825 10.0433 13.4825Z" fill="#CDCDCD"/>
<path d="M10.0426 9.38477C9.09665 9.38477 8.32715 10.1543 8.32715 11.1003C8.32715 12.0462 9.09669 12.8157 10.0426 12.8157C10.9886 12.8157 11.7584 12.0462 11.7584 11.1003C11.7584 10.1543 10.9886 9.38477 10.0426 9.38477Z" fill="#CDCDCD"/>
</g>
<defs>
<clipPath id="clip0_10_631">
<rect width="20" height="20" fill="white"/>
</clipPath>
</defs>
</svg>
