<svg width="20" height="20" viewBox="0 0 20 20" fill="none" xmlns="http://www.w3.org/2000/svg">
<path d="M10.9059 17.823L11.3577 17.0598C11.708 16.4678 11.8832 16.1718 12.1647 16.0081C12.4461 15.8445 12.8003 15.8384 13.509 15.8262C14.5552 15.8081 15.2112 15.744 15.7615 15.5161C16.7825 15.0932 17.5936 14.2821 18.0165 13.2611C18.3337 12.4955 18.3337 11.5247 18.3337 9.58329V8.74996C18.3337 8.44188 18.3337 8.15123 18.3327 7.87652C18.3317 7.52041 17.8962 7.31918 17.5812 7.48538C17.0594 7.76074 16.4647 7.91663 15.8337 7.91663C13.7626 7.91663 12.0837 6.23769 12.0837 4.16663C12.0837 3.53555 12.2396 2.94088 12.5149 2.41903C12.6811 2.10408 12.4799 1.66866 12.1237 1.66751C11.8491 1.66663 11.5584 1.66663 11.2503 1.66663H8.75033C6.02247 1.66663 4.65853 1.66663 3.65658 2.28063C3.09593 2.62419 2.62456 3.09557 2.28099 3.65622C1.66699 4.65817 1.66699 6.0221 1.66699 8.74996V9.58329C1.66699 11.5247 1.66699 12.4955 1.98416 13.2611C2.40705 14.2821 3.21819 15.0932 4.23914 15.5161C4.7894 15.744 5.44551 15.8081 6.49164 15.8262C7.20026 15.8384 7.55457 15.8445 7.83598 16.0081C8.1174 16.1719 8.2926 16.4678 8.64299 17.0598L9.09474 17.823C9.49741 18.5033 10.5032 18.5033 10.9059 17.823Z" fill="#CDCDCD"/>
<path d="M15.833 6.66663C17.2137 6.66663 18.333 5.54734 18.333 4.16663C18.333 2.78591 17.2137 1.66663 15.833 1.66663C14.4523 1.66663 13.333 2.78591 13.333 4.16663C13.333 5.54734 14.4523 6.66663 15.833 6.66663Z" fill="#CDCDCD"/>
</svg>
