<svg width="20" height="20" viewBox="0 0 20 20" fill="none" xmlns="http://www.w3.org/2000/svg">
<path d="M7.27756 8.42027C7.27756 7.47363 6.72225 6.69371 5.66072 6.51953C5.51463 6.56816 5.35889 6.59543 5.19662 6.59543C5.03443 6.59543 4.87842 6.56816 4.73232 6.51953C3.67131 6.69375 3.11572 7.47367 3.11572 8.42027H5.19666H7.27756Z" fill="#CDCDCD"/>
<path d="M5.19682 6.25809C5.826 6.25809 6.33584 5.74824 6.33584 5.11937V4.79621C6.33584 4.16703 5.826 3.65723 5.19682 3.65723C4.56768 3.65723 4.05811 4.16707 4.05811 4.79621V5.11937C4.05811 5.74828 4.56768 6.25809 5.19682 6.25809Z" fill="#CDCDCD"/>
<path d="M12.0813 8.42027C12.0813 7.47363 11.5257 6.69371 10.4642 6.51953C10.3181 6.56816 10.1626 6.59543 10.0004 6.59543C9.83814 6.59543 9.68217 6.56816 9.53603 6.51953C8.47475 6.69375 7.91943 7.47367 7.91943 8.42027H10.0004H12.0813Z" fill="#CDCDCD"/>
<path d="M10.0003 6.25809C10.6292 6.25809 11.1391 5.74824 11.1391 5.11937V4.79621C11.1391 4.16703 10.6292 3.65723 10.0003 3.65723C9.37113 3.65723 8.86133 4.16707 8.86133 4.79621V5.11937C8.86133 5.74828 9.37113 6.25809 10.0003 6.25809Z" fill="#CDCDCD"/>
<path d="M16.8842 8.42027C16.8842 7.47363 16.3286 6.69371 15.2674 6.51953C15.1212 6.56816 14.9655 6.59543 14.8036 6.59543C14.6411 6.59543 14.4854 6.56816 14.3392 6.51953C13.278 6.69375 12.7227 7.47367 12.7227 8.42027H14.8036H16.8842Z" fill="#CDCDCD"/>
<path d="M14.8038 6.25809C15.4324 6.25809 15.9426 5.74824 15.9426 5.11937V4.79621C15.9426 4.16703 15.4325 3.65723 14.8038 3.65723C14.1746 3.65723 13.6646 4.16707 13.6646 4.79621V5.11937C13.6646 5.74828 14.1746 6.25809 14.8038 6.25809Z" fill="#CDCDCD"/>
<path d="M19.9691 15.8165L17.1789 9.33424C17.1191 9.19568 16.9829 9.10596 16.8321 9.10596H3.16804C3.01726 9.10596 2.88101 9.19564 2.82148 9.334L0.0307723 15.8165C-0.019384 15.933 -0.00770429 16.0671 0.0619832 16.1732C0.131905 16.279 0.250225 16.3429 0.377374 16.3429H6.89651C7.3455 15.584 8.11952 15.0334 9.20573 14.8553C9.45585 14.9382 9.72257 14.985 10.0003 14.985C10.278 14.985 10.5447 14.9382 10.7948 14.8553C11.8808 15.0334 12.6547 15.584 13.1035 16.3429H19.6228C19.7497 16.3429 19.8683 16.279 19.9379 16.1732C20.0076 16.0671 20.0195 15.933 19.9691 15.8165ZM11.9496 12.4583C11.9496 13.5349 11.0768 14.4076 10.0002 14.4076C8.92331 14.4076 8.05081 13.5349 8.05081 12.4583V11.905C8.05081 10.8284 8.92335 9.95564 10.0002 9.95564C11.0768 9.95564 11.9496 10.8284 11.9496 11.905V12.4583Z" fill="#CDCDCD"/>
</svg>
