<svg width="16" height="16" viewBox="0 0 16 16" fill="none" xmlns="http://www.w3.org/2000/svg">
<g clip-path="url(#clip0_10_13613)">
<path opacity="0.3" d="M8 7.33333H9.33333V8.66667H8V10H9.33333V11.3333H8V12.6667H13.3333V6H8V7.33333ZM10.6667 7.33333H12V8.66667H10.6667V7.33333ZM10.6667 10H12V11.3333H10.6667V10Z" fill="#6F747A"/>
<path d="M7.99967 4.66667V2H1.33301V14H14.6663V4.66667H7.99967ZM3.99967 12.6667H2.66634V11.3333H3.99967V12.6667ZM3.99967 10H2.66634V8.66667H3.99967V10ZM3.99967 7.33333H2.66634V6H3.99967V7.33333ZM3.99967 4.66667H2.66634V3.33333H3.99967V4.66667ZM6.66634 12.6667H5.33301V11.3333H6.66634V12.6667ZM6.66634 10H5.33301V8.66667H6.66634V10ZM6.66634 7.33333H5.33301V6H6.66634V7.33333ZM6.66634 4.66667H5.33301V3.33333H6.66634V4.66667ZM13.333 12.6667H7.99967V11.3333H9.33301V10H7.99967V8.66667H9.33301V7.33333H7.99967V6H13.333V12.6667ZM10.6663 7.33333H11.9997V8.66667H10.6663V7.33333ZM10.6663 10H11.9997V11.3333H10.6663V10Z" fill="black"/>
</g>
<defs>
<clipPath id="clip0_10_13613">
<rect width="16" height="16" fill="white"/>
</clipPath>
</defs>
</svg>
