<svg width="18" height="18" viewBox="0 0 18 18" fill="none" xmlns="http://www.w3.org/2000/svg">
<path d="M3.65625 9.5625H9.02812C9.16594 10.5154 9.97762 11.25 10.9688 11.25C11.9599 11.25 12.7716 10.5154 12.9094 9.5625H14.3438C15.0317 9.5625 15.6032 9.06525 15.7241 8.41163C16.6894 8.28506 17.4375 7.46831 17.4375 6.46875C17.4375 5.46919 16.6894 4.65244 15.7241 4.52587C15.6032 3.87225 15.0317 3.375 14.3438 3.375H10.6594C10.5216 2.42212 9.70988 1.6875 8.71875 1.6875C7.72762 1.6875 6.91594 2.42212 6.77813 3.375H5.59687C5.45906 2.42212 4.64738 1.6875 3.65625 1.6875C2.56894 1.6875 1.6875 2.56894 1.6875 3.65625C1.6875 4.74356 2.56894 5.625 3.65625 5.625C4.64738 5.625 5.45906 4.89037 5.59687 3.9375H6.77869C6.9165 4.89037 7.72819 5.625 8.71931 5.625C9.71044 5.625 10.5221 4.89037 10.6599 3.9375H14.3443C14.7223 3.9375 15.0396 4.18894 15.1464 4.53262C14.2133 4.68731 13.5 5.49225 13.5 6.46875C13.5 7.44525 14.2133 8.25019 15.1459 8.40488C15.039 8.74856 14.7218 9 14.3438 9H12.9094C12.7716 8.04712 11.9599 7.3125 10.9688 7.3125C9.97762 7.3125 9.16594 8.04712 9.02812 9H3.65625C2.96831 9 2.39681 9.49725 2.27587 10.1509C1.31063 10.2774 0.5625 11.0942 0.5625 12.0938C0.5625 13.0933 1.31063 13.9101 2.27587 14.0366C2.39681 14.6903 2.96831 15.1875 3.65625 15.1875H5.09063C5.22844 16.1404 6.04012 16.875 7.03125 16.875C8.02238 16.875 8.83406 16.1404 8.97188 15.1875H12.4037C12.5415 16.1404 13.3532 16.875 14.3443 16.875C15.4316 16.875 16.3131 15.9936 16.3131 14.9062C16.3131 13.8189 15.4311 12.9375 14.3438 12.9375C13.3526 12.9375 12.5409 13.6721 12.4031 14.625H8.97188C8.83406 13.6721 8.02238 12.9375 7.03125 12.9375C6.04012 12.9375 5.22844 13.6721 5.09063 14.625H3.65625C3.27825 14.625 2.961 14.3736 2.85413 14.0299C3.78675 13.8752 4.5 13.0702 4.5 12.0938C4.5 11.1173 3.78675 10.3123 2.85413 10.1576C2.961 9.81394 3.27825 9.5625 3.65625 9.5625ZM3.65625 4.5C3.19106 4.5 2.8125 4.12144 2.8125 3.65625C2.8125 3.19106 3.19106 2.8125 3.65625 2.8125C4.12144 2.8125 4.5 3.19106 4.5 3.65625C4.5 4.12144 4.12144 4.5 3.65625 4.5ZM8.71875 4.5C8.25356 4.5 7.875 4.12144 7.875 3.65625C7.875 3.19106 8.25356 2.8125 8.71875 2.8125C9.18394 2.8125 9.5625 3.19106 9.5625 3.65625C9.5625 4.12144 9.18394 4.5 8.71875 4.5ZM14.625 6.46875C14.625 6.00356 15.0036 5.625 15.4688 5.625C15.9339 5.625 16.3125 6.00356 16.3125 6.46875C16.3125 6.93394 15.9339 7.3125 15.4688 7.3125C15.0036 7.3125 14.625 6.93394 14.625 6.46875ZM10.9688 8.4375C11.4339 8.4375 11.8125 8.81606 11.8125 9.28125C11.8125 9.74644 11.4339 10.125 10.9688 10.125C10.5036 10.125 10.125 9.74644 10.125 9.28125C10.125 8.81606 10.5036 8.4375 10.9688 8.4375ZM14.3438 14.0625C14.8089 14.0625 15.1875 14.4411 15.1875 14.9062C15.1875 15.3714 14.8089 15.75 14.3438 15.75C13.8786 15.75 13.5 15.3714 13.5 14.9062C13.5 14.4411 13.8786 14.0625 14.3438 14.0625ZM7.03125 14.0625C7.49644 14.0625 7.875 14.4411 7.875 14.9062C7.875 15.3714 7.49644 15.75 7.03125 15.75C6.56606 15.75 6.1875 15.3714 6.1875 14.9062C6.1875 14.4411 6.56606 14.0625 7.03125 14.0625ZM3.375 12.0938C3.375 12.5589 2.99644 12.9375 2.53125 12.9375C2.06606 12.9375 1.6875 12.5589 1.6875 12.0938C1.6875 11.6286 2.06606 11.25 2.53125 11.25C2.99644 11.25 3.375 11.6286 3.375 12.0938Z" fill="#111918"/>
</svg>
