<svg width="22" height="22" viewBox="0 0 22 22" fill="none" xmlns="http://www.w3.org/2000/svg">
<path d="M8.25011 14.6666C2.57961 8.99514 2.85095 4.70605 5.44511 2.76089L6.01986 2.3328C6.16651 2.22491 6.33333 2.14757 6.51043 2.10537C6.68754 2.06318 6.87131 2.05699 7.05085 2.08717C7.23039 2.11735 7.40204 2.18328 7.55561 2.28106C7.70919 2.37884 7.84156 2.50648 7.94486 2.65639L9.39228 4.73905C9.58596 5.01778 9.66971 5.3583 9.6274 5.69507C9.58509 6.03184 9.41972 6.34106 9.16311 6.56322L7.76978 7.76772C7.42145 8.0693 7.25095 8.52672 7.4077 8.9603C7.69736 9.76697 8.40045 11.1906 10.0633 12.8525C11.7261 14.5153 13.1488 15.2184 13.9554 15.509C14.3899 15.6648 14.8474 15.4952 15.1489 15.146L16.3534 13.7545C16.5756 13.4979 16.8848 13.3325 17.2216 13.2902C17.5584 13.2479 17.8989 13.3316 18.1776 13.5253L20.2639 14.9736C20.4137 15.0766 20.5413 15.2086 20.639 15.3619C20.7368 15.5151 20.8027 15.6864 20.833 15.8656C20.8633 16.0448 20.8572 16.2283 20.8152 16.4051C20.7732 16.5819 20.6961 16.7485 20.5884 16.895L20.1576 17.4752C18.2134 20.0676 13.9224 20.338 8.25011 14.6666Z" fill="black"/>
</svg>
