<svg width="24" height="24" viewBox="0 0 24 24" fill="none" xmlns="http://www.w3.org/2000/svg">
<g clip-path="url(#clip0_10_15805)">
<path d="M22 2H2V22H22V2Z" fill="#1C212D"/>
<path d="M14.5197 20.3334C15.5639 20.3334 16.46 20.2785 17.2087 20.1121C17.9669 19.9436 18.6242 19.6499 19.1368 19.1372C19.6495 18.6245 19.9433 17.9673 20.1118 17.209C20.2782 16.4604 20.333 15.5643 20.333 14.52V12C20.333 11.0795 19.5868 10.3334 18.6663 10.3334H11.9997C11.0792 10.3334 10.333 11.0795 10.333 12V18.6667C10.333 19.5872 11.0792 20.3334 11.9997 20.3334H14.5197Z" fill="#CDCDCD"/>
<path d="M3.66699 14.52C3.66699 15.5643 3.72186 16.4604 3.88826 17.209C4.05676 17.9673 4.3505 18.6245 4.86318 19.1372C5.37587 19.6499 6.0331 19.9436 6.79128 20.1121C6.86389 20.1282 6.93687 20.1434 7.01014 20.1575C7.9139 20.3321 8.66699 19.5672 8.66699 18.6467V12C8.66699 11.0795 7.9208 10.3334 7.00033 10.3334H5.33366C4.41318 10.3334 3.66699 11.0795 3.66699 12V14.52Z" fill="#CDCDCD"/>
<path d="M9.48008 3.66663C8.4358 3.66663 7.53976 3.72149 6.79103 3.88789C6.03285 4.05639 5.37562 4.35013 4.86293 4.86282C4.35025 5.3755 4.05651 6.03273 3.88801 6.79092C3.87418 6.85318 3.86116 6.91563 3.84893 6.97828C3.67028 7.89385 4.44918 8.66663 5.38202 8.66663H18.6468C19.5673 8.66663 20.3322 7.91353 20.1576 7.00978C20.1434 6.9365 20.1283 6.86353 20.1122 6.79092C19.9436 6.03273 19.6499 5.3755 19.1372 4.86282C18.6245 4.35013 17.9673 4.05639 17.2091 3.88789C16.4603 3.72149 15.5644 3.66663 14.5201 3.66663H9.48008Z" fill="#CDCDCD"/>
</g>
<defs>
<clipPath id="clip0_10_15805">
<rect width="20" height="20" fill="white" transform="translate(2 2)"/>
</clipPath>
</defs>
</svg>
