<svg width="20" height="20" viewBox="0 0 20 20" fill="none" xmlns="http://www.w3.org/2000/svg">
<path d="M6.24454 10H4.15565C3.84883 10 3.6001 10.2487 3.6001 10.5556V15.8444C3.6001 16.1513 3.84883 16.4 4.15565 16.4H6.24454C6.55137 16.4 6.8001 16.1513 6.8001 15.8444V10.5556C6.8001 10.2487 6.55137 10 6.24454 10Z" fill="#CDCDCD"/>
<path d="M11.0443 3.6001H8.95546C8.64863 3.6001 8.3999 3.84883 8.3999 4.15565V15.8445C8.3999 16.1514 8.64863 16.4001 8.95546 16.4001H11.0443C11.3512 16.4001 11.5999 16.1514 11.5999 15.8445V4.15565C11.5999 3.84883 11.3512 3.6001 11.0443 3.6001Z" fill="#CDCDCD"/>
<path d="M15.8446 7.8667H13.7558C13.4489 7.8667 13.2002 8.11543 13.2002 8.42225V15.8445C13.2002 16.1513 13.4489 16.4 13.7558 16.4H15.8446C16.1515 16.4 16.4002 16.1513 16.4002 15.8445V8.42225C16.4002 8.11543 16.1515 7.8667 15.8446 7.8667Z" fill="#CDCDCD"/>
</svg>
