<svg width="20" height="20" viewBox="0 0 20 20" fill="none" xmlns="http://www.w3.org/2000/svg">
<path d="M13.492 1.6665H6.50866C3.47533 1.6665 1.66699 3.47484 1.66699 6.50817V13.4832C1.66699 16.5248 3.47533 18.3332 6.50866 18.3332H13.4837C16.517 18.3332 18.3253 16.5248 18.3253 13.4915V6.50817C18.3337 3.47484 16.5253 1.6665 13.492 1.6665ZM14.3837 8.29984L12.4587 10.7832C12.217 11.0915 11.8753 11.2915 11.4837 11.3332C11.092 11.3832 10.7087 11.2748 10.4003 11.0332L8.87533 9.83317C8.81699 9.78317 8.75033 9.78317 8.71699 9.7915C8.68366 9.7915 8.62533 9.80817 8.57533 9.87484L6.59199 12.4498C6.46699 12.6082 6.28366 12.6915 6.10033 12.6915C5.96699 12.6915 5.83366 12.6498 5.71699 12.5582C5.44199 12.3498 5.39199 11.9582 5.60033 11.6832L7.58366 9.10817C7.82533 8.79984 8.16699 8.59984 8.55866 8.54984C8.94199 8.49984 9.33366 8.60817 9.64199 8.84984L11.167 10.0498C11.2253 10.0998 11.2837 10.0998 11.3253 10.0915C11.3587 10.0915 11.417 10.0748 11.467 10.0082L13.392 7.52484C13.6003 7.24984 14.0003 7.19984 14.267 7.4165C14.542 7.6415 14.592 8.03317 14.3837 8.29984Z" fill="black"/>
</svg>
