<svg width="20" height="20" viewBox="0 0 20 20" fill="none" xmlns="http://www.w3.org/2000/svg">
<path d="M13.492 1.66663H6.50866C3.47533 1.66663 1.66699 3.47496 1.66699 6.50829V13.4833C1.66699 16.525 3.47533 18.3333 6.50866 18.3333H13.4837C16.517 18.3333 18.3253 16.525 18.3253 13.4916V6.50829C18.3337 3.47496 16.5253 1.66663 13.492 1.66663ZM14.3837 8.29996L12.4587 10.7833C12.217 11.0916 11.8753 11.2916 11.4837 11.3333C11.092 11.3833 10.7087 11.275 10.4003 11.0333L8.87533 9.83329C8.81699 9.78329 8.75033 9.78329 8.71699 9.79163C8.68366 9.79163 8.62533 9.80829 8.57533 9.87496L6.59199 12.45C6.46699 12.6083 6.28366 12.6916 6.10033 12.6916C5.96699 12.6916 5.83366 12.65 5.71699 12.5583C5.44199 12.35 5.39199 11.9583 5.60033 11.6833L7.58366 9.10829C7.82533 8.79996 8.16699 8.59996 8.55866 8.54996C8.94199 8.49996 9.33366 8.60829 9.64199 8.84996L11.167 10.05C11.2253 10.1 11.2837 10.1 11.3253 10.0916C11.3587 10.0916 11.417 10.075 11.467 10.0083L13.392 7.52496C13.6003 7.24996 14.0003 7.19996 14.267 7.41663C14.542 7.64163 14.592 8.03329 14.3837 8.29996Z" fill="#CDCDCD"/>
</svg>
