<svg width="197" height="315" viewBox="0 0 197 315" fill="none" xmlns="http://www.w3.org/2000/svg">
<path d="M98.5 10V305" stroke="black" stroke-dasharray="4 4"/>
<circle cx="98.5" cy="19.5" r="19.5" fill="black"/>
<path d="M97.9616 13V12.168H99.6256V18H98.7056V13H97.9616ZM89.5036 26L88.2236 23.776H87.5276V26H86.6156V20.44H88.5356C88.9623 20.44 89.3223 20.5147 89.6156 20.664C89.9143 20.8133 90.1356 21.0133 90.2796 21.264C90.429 21.5147 90.5036 21.7947 90.5036 22.104C90.5036 22.4667 90.397 22.7973 90.1836 23.096C89.9756 23.3893 89.653 23.5893 89.2156 23.696L90.5916 26H89.5036ZM87.5276 23.048H88.5356C88.877 23.048 89.133 22.9627 89.3036 22.792C89.4796 22.6213 89.5676 22.392 89.5676 22.104C89.5676 21.816 89.4823 21.592 89.3116 21.432C89.141 21.2667 88.8823 21.184 88.5356 21.184H87.5276V23.048ZM93.5823 26.072C93.1663 26.072 92.7903 25.9787 92.4543 25.792C92.1183 25.6 91.8543 25.3333 91.6623 24.992C91.4703 24.6453 91.3743 24.2453 91.3743 23.792C91.3743 23.344 91.473 22.9467 91.6703 22.6C91.8676 22.2533 92.137 21.9867 92.4783 21.8C92.8196 21.6133 93.201 21.52 93.6223 21.52C94.0436 21.52 94.425 21.6133 94.7663 21.8C95.1076 21.9867 95.377 22.2533 95.5743 22.6C95.7716 22.9467 95.8703 23.344 95.8703 23.792C95.8703 24.24 95.769 24.6373 95.5663 24.984C95.3636 25.3307 95.0863 25.6 94.7343 25.792C94.3876 25.9787 94.0036 26.072 93.5823 26.072ZM93.5823 25.28C93.817 25.28 94.0356 25.224 94.2383 25.112C94.4463 25 94.6143 24.832 94.7423 24.608C94.8703 24.384 94.9343 24.112 94.9343 23.792C94.9343 23.472 94.873 23.2027 94.7503 22.984C94.6276 22.76 94.465 22.592 94.2623 22.48C94.0596 22.368 93.841 22.312 93.6063 22.312C93.3716 22.312 93.153 22.368 92.9503 22.48C92.753 22.592 92.5956 22.76 92.4783 22.984C92.361 23.2027 92.3023 23.472 92.3023 23.792C92.3023 24.2667 92.4223 24.6347 92.6623 24.896C92.9076 25.152 93.2143 25.28 93.5823 25.28ZM100.764 21.592V26H99.8519V25.48C99.7079 25.6613 99.5185 25.8053 99.2839 25.912C99.0545 26.0133 98.8092 26.064 98.5479 26.064C98.2012 26.064 97.8892 25.992 97.6119 25.848C97.3399 25.704 97.1239 25.4907 96.9639 25.208C96.8092 24.9253 96.7319 24.584 96.7319 24.184V21.592H97.6359V24.048C97.6359 24.4427 97.7345 24.7467 97.9319 24.96C98.1292 25.168 98.3985 25.272 98.7399 25.272C99.0812 25.272 99.3505 25.168 99.5479 24.96C99.7505 24.7467 99.8519 24.4427 99.8519 24.048V21.592H100.764ZM104.191 21.52C104.538 21.52 104.847 21.592 105.119 21.736C105.397 21.88 105.613 22.0933 105.767 22.376C105.922 22.6587 105.999 23 105.999 23.4V26H105.095V23.536C105.095 23.1413 104.997 22.84 104.799 22.632C104.602 22.4187 104.333 22.312 103.991 22.312C103.65 22.312 103.378 22.4187 103.175 22.632C102.978 22.84 102.879 23.1413 102.879 23.536V26H101.967V21.592H102.879V22.096C103.029 21.9147 103.218 21.7733 103.447 21.672C103.682 21.5707 103.93 21.52 104.191 21.52ZM106.859 23.776C106.859 23.3333 106.949 22.9413 107.131 22.6C107.317 22.2587 107.568 21.9947 107.883 21.808C108.203 21.616 108.557 21.52 108.947 21.52C109.235 21.52 109.517 21.584 109.795 21.712C110.077 21.8347 110.301 22 110.467 22.208V20.08H111.387V26H110.467V25.336C110.317 25.5493 110.109 25.7253 109.843 25.864C109.581 26.0027 109.28 26.072 108.939 26.072C108.555 26.072 108.203 25.976 107.883 25.784C107.568 25.5867 107.317 25.3147 107.131 24.968C106.949 24.616 106.859 24.2187 106.859 23.776ZM110.467 23.792C110.467 23.488 110.403 23.224 110.275 23C110.152 22.776 109.989 22.6053 109.787 22.488C109.584 22.3707 109.365 22.312 109.131 22.312C108.896 22.312 108.677 22.3707 108.475 22.488C108.272 22.6 108.107 22.768 107.979 22.992C107.856 23.2107 107.795 23.472 107.795 23.776C107.795 24.08 107.856 24.3467 107.979 24.576C108.107 24.8053 108.272 24.9813 108.475 25.104C108.683 25.2213 108.901 25.28 109.131 25.28C109.365 25.28 109.584 25.2213 109.787 25.104C109.989 24.9867 110.152 24.816 110.275 24.592C110.403 24.3627 110.467 24.096 110.467 23.792Z" fill="white"/>
<circle cx="98.5" cy="111.5" r="19.5" fill="black"/>
<path d="M97.6754 108.76C98.1874 108.317 98.5901 107.955 98.8834 107.672C99.1821 107.384 99.4301 107.085 99.6274 106.776C99.8247 106.467 99.9234 106.157 99.9234 105.848C99.9234 105.528 99.8461 105.277 99.6914 105.096C99.5421 104.915 99.3047 104.824 98.9794 104.824C98.6647 104.824 98.4194 104.925 98.2434 105.128C98.0727 105.325 97.9821 105.592 97.9714 105.928H97.0914C97.1074 105.32 97.2887 104.856 97.6354 104.536C97.9874 104.211 98.4327 104.048 98.9714 104.048C99.5527 104.048 100.006 104.208 100.331 104.528C100.662 104.848 100.827 105.275 100.827 105.808C100.827 106.192 100.729 106.563 100.531 106.92C100.339 107.272 100.107 107.589 99.8354 107.872C99.5687 108.149 99.2274 108.472 98.8114 108.84L98.4514 109.16H100.987V109.92H97.0994V109.256L97.6754 108.76ZM89.5036 118L88.2236 115.776H87.5276V118H86.6156V112.44H88.5356C88.9623 112.44 89.3223 112.515 89.6156 112.664C89.9143 112.813 90.1356 113.013 90.2796 113.264C90.429 113.515 90.5036 113.795 90.5036 114.104C90.5036 114.467 90.397 114.797 90.1836 115.096C89.9756 115.389 89.653 115.589 89.2156 115.696L90.5916 118H89.5036ZM87.5276 115.048H88.5356C88.877 115.048 89.133 114.963 89.3036 114.792C89.4796 114.621 89.5676 114.392 89.5676 114.104C89.5676 113.816 89.4823 113.592 89.3116 113.432C89.141 113.267 88.8823 113.184 88.5356 113.184H87.5276V115.048ZM93.5823 118.072C93.1663 118.072 92.7903 117.979 92.4543 117.792C92.1183 117.6 91.8543 117.333 91.6623 116.992C91.4703 116.645 91.3743 116.245 91.3743 115.792C91.3743 115.344 91.473 114.947 91.6703 114.6C91.8676 114.253 92.137 113.987 92.4783 113.8C92.8196 113.613 93.201 113.52 93.6223 113.52C94.0436 113.52 94.425 113.613 94.7663 113.8C95.1076 113.987 95.377 114.253 95.5743 114.6C95.7716 114.947 95.8703 115.344 95.8703 115.792C95.8703 116.24 95.769 116.637 95.5663 116.984C95.3636 117.331 95.0863 117.6 94.7343 117.792C94.3876 117.979 94.0036 118.072 93.5823 118.072ZM93.5823 117.28C93.817 117.28 94.0356 117.224 94.2383 117.112C94.4463 117 94.6143 116.832 94.7423 116.608C94.8703 116.384 94.9343 116.112 94.9343 115.792C94.9343 115.472 94.873 115.203 94.7503 114.984C94.6276 114.76 94.465 114.592 94.2623 114.48C94.0596 114.368 93.841 114.312 93.6063 114.312C93.3716 114.312 93.153 114.368 92.9503 114.48C92.753 114.592 92.5956 114.76 92.4783 114.984C92.361 115.203 92.3023 115.472 92.3023 115.792C92.3023 116.267 92.4223 116.635 92.6623 116.896C92.9076 117.152 93.2143 117.28 93.5823 117.28ZM100.764 113.592V118H99.8519V117.48C99.7079 117.661 99.5185 117.805 99.2839 117.912C99.0545 118.013 98.8092 118.064 98.5479 118.064C98.2012 118.064 97.8892 117.992 97.6119 117.848C97.3399 117.704 97.1239 117.491 96.9639 117.208C96.8092 116.925 96.7319 116.584 96.7319 116.184V113.592H97.6359V116.048C97.6359 116.443 97.7345 116.747 97.9319 116.96C98.1292 117.168 98.3985 117.272 98.7399 117.272C99.0812 117.272 99.3505 117.168 99.5479 116.96C99.7505 116.747 99.8519 116.443 99.8519 116.048V113.592H100.764ZM104.191 113.52C104.538 113.52 104.847 113.592 105.119 113.736C105.397 113.88 105.613 114.093 105.767 114.376C105.922 114.659 105.999 115 105.999 115.4V118H105.095V115.536C105.095 115.141 104.997 114.84 104.799 114.632C104.602 114.419 104.333 114.312 103.991 114.312C103.65 114.312 103.378 114.419 103.175 114.632C102.978 114.84 102.879 115.141 102.879 115.536V118H101.967V113.592H102.879V114.096C103.029 113.915 103.218 113.773 103.447 113.672C103.682 113.571 103.93 113.52 104.191 113.52ZM106.859 115.776C106.859 115.333 106.949 114.941 107.131 114.6C107.317 114.259 107.568 113.995 107.883 113.808C108.203 113.616 108.557 113.52 108.947 113.52C109.235 113.52 109.517 113.584 109.795 113.712C110.077 113.835 110.301 114 110.467 114.208V112.08H111.387V118H110.467V117.336C110.317 117.549 110.109 117.725 109.843 117.864C109.581 118.003 109.28 118.072 108.939 118.072C108.555 118.072 108.203 117.976 107.883 117.784C107.568 117.587 107.317 117.315 107.131 116.968C106.949 116.616 106.859 116.219 106.859 115.776ZM110.467 115.792C110.467 115.488 110.403 115.224 110.275 115C110.152 114.776 109.989 114.605 109.787 114.488C109.584 114.371 109.365 114.312 109.131 114.312C108.896 114.312 108.677 114.371 108.475 114.488C108.272 114.6 108.107 114.768 107.979 114.992C107.856 115.211 107.795 115.472 107.795 115.776C107.795 116.08 107.856 116.347 107.979 116.576C108.107 116.805 108.272 116.981 108.475 117.104C108.683 117.221 108.901 117.28 109.131 117.28C109.365 117.28 109.584 117.221 109.787 117.104C109.989 116.987 110.152 116.816 110.275 116.592C110.403 116.363 110.467 116.096 110.467 115.792Z" fill="white"/>
<path d="M0 20L5 17.1132L5 22.8868L0 20ZM5.85 19.5L9.75 19.5L9.75 20.5L5.85 20.5L5.85 19.5ZM13.65 19.5L17.55 19.5L17.55 20.5L13.65 20.5L13.65 19.5ZM21.45 19.5L25.35 19.5L25.35 20.5L21.45 20.5L21.45 19.5ZM29.25 19.5L33.15 19.5L33.15 20.5L29.25 20.5L29.25 19.5ZM37.05 19.5L40.95 19.5L40.95 20.5L37.05 20.5L37.05 19.5ZM44.85 19.5L48.75 19.5L48.75 20.5L44.85 20.5L44.85 19.5ZM52.65 19.5L56.55 19.5L56.55 20.5L52.65 20.5L52.65 19.5ZM60.45 19.5L64.35 19.5L64.35 20.5L60.45 20.5L60.45 19.5ZM68.25 19.5L72.15 19.5L72.15 20.5L68.25 20.5L68.25 19.5ZM76.05 19.5L78 19.5L78 20.5L76.05 20.5L76.05 19.5Z" fill="black"/>
<circle cx="98.5" cy="203.5" r="19.5" fill="black"/>
<path d="M97.089 197.608C97.121 197.112 97.3103 196.725 97.657 196.448C98.009 196.171 98.457 196.032 99.001 196.032C99.3743 196.032 99.697 196.099 99.969 196.232C100.241 196.365 100.446 196.547 100.585 196.776C100.724 197.005 100.793 197.264 100.793 197.552C100.793 197.883 100.705 198.165 100.529 198.4C100.353 198.635 100.142 198.792 99.897 198.872V198.904C100.212 199 100.457 199.176 100.633 199.432C100.809 199.683 100.897 200.005 100.897 200.4C100.897 200.715 100.825 200.995 100.681 201.24C100.537 201.485 100.324 201.68 100.041 201.824C99.7583 201.963 99.4197 202.032 99.025 202.032C98.449 202.032 97.9743 201.885 97.601 201.592C97.233 201.293 97.0357 200.867 97.009 200.312H97.889C97.9103 200.595 98.0197 200.827 98.217 201.008C98.4143 201.184 98.681 201.272 99.017 201.272C99.3423 201.272 99.593 201.184 99.769 201.008C99.945 200.827 100.033 200.595 100.033 200.312C100.033 199.939 99.913 199.675 99.673 199.52C99.4383 199.36 99.0757 199.28 98.585 199.28H98.377V198.528H98.593C99.025 198.523 99.353 198.451 99.577 198.312C99.8063 198.173 99.921 197.955 99.921 197.656C99.921 197.4 99.8383 197.197 99.673 197.048C99.5077 196.893 99.273 196.816 98.969 196.816C98.6703 196.816 98.4383 196.893 98.273 197.048C98.1077 197.197 98.009 197.384 97.977 197.608H97.089ZM89.5036 210L88.2236 207.776H87.5276V210H86.6156V204.44H88.5356C88.9623 204.44 89.3223 204.515 89.6156 204.664C89.9143 204.813 90.1356 205.013 90.2796 205.264C90.429 205.515 90.5036 205.795 90.5036 206.104C90.5036 206.467 90.397 206.797 90.1836 207.096C89.9756 207.389 89.653 207.589 89.2156 207.696L90.5916 210H89.5036ZM87.5276 207.048H88.5356C88.877 207.048 89.133 206.963 89.3036 206.792C89.4796 206.621 89.5676 206.392 89.5676 206.104C89.5676 205.816 89.4823 205.592 89.3116 205.432C89.141 205.267 88.8823 205.184 88.5356 205.184H87.5276V207.048ZM93.5823 210.072C93.1663 210.072 92.7903 209.979 92.4543 209.792C92.1183 209.6 91.8543 209.333 91.6623 208.992C91.4703 208.645 91.3743 208.245 91.3743 207.792C91.3743 207.344 91.473 206.947 91.6703 206.6C91.8676 206.253 92.137 205.987 92.4783 205.8C92.8196 205.613 93.201 205.52 93.6223 205.52C94.0436 205.52 94.425 205.613 94.7663 205.8C95.1076 205.987 95.377 206.253 95.5743 206.6C95.7716 206.947 95.8703 207.344 95.8703 207.792C95.8703 208.24 95.769 208.637 95.5663 208.984C95.3636 209.331 95.0863 209.6 94.7343 209.792C94.3876 209.979 94.0036 210.072 93.5823 210.072ZM93.5823 209.28C93.817 209.28 94.0356 209.224 94.2383 209.112C94.4463 209 94.6143 208.832 94.7423 208.608C94.8703 208.384 94.9343 208.112 94.9343 207.792C94.9343 207.472 94.873 207.203 94.7503 206.984C94.6276 206.76 94.465 206.592 94.2623 206.48C94.0596 206.368 93.841 206.312 93.6063 206.312C93.3716 206.312 93.153 206.368 92.9503 206.48C92.753 206.592 92.5956 206.76 92.4783 206.984C92.361 207.203 92.3023 207.472 92.3023 207.792C92.3023 208.267 92.4223 208.635 92.6623 208.896C92.9076 209.152 93.2143 209.28 93.5823 209.28ZM100.764 205.592V210H99.8519V209.48C99.7079 209.661 99.5185 209.805 99.2839 209.912C99.0545 210.013 98.8092 210.064 98.5479 210.064C98.2012 210.064 97.8892 209.992 97.6119 209.848C97.3399 209.704 97.1239 209.491 96.9639 209.208C96.8092 208.925 96.7319 208.584 96.7319 208.184V205.592H97.6359V208.048C97.6359 208.443 97.7345 208.747 97.9319 208.96C98.1292 209.168 98.3985 209.272 98.7399 209.272C99.0812 209.272 99.3505 209.168 99.5479 208.96C99.7505 208.747 99.8519 208.443 99.8519 208.048V205.592H100.764ZM104.191 205.52C104.538 205.52 104.847 205.592 105.119 205.736C105.397 205.88 105.613 206.093 105.767 206.376C105.922 206.659 105.999 207 105.999 207.4V210H105.095V207.536C105.095 207.141 104.997 206.84 104.799 206.632C104.602 206.419 104.333 206.312 103.991 206.312C103.65 206.312 103.378 206.419 103.175 206.632C102.978 206.84 102.879 207.141 102.879 207.536V210H101.967V205.592H102.879V206.096C103.029 205.915 103.218 205.773 103.447 205.672C103.682 205.571 103.93 205.52 104.191 205.52ZM106.859 207.776C106.859 207.333 106.949 206.941 107.131 206.6C107.317 206.259 107.568 205.995 107.883 205.808C108.203 205.616 108.557 205.52 108.947 205.52C109.235 205.52 109.517 205.584 109.795 205.712C110.077 205.835 110.301 206 110.467 206.208V204.08H111.387V210H110.467V209.336C110.317 209.549 110.109 209.725 109.843 209.864C109.581 210.003 109.28 210.072 108.939 210.072C108.555 210.072 108.203 209.976 107.883 209.784C107.568 209.587 107.317 209.315 107.131 208.968C106.949 208.616 106.859 208.219 106.859 207.776ZM110.467 207.792C110.467 207.488 110.403 207.224 110.275 207C110.152 206.776 109.989 206.605 109.787 206.488C109.584 206.371 109.365 206.312 109.131 206.312C108.896 206.312 108.677 206.371 108.475 206.488C108.272 206.6 108.107 206.768 107.979 206.992C107.856 207.211 107.795 207.472 107.795 207.776C107.795 208.08 107.856 208.347 107.979 208.576C108.107 208.805 108.272 208.981 108.475 209.104C108.683 209.221 108.901 209.28 109.131 209.28C109.365 209.28 109.584 209.221 109.787 209.104C109.989 208.987 110.152 208.816 110.275 208.592C110.403 208.363 110.467 208.096 110.467 207.792Z" fill="white"/>
<path d="M0 204L5 201.113L5 206.887L0 204ZM5.85 203.5L9.75 203.5L9.75 204.5L5.85 204.5L5.85 203.5ZM13.65 203.5L17.55 203.5L17.55 204.5L13.65 204.5L13.65 203.5ZM21.45 203.5L25.35 203.5L25.35 204.5L21.45 204.5L21.45 203.5ZM29.25 203.5L33.15 203.5L33.15 204.5L29.25 204.5L29.25 203.5ZM37.05 203.5L40.95 203.5L40.95 204.5L37.05 204.5L37.05 203.5ZM44.85 203.5L48.75 203.5L48.75 204.5L44.85 204.5L44.85 203.5ZM52.65 203.5L56.55 203.5L56.55 204.5L52.65 204.5L52.65 203.5ZM60.45 203.5L64.35 203.5L64.35 204.5L60.45 204.5L60.45 203.5ZM68.25 203.5L72.15 203.5L72.15 204.5L68.25 204.5L68.25 203.5ZM76.05 203.5L78 203.5L78 204.5L76.05 204.5L76.05 203.5Z" fill="black"/>
<path d="M197 112L192 109.113L192 114.887L197 112ZM191.15 111.5L187.25 111.5L187.25 112.5L191.15 112.5L191.15 111.5ZM183.35 111.5L179.45 111.5L179.45 112.5L183.35 112.5L183.35 111.5ZM175.55 111.5L171.65 111.5L171.65 112.5L175.55 112.5L175.55 111.5ZM167.75 111.5L163.85 111.5L163.85 112.5L167.75 112.5L167.75 111.5ZM159.95 111.5L156.05 111.5L156.05 112.5L159.95 112.5L159.95 111.5ZM152.15 111.5L148.25 111.5L148.25 112.5L152.15 112.5L152.15 111.5ZM144.35 111.5L140.45 111.5L140.45 112.5L144.35 112.5L144.35 111.5ZM136.55 111.5L132.65 111.5L132.65 112.5L136.55 112.5L136.55 111.5ZM128.75 111.5L124.85 111.5L124.85 112.5L128.75 112.5L128.75 111.5ZM120.95 111.5L119 111.5L119 112.5L120.95 112.5L120.95 111.5Z" fill="black"/>
<circle cx="98.5" cy="295.5" r="19.5" fill="black"/>
<path d="M96.7782 292.784V292.096L99.4662 288.24H100.57V291.992H101.314V292.784H100.57V294H99.6742V292.784H96.7782ZM99.7142 289.168L97.8262 291.992H99.7142V289.168ZM89.5036 302L88.2236 299.776H87.5276V302H86.6156V296.44H88.5356C88.9623 296.44 89.3223 296.515 89.6156 296.664C89.9143 296.813 90.1356 297.013 90.2796 297.264C90.429 297.515 90.5036 297.795 90.5036 298.104C90.5036 298.467 90.397 298.797 90.1836 299.096C89.9756 299.389 89.653 299.589 89.2156 299.696L90.5916 302H89.5036ZM87.5276 299.048H88.5356C88.877 299.048 89.133 298.963 89.3036 298.792C89.4796 298.621 89.5676 298.392 89.5676 298.104C89.5676 297.816 89.4823 297.592 89.3116 297.432C89.141 297.267 88.8823 297.184 88.5356 297.184H87.5276V299.048ZM93.5823 302.072C93.1663 302.072 92.7903 301.979 92.4543 301.792C92.1183 301.6 91.8543 301.333 91.6623 300.992C91.4703 300.645 91.3743 300.245 91.3743 299.792C91.3743 299.344 91.473 298.947 91.6703 298.6C91.8676 298.253 92.137 297.987 92.4783 297.8C92.8196 297.613 93.201 297.52 93.6223 297.52C94.0436 297.52 94.425 297.613 94.7663 297.8C95.1076 297.987 95.377 298.253 95.5743 298.6C95.7716 298.947 95.8703 299.344 95.8703 299.792C95.8703 300.24 95.769 300.637 95.5663 300.984C95.3636 301.331 95.0863 301.6 94.7343 301.792C94.3876 301.979 94.0036 302.072 93.5823 302.072ZM93.5823 301.28C93.817 301.28 94.0356 301.224 94.2383 301.112C94.4463 301 94.6143 300.832 94.7423 300.608C94.8703 300.384 94.9343 300.112 94.9343 299.792C94.9343 299.472 94.873 299.203 94.7503 298.984C94.6276 298.76 94.465 298.592 94.2623 298.48C94.0596 298.368 93.841 298.312 93.6063 298.312C93.3716 298.312 93.153 298.368 92.9503 298.48C92.753 298.592 92.5956 298.76 92.4783 298.984C92.361 299.203 92.3023 299.472 92.3023 299.792C92.3023 300.267 92.4223 300.635 92.6623 300.896C92.9076 301.152 93.2143 301.28 93.5823 301.28ZM100.764 297.592V302H99.8519V301.48C99.7079 301.661 99.5185 301.805 99.2839 301.912C99.0545 302.013 98.8092 302.064 98.5479 302.064C98.2012 302.064 97.8892 301.992 97.6119 301.848C97.3399 301.704 97.1239 301.491 96.9639 301.208C96.8092 300.925 96.7319 300.584 96.7319 300.184V297.592H97.6359V300.048C97.6359 300.443 97.7345 300.747 97.9319 300.96C98.1292 301.168 98.3985 301.272 98.7399 301.272C99.0812 301.272 99.3505 301.168 99.5479 300.96C99.7505 300.747 99.8519 300.443 99.8519 300.048V297.592H100.764ZM104.191 297.52C104.538 297.52 104.847 297.592 105.119 297.736C105.397 297.88 105.613 298.093 105.767 298.376C105.922 298.659 105.999 299 105.999 299.4V302H105.095V299.536C105.095 299.141 104.997 298.84 104.799 298.632C104.602 298.419 104.333 298.312 103.991 298.312C103.65 298.312 103.378 298.419 103.175 298.632C102.978 298.84 102.879 299.141 102.879 299.536V302H101.967V297.592H102.879V298.096C103.029 297.915 103.218 297.773 103.447 297.672C103.682 297.571 103.93 297.52 104.191 297.52ZM106.859 299.776C106.859 299.333 106.949 298.941 107.131 298.6C107.317 298.259 107.568 297.995 107.883 297.808C108.203 297.616 108.557 297.52 108.947 297.52C109.235 297.52 109.517 297.584 109.795 297.712C110.077 297.835 110.301 298 110.467 298.208V296.08H111.387V302H110.467V301.336C110.317 301.549 110.109 301.725 109.843 301.864C109.581 302.003 109.28 302.072 108.939 302.072C108.555 302.072 108.203 301.976 107.883 301.784C107.568 301.587 107.317 301.315 107.131 300.968C106.949 300.616 106.859 300.219 106.859 299.776ZM110.467 299.792C110.467 299.488 110.403 299.224 110.275 299C110.152 298.776 109.989 298.605 109.787 298.488C109.584 298.371 109.365 298.312 109.131 298.312C108.896 298.312 108.677 298.371 108.475 298.488C108.272 298.6 108.107 298.768 107.979 298.992C107.856 299.211 107.795 299.472 107.795 299.776C107.795 300.08 107.856 300.347 107.979 300.576C108.107 300.805 108.272 300.981 108.475 301.104C108.683 301.221 108.901 301.28 109.131 301.28C109.365 301.28 109.584 301.221 109.787 301.104C109.989 300.987 110.152 300.816 110.275 300.592C110.403 300.363 110.467 300.096 110.467 299.792Z" fill="white"/>
<path d="M197 296L192 293.113L192 298.887L197 296ZM191.15 295.5L187.25 295.5L187.25 296.5L191.15 296.5L191.15 295.5ZM183.35 295.5L179.45 295.5L179.45 296.5L183.35 296.5L183.35 295.5ZM175.55 295.5L171.65 295.5L171.65 296.5L175.55 296.5L175.55 295.5ZM167.75 295.5L163.85 295.5L163.85 296.5L167.75 296.5L167.75 295.5ZM159.95 295.5L156.05 295.5L156.05 296.5L159.95 296.5L159.95 295.5ZM152.15 295.5L148.25 295.5L148.25 296.5L152.15 296.5L152.15 295.5ZM144.35 295.5L140.45 295.5L140.45 296.5L144.35 296.5L144.35 295.5ZM136.55 295.5L132.65 295.5L132.65 296.5L136.55 296.5L136.55 295.5ZM128.75 295.5L124.85 295.5L124.85 296.5L128.75 296.5L128.75 295.5ZM120.95 295.5L119 295.5L119 296.5L120.95 296.5L120.95 295.5Z" fill="black"/>
</svg>
