<svg width="20" height="20" viewBox="0 0 20 20" fill="none" xmlns="http://www.w3.org/2000/svg">
<g clip-path="url(#clip0_10_13633)">
<path d="M11.1293 1.22499C10.5458 0.512323 9.45599 0.512326 8.87257 1.22499L8.04601 2.23453C7.98936 2.30372 7.89486 2.32905 7.8112 2.29745L6.59063 1.83642C5.729 1.51098 4.78518 2.05589 4.6362 2.96481L4.42518 4.25237C4.41071 4.34062 4.34154 4.4098 4.25328 4.42426L2.96573 4.63529C2.05681 4.78426 1.51189 5.72808 1.83734 6.58971L2.29836 7.81029C2.32996 7.89395 2.30464 7.98845 2.23545 8.0451L1.2259 8.87161C0.513239 9.45511 0.513241 10.5449 1.2259 11.1284L2.23545 11.9549C2.30464 12.0116 2.32996 12.1061 2.29836 12.1898L1.83734 13.4104C1.5119 14.2719 2.0568 15.2158 2.96573 15.3648L4.25328 15.5758C4.34154 15.5903 4.41071 15.6594 4.42518 15.7477L4.6362 17.0352C4.78518 17.9441 5.729 18.489 6.59063 18.1636L7.8112 17.7026C7.89486 17.671 7.98936 17.6963 8.04601 17.7655L8.87257 18.775C9.45599 19.4877 10.5458 19.4877 11.1293 18.775L11.9558 17.7655C12.0125 17.6963 12.107 17.671 12.1907 17.7026L13.4112 18.1636C14.2729 18.489 15.2167 17.9441 15.3657 17.0352L15.5767 15.7477C15.5912 15.6594 15.6603 15.5903 15.7486 15.5758L17.0362 15.3648C17.9451 15.2158 18.49 14.2719 18.1646 13.4104L17.7035 12.1898C17.6719 12.1061 17.6972 12.0116 17.7664 11.9549L18.776 11.1284C19.4887 10.5449 19.4887 9.45511 18.776 8.87161L17.7664 8.0451C17.6972 7.98845 17.6719 7.89395 17.7035 7.81029L18.1646 6.58971C18.49 5.72808 17.9451 4.78426 17.0362 4.63529L15.7486 4.42426C15.6603 4.4098 15.5912 4.34062 15.5767 4.25237L15.3657 2.96481C15.2167 2.0559 14.2729 1.51097 13.4112 1.83642L12.1907 2.29745C12.107 2.32905 12.0125 2.30372 11.9558 2.23453L11.1293 1.22499Z" fill="#3D88E0"/>
<path fill-rule="evenodd" clip-rule="evenodd" d="M15.0256 6.64143C15.2697 6.88551 15.2697 7.28124 15.0256 7.52531L9.19224 13.3586C9.07507 13.4759 8.91607 13.5417 8.75032 13.5417C8.58457 13.5417 8.42557 13.4759 8.30838 13.3586L4.97505 10.0253C4.73097 9.78121 4.73097 9.38554 4.97505 9.14146C5.21912 8.89737 5.61486 8.89737 5.85893 9.14146L8.75032 12.0328L14.1417 6.64143C14.3858 6.39736 14.7815 6.39736 15.0256 6.64143Z" fill="white"/>
</g>
<defs>
<clipPath id="clip0_10_13633">
<rect width="20" height="20" fill="white"/>
</clipPath>
</defs>
</svg>
